G04 (created by PCBNEW (2013-07-07 BZR 4022)-stable) date 30/04/2014 12:17:37*
%MOIN*%
G04 Gerber Fmt 3.4, Leading zero omitted, Abs format*
%FSLAX34Y34*%
G01*
G70*
G90*
G04 APERTURE LIST*
%ADD10C,0.00590551*%
%ADD11C,0.011811*%
%ADD12C,0.055*%
%ADD13R,0.06X0.06*%
%ADD14C,0.06*%
%ADD15C,0.066*%
%ADD16C,0.07*%
%ADD17R,0.07X0.07*%
%ADD18R,0.055X0.055*%
%ADD19C,0.012*%
%ADD20C,0.015*%
%ADD21C,0.01*%
G04 APERTURE END LIST*
G54D10*
G54D11*
X88468Y-46928D02*
X88271Y-47518D01*
X88074Y-46928D01*
X87877Y-47518D02*
X87877Y-46928D01*
X87399Y-47209D02*
X87315Y-47237D01*
X87287Y-47265D01*
X87259Y-47321D01*
X87259Y-47406D01*
X87287Y-47462D01*
X87315Y-47490D01*
X87371Y-47518D01*
X87596Y-47518D01*
X87596Y-46928D01*
X87399Y-46928D01*
X87343Y-46956D01*
X87315Y-46984D01*
X87287Y-47040D01*
X87287Y-47096D01*
X87315Y-47152D01*
X87343Y-47181D01*
X87399Y-47209D01*
X87596Y-47209D01*
X86668Y-47518D02*
X86865Y-47237D01*
X87006Y-47518D02*
X87006Y-46928D01*
X86781Y-46928D01*
X86724Y-46956D01*
X86696Y-46984D01*
X86668Y-47040D01*
X86668Y-47124D01*
X86696Y-47181D01*
X86724Y-47209D01*
X86781Y-47237D01*
X87006Y-47237D01*
X86443Y-47349D02*
X86162Y-47349D01*
X86500Y-47518D02*
X86303Y-46928D01*
X86106Y-47518D01*
X85993Y-46928D02*
X85656Y-46928D01*
X85825Y-47518D02*
X85825Y-46928D01*
X85347Y-46928D02*
X85234Y-46928D01*
X85178Y-46956D01*
X85122Y-47012D01*
X85093Y-47124D01*
X85093Y-47321D01*
X85122Y-47434D01*
X85178Y-47490D01*
X85234Y-47518D01*
X85347Y-47518D01*
X85403Y-47490D01*
X85459Y-47434D01*
X85487Y-47321D01*
X85487Y-47124D01*
X85459Y-47012D01*
X85403Y-46956D01*
X85347Y-46928D01*
X84840Y-47518D02*
X84840Y-46928D01*
X84643Y-47349D01*
X84447Y-46928D01*
X84447Y-47518D01*
X84053Y-46928D02*
X83940Y-46928D01*
X83884Y-46956D01*
X83828Y-47012D01*
X83800Y-47124D01*
X83800Y-47321D01*
X83828Y-47434D01*
X83884Y-47490D01*
X83940Y-47518D01*
X84053Y-47518D01*
X84109Y-47490D01*
X84165Y-47434D01*
X84194Y-47321D01*
X84194Y-47124D01*
X84165Y-47012D01*
X84109Y-46956D01*
X84053Y-46928D01*
G54D12*
X87541Y-44921D03*
X91041Y-44921D03*
X88324Y-37322D03*
X84824Y-37322D03*
X89072Y-38700D03*
X85572Y-38700D03*
X72125Y-41592D03*
X72125Y-38092D03*
X73131Y-44921D03*
X76631Y-44921D03*
X90332Y-39842D03*
X86832Y-39842D03*
X73657Y-36027D03*
X73657Y-39527D03*
X81041Y-44960D03*
X77541Y-44960D03*
X81513Y-46062D03*
X78013Y-46062D03*
G54D13*
X87531Y-41440D03*
G54D14*
X88531Y-41440D03*
X87531Y-42440D03*
X88531Y-42440D03*
X87531Y-43440D03*
X88531Y-43440D03*
G54D13*
X73476Y-40748D03*
G54D14*
X74476Y-40748D03*
G54D13*
X74555Y-43031D03*
G54D14*
X73555Y-43031D03*
G54D13*
X87728Y-35059D03*
G54D14*
X87728Y-36059D03*
G54D13*
X86228Y-35059D03*
G54D14*
X86228Y-36059D03*
G54D13*
X84728Y-35059D03*
G54D14*
X84728Y-36059D03*
G54D13*
X89000Y-32300D03*
G54D14*
X89000Y-33300D03*
G54D13*
X82700Y-32250D03*
G54D14*
X82700Y-33250D03*
G54D13*
X85650Y-32250D03*
G54D14*
X85650Y-33250D03*
G54D15*
X91062Y-41744D03*
X91062Y-42744D03*
G54D13*
X73594Y-33031D03*
G54D14*
X74594Y-33031D03*
G54D16*
X76050Y-32150D03*
G54D17*
X77050Y-32150D03*
G54D16*
X78050Y-32150D03*
G54D12*
X78750Y-34100D03*
X78750Y-35100D03*
X75900Y-34300D03*
X75900Y-35300D03*
X78578Y-36598D03*
X77578Y-36598D03*
X75250Y-37250D03*
X75250Y-38250D03*
X82220Y-44708D03*
X83220Y-44708D03*
G54D18*
X72500Y-35850D03*
G54D12*
X71500Y-35850D03*
G54D18*
X79950Y-33100D03*
G54D12*
X80950Y-33100D03*
G54D14*
X78750Y-43160D03*
X81936Y-38277D03*
X85575Y-40831D03*
X84191Y-39042D03*
X76113Y-40730D03*
X82796Y-42759D03*
X84744Y-39551D03*
X84717Y-40329D03*
X75523Y-41825D03*
X84630Y-41412D03*
X83624Y-43025D03*
X82926Y-38196D03*
X75586Y-40208D03*
X83493Y-38745D03*
X84861Y-43218D03*
X77266Y-38633D03*
X77539Y-43141D03*
X78597Y-38376D03*
X77864Y-38156D03*
X83832Y-41832D03*
X76069Y-42406D03*
X76615Y-41279D03*
X76188Y-39704D03*
X76712Y-42904D03*
X76755Y-39200D03*
G54D19*
X84532Y-38700D02*
X85572Y-38700D01*
X84191Y-39042D02*
X84532Y-38700D01*
X86228Y-36059D02*
X86228Y-36566D01*
X85572Y-37222D02*
X85572Y-38700D01*
X86228Y-36566D02*
X85572Y-37222D01*
G54D20*
X74476Y-40748D02*
X76094Y-40748D01*
X76094Y-40748D02*
X76113Y-40730D01*
X74515Y-40708D02*
X74476Y-40748D01*
X74515Y-40708D02*
X74476Y-40748D01*
G54D19*
X74515Y-40708D02*
X74476Y-40748D01*
X91041Y-44921D02*
X91041Y-42765D01*
X91041Y-42765D02*
X91062Y-42744D01*
X82220Y-43334D02*
X82220Y-44708D01*
X82796Y-42759D02*
X82220Y-43334D01*
X81041Y-44960D02*
X81968Y-44960D01*
X81968Y-44960D02*
X82220Y-44708D01*
X86017Y-39842D02*
X86832Y-39842D01*
X85748Y-39573D02*
X86017Y-39842D01*
X84766Y-39573D02*
X85748Y-39573D01*
X84744Y-39551D02*
X84766Y-39573D01*
X87728Y-36059D02*
X87681Y-36059D01*
X86832Y-36907D02*
X86832Y-39842D01*
X87681Y-36059D02*
X86832Y-36907D01*
X86253Y-40163D02*
X87531Y-41440D01*
X84883Y-40163D02*
X86253Y-40163D01*
X84717Y-40329D02*
X84883Y-40163D01*
X74052Y-44001D02*
X73131Y-44921D01*
X74052Y-42330D02*
X74052Y-44001D01*
X74235Y-42147D02*
X74052Y-42330D01*
X75201Y-42147D02*
X74235Y-42147D01*
X75523Y-41825D02*
X75201Y-42147D01*
X86918Y-42440D02*
X87531Y-42440D01*
X86156Y-41678D02*
X86918Y-42440D01*
X84896Y-41678D02*
X86156Y-41678D01*
X84630Y-41412D02*
X84896Y-41678D01*
X89789Y-42698D02*
X88531Y-41440D01*
X89789Y-44807D02*
X89789Y-42698D01*
X88403Y-46193D02*
X89789Y-44807D01*
X86792Y-46193D02*
X88403Y-46193D01*
X83624Y-43025D02*
X86792Y-46193D01*
X88025Y-42934D02*
X88531Y-43440D01*
X88025Y-40705D02*
X88025Y-42934D01*
X87530Y-40210D02*
X88025Y-40705D01*
X87530Y-37168D02*
X87530Y-40210D01*
X88467Y-36231D02*
X87530Y-37168D01*
X88467Y-35808D02*
X88467Y-36231D01*
X88221Y-35562D02*
X88467Y-35808D01*
X84061Y-35562D02*
X88221Y-35562D01*
X82929Y-36694D02*
X84061Y-35562D01*
X82929Y-38193D02*
X82929Y-36694D01*
X82926Y-38196D02*
X82929Y-38193D01*
X73752Y-41592D02*
X72125Y-41592D01*
X73989Y-41356D02*
X73752Y-41592D01*
X73989Y-40477D02*
X73989Y-41356D01*
X74334Y-40132D02*
X73989Y-40477D01*
X75510Y-40132D02*
X74334Y-40132D01*
X75586Y-40208D02*
X75510Y-40132D01*
X84824Y-37413D02*
X84824Y-37322D01*
X83493Y-38745D02*
X84824Y-37413D01*
X84824Y-37322D02*
X84824Y-36155D01*
X84824Y-36155D02*
X84728Y-36059D01*
X89362Y-43271D02*
X88531Y-42440D01*
X89362Y-44716D02*
X89362Y-43271D01*
X88375Y-45703D02*
X89362Y-44716D01*
X87346Y-45703D02*
X88375Y-45703D01*
X84861Y-43218D02*
X87346Y-45703D01*
X75883Y-37250D02*
X75250Y-37250D01*
X77266Y-38633D02*
X75883Y-37250D01*
G54D20*
X73657Y-36027D02*
X74027Y-36027D01*
X74027Y-36027D02*
X75250Y-37250D01*
G54D19*
X77541Y-43143D02*
X77541Y-44960D01*
X77539Y-43141D02*
X77541Y-43143D01*
X77541Y-44960D02*
X78543Y-44960D01*
X78543Y-44960D02*
X79566Y-45984D01*
X79566Y-45984D02*
X81435Y-45984D01*
X81435Y-45984D02*
X81513Y-46062D01*
X78578Y-38357D02*
X78578Y-36598D01*
X78597Y-38376D02*
X78578Y-38357D01*
X77578Y-37870D02*
X77578Y-36598D01*
X77864Y-38156D02*
X77578Y-37870D01*
X86777Y-43440D02*
X87531Y-43440D01*
X85421Y-42084D02*
X86777Y-43440D01*
X84084Y-42084D02*
X85421Y-42084D01*
X83832Y-41832D02*
X84084Y-42084D01*
X87531Y-43440D02*
X87531Y-44911D01*
X87531Y-44911D02*
X87541Y-44921D01*
X75443Y-43031D02*
X74555Y-43031D01*
X76069Y-42406D02*
X75443Y-43031D01*
G54D20*
X76615Y-41279D02*
X75883Y-41279D01*
X73555Y-42306D02*
X73555Y-43031D01*
X74120Y-41742D02*
X73555Y-42306D01*
X74722Y-41742D02*
X74120Y-41742D01*
X75364Y-41100D02*
X74722Y-41742D01*
X75704Y-41100D02*
X75364Y-41100D01*
X75883Y-41279D02*
X75704Y-41100D01*
G54D19*
X73476Y-40413D02*
X73476Y-40748D01*
X74291Y-39599D02*
X73476Y-40413D01*
X76083Y-39599D02*
X74291Y-39599D01*
X76188Y-39704D02*
X76083Y-39599D01*
G54D20*
X76755Y-39200D02*
X76757Y-39200D01*
X77870Y-41746D02*
X76712Y-42904D01*
X77870Y-40313D02*
X77870Y-41746D01*
X76757Y-39200D02*
X77870Y-40313D01*
G54D19*
X76757Y-39197D02*
X76771Y-39212D01*
X76755Y-39200D02*
X76757Y-39197D01*
G54D20*
X75250Y-38250D02*
X75809Y-38250D01*
X75809Y-38250D02*
X76771Y-39212D01*
X73657Y-39527D02*
X73972Y-39527D01*
X73972Y-39527D02*
X75250Y-38250D01*
X72500Y-35850D02*
X72500Y-35125D01*
X72500Y-35125D02*
X74594Y-33031D01*
X72519Y-36600D02*
X72519Y-35869D01*
X72519Y-35869D02*
X72500Y-35850D01*
X74594Y-33031D02*
X74631Y-33031D01*
X74631Y-33031D02*
X75900Y-34300D01*
X75900Y-34300D02*
X75900Y-32300D01*
X75900Y-32300D02*
X76050Y-32150D01*
X74594Y-33031D02*
X72519Y-35106D01*
X72519Y-35106D02*
X72519Y-36600D01*
X72519Y-36600D02*
X72519Y-36811D01*
X72519Y-36811D02*
X73622Y-37913D01*
X73622Y-37913D02*
X73622Y-38962D01*
X73622Y-38962D02*
X73622Y-39491D01*
X73622Y-39491D02*
X73657Y-39527D01*
G54D19*
X73657Y-39527D02*
X73657Y-37949D01*
X73657Y-37949D02*
X72519Y-36811D01*
X72519Y-36811D02*
X72519Y-35106D01*
X85650Y-32250D02*
X88950Y-32250D01*
X88950Y-32250D02*
X89000Y-32300D01*
X89000Y-32300D02*
X89700Y-32300D01*
X89700Y-32300D02*
X90050Y-32650D01*
X90050Y-32650D02*
X90050Y-35597D01*
X90050Y-35597D02*
X88324Y-37322D01*
X82700Y-32250D02*
X85650Y-32250D01*
X79950Y-33100D02*
X79950Y-32350D01*
X79950Y-32350D02*
X80050Y-32250D01*
X80050Y-32250D02*
X82700Y-32250D01*
X78750Y-34100D02*
X79450Y-34100D01*
X79450Y-34100D02*
X79950Y-33600D01*
X79950Y-33600D02*
X79950Y-33100D01*
X89700Y-32300D02*
X90050Y-32650D01*
X90050Y-32650D02*
X90050Y-35597D01*
X90050Y-35597D02*
X88324Y-37322D01*
X79950Y-32350D02*
X80050Y-32250D01*
X79950Y-33600D02*
X79950Y-32350D01*
X79450Y-34100D02*
X79950Y-33600D01*
X78050Y-32150D02*
X78050Y-33400D01*
X78050Y-33400D02*
X78750Y-34100D01*
X91062Y-41744D02*
X91062Y-40572D01*
X91062Y-40572D02*
X90332Y-39842D01*
X89072Y-38700D02*
X89072Y-39112D01*
X89803Y-39842D02*
X90332Y-39842D01*
X89072Y-39112D02*
X89803Y-39842D01*
X88324Y-37322D02*
X88661Y-37322D01*
X88661Y-37322D02*
X89072Y-37734D01*
X89072Y-37734D02*
X89072Y-38700D01*
G54D10*
G36*
X87203Y-41990D02*
X87065Y-42128D01*
X87064Y-42130D01*
X87047Y-42130D01*
X86375Y-41458D01*
X86274Y-41391D01*
X86156Y-41368D01*
X85180Y-41368D01*
X85180Y-41303D01*
X85096Y-41100D01*
X84941Y-40946D01*
X84780Y-40879D01*
X84825Y-40879D01*
X85028Y-40795D01*
X85182Y-40640D01*
X85252Y-40473D01*
X86125Y-40473D01*
X86981Y-41329D01*
X86981Y-41790D01*
X87019Y-41882D01*
X87089Y-41952D01*
X87181Y-41990D01*
X87203Y-41990D01*
X87203Y-41990D01*
G37*
G54D21*
X87203Y-41990D02*
X87065Y-42128D01*
X87064Y-42130D01*
X87047Y-42130D01*
X86375Y-41458D01*
X86274Y-41391D01*
X86156Y-41368D01*
X85180Y-41368D01*
X85180Y-41303D01*
X85096Y-41100D01*
X84941Y-40946D01*
X84780Y-40879D01*
X84825Y-40879D01*
X85028Y-40795D01*
X85182Y-40640D01*
X85252Y-40473D01*
X86125Y-40473D01*
X86981Y-41329D01*
X86981Y-41790D01*
X87019Y-41882D01*
X87089Y-41952D01*
X87181Y-41990D01*
X87203Y-41990D01*
G54D10*
G36*
X93606Y-48090D02*
X93373Y-48090D01*
X93373Y-46704D01*
X93373Y-46650D01*
X93373Y-46595D01*
X93373Y-46595D01*
X93373Y-46595D01*
X93373Y-46595D01*
X93298Y-46213D01*
X93298Y-46212D01*
X93256Y-46111D01*
X93039Y-45787D01*
X92973Y-45721D01*
X92973Y-32754D01*
X92973Y-32700D01*
X92973Y-32645D01*
X92973Y-32645D01*
X92973Y-32645D01*
X92973Y-32645D01*
X92898Y-32263D01*
X92898Y-32262D01*
X92856Y-32161D01*
X92639Y-31837D01*
X92562Y-31760D01*
X92560Y-31759D01*
X92238Y-31544D01*
X92237Y-31543D01*
X92137Y-31501D01*
X91754Y-31425D01*
X91645Y-31425D01*
X91643Y-31426D01*
X91263Y-31501D01*
X91262Y-31501D01*
X91161Y-31543D01*
X90837Y-31760D01*
X90760Y-31837D01*
X90759Y-31839D01*
X90544Y-32161D01*
X90543Y-32162D01*
X90501Y-32262D01*
X90425Y-32645D01*
X90425Y-32700D01*
X90425Y-32754D01*
X90501Y-33137D01*
X90543Y-33237D01*
X90544Y-33238D01*
X90759Y-33560D01*
X90760Y-33562D01*
X90837Y-33639D01*
X91161Y-33856D01*
X91262Y-33898D01*
X91263Y-33898D01*
X91643Y-33973D01*
X91645Y-33974D01*
X91754Y-33974D01*
X92137Y-33898D01*
X92237Y-33856D01*
X92238Y-33855D01*
X92560Y-33640D01*
X92562Y-33639D01*
X92639Y-33562D01*
X92856Y-33238D01*
X92898Y-33137D01*
X92898Y-33136D01*
X92973Y-32754D01*
X92973Y-32754D01*
X92973Y-32754D01*
X92973Y-32754D01*
X92973Y-45721D01*
X92962Y-45710D01*
X92960Y-45709D01*
X92638Y-45494D01*
X92637Y-45493D01*
X92537Y-45451D01*
X92154Y-45375D01*
X92045Y-45375D01*
X92043Y-45376D01*
X91663Y-45451D01*
X91662Y-45451D01*
X91643Y-45459D01*
X91643Y-42629D01*
X91554Y-42415D01*
X91391Y-42252D01*
X91371Y-42244D01*
X91391Y-42236D01*
X91554Y-42073D01*
X91642Y-41859D01*
X91643Y-41629D01*
X91554Y-41415D01*
X91391Y-41252D01*
X91372Y-41244D01*
X91372Y-40572D01*
X91349Y-40454D01*
X91282Y-40353D01*
X90857Y-39929D01*
X90857Y-39738D01*
X90778Y-39545D01*
X90630Y-39397D01*
X90437Y-39317D01*
X90228Y-39317D01*
X90035Y-39397D01*
X89915Y-39516D01*
X89457Y-39058D01*
X89517Y-38998D01*
X89597Y-38805D01*
X89597Y-38596D01*
X89518Y-38403D01*
X89382Y-38268D01*
X89382Y-37734D01*
X89359Y-37615D01*
X89292Y-37515D01*
X88931Y-37154D01*
X90269Y-35816D01*
X90269Y-35816D01*
X90269Y-35816D01*
X90336Y-35716D01*
X90336Y-35716D01*
X90355Y-35621D01*
X90360Y-35597D01*
X90359Y-35597D01*
X90360Y-35597D01*
X90360Y-32650D01*
X90359Y-32649D01*
X90360Y-32649D01*
X90355Y-32626D01*
X90336Y-32531D01*
X90336Y-32531D01*
X90269Y-32430D01*
X90269Y-32430D01*
X89919Y-32080D01*
X89818Y-32013D01*
X89700Y-31990D01*
X89550Y-31990D01*
X89550Y-31950D01*
X89512Y-31858D01*
X89441Y-31788D01*
X89349Y-31750D01*
X89250Y-31749D01*
X88650Y-31749D01*
X88558Y-31787D01*
X88488Y-31858D01*
X88454Y-31940D01*
X86200Y-31940D01*
X86200Y-31900D01*
X86162Y-31808D01*
X86091Y-31738D01*
X85999Y-31700D01*
X85900Y-31699D01*
X85300Y-31699D01*
X85208Y-31737D01*
X85138Y-31808D01*
X85100Y-31900D01*
X85100Y-31940D01*
X83250Y-31940D01*
X83250Y-31900D01*
X83212Y-31808D01*
X83141Y-31738D01*
X83049Y-31700D01*
X82950Y-31699D01*
X82350Y-31699D01*
X82258Y-31737D01*
X82188Y-31808D01*
X82150Y-31900D01*
X82150Y-31940D01*
X80050Y-31940D01*
X79931Y-31963D01*
X79830Y-32030D01*
X79730Y-32130D01*
X79663Y-32231D01*
X79640Y-32350D01*
X79640Y-32574D01*
X79625Y-32574D01*
X79533Y-32612D01*
X79463Y-32683D01*
X79425Y-32775D01*
X79424Y-32874D01*
X79424Y-33424D01*
X79462Y-33516D01*
X79528Y-33582D01*
X79321Y-33790D01*
X79182Y-33790D01*
X79047Y-33655D01*
X78854Y-33575D01*
X78663Y-33574D01*
X78360Y-33271D01*
X78360Y-32671D01*
X78389Y-32658D01*
X78558Y-32490D01*
X78649Y-32269D01*
X78650Y-32031D01*
X78558Y-31810D01*
X78390Y-31641D01*
X78169Y-31550D01*
X77931Y-31549D01*
X77710Y-31641D01*
X77635Y-31715D01*
X77612Y-31658D01*
X77541Y-31588D01*
X77449Y-31550D01*
X77350Y-31549D01*
X77162Y-31550D01*
X77100Y-31612D01*
X77100Y-32100D01*
X77107Y-32100D01*
X77107Y-32200D01*
X77100Y-32200D01*
X77100Y-32687D01*
X77162Y-32750D01*
X77350Y-32750D01*
X77449Y-32749D01*
X77541Y-32711D01*
X77612Y-32641D01*
X77635Y-32584D01*
X77709Y-32658D01*
X77740Y-32670D01*
X77740Y-33400D01*
X77763Y-33518D01*
X77830Y-33619D01*
X78225Y-34013D01*
X78224Y-34203D01*
X78304Y-34397D01*
X78452Y-34544D01*
X78578Y-34597D01*
X78477Y-34639D01*
X78452Y-34732D01*
X78750Y-35029D01*
X79047Y-34732D01*
X79022Y-34639D01*
X78912Y-34600D01*
X79047Y-34545D01*
X79182Y-34410D01*
X79450Y-34410D01*
X79568Y-34386D01*
X79669Y-34319D01*
X80169Y-33819D01*
X80236Y-33718D01*
X80255Y-33625D01*
X80274Y-33625D01*
X80366Y-33587D01*
X80436Y-33516D01*
X80474Y-33424D01*
X80475Y-33337D01*
X80489Y-33372D01*
X80582Y-33397D01*
X80879Y-33100D01*
X80582Y-32802D01*
X80489Y-32827D01*
X80475Y-32868D01*
X80475Y-32775D01*
X80437Y-32683D01*
X80366Y-32613D01*
X80274Y-32575D01*
X80260Y-32575D01*
X80260Y-32560D01*
X82149Y-32560D01*
X82149Y-32599D01*
X82187Y-32691D01*
X82258Y-32761D01*
X82350Y-32799D01*
X82403Y-32800D01*
X82384Y-32864D01*
X82700Y-33179D01*
X83015Y-32864D01*
X82996Y-32800D01*
X83049Y-32800D01*
X83141Y-32762D01*
X83211Y-32691D01*
X83249Y-32599D01*
X83249Y-32560D01*
X85099Y-32560D01*
X85099Y-32599D01*
X85137Y-32691D01*
X85208Y-32761D01*
X85300Y-32799D01*
X85353Y-32800D01*
X85334Y-32864D01*
X85650Y-33179D01*
X85965Y-32864D01*
X85946Y-32800D01*
X85999Y-32800D01*
X86091Y-32762D01*
X86161Y-32691D01*
X86199Y-32599D01*
X86199Y-32560D01*
X88449Y-32560D01*
X88449Y-32649D01*
X88487Y-32741D01*
X88558Y-32811D01*
X88650Y-32849D01*
X88703Y-32850D01*
X88684Y-32914D01*
X89000Y-33229D01*
X89315Y-32914D01*
X89296Y-32850D01*
X89349Y-32850D01*
X89441Y-32812D01*
X89511Y-32741D01*
X89549Y-32649D01*
X89549Y-32610D01*
X89571Y-32610D01*
X89740Y-32778D01*
X89740Y-35469D01*
X89554Y-35654D01*
X89554Y-33381D01*
X89543Y-33163D01*
X89481Y-33012D01*
X89385Y-32984D01*
X89070Y-33300D01*
X89385Y-33615D01*
X89481Y-33587D01*
X89554Y-33381D01*
X89554Y-35654D01*
X89315Y-35894D01*
X89315Y-33685D01*
X89000Y-33370D01*
X88929Y-33441D01*
X88929Y-33300D01*
X88614Y-32984D01*
X88518Y-33012D01*
X88445Y-33218D01*
X88456Y-33436D01*
X88518Y-33587D01*
X88614Y-33615D01*
X88929Y-33300D01*
X88929Y-33441D01*
X88684Y-33685D01*
X88712Y-33781D01*
X88918Y-33854D01*
X89136Y-33843D01*
X89287Y-33781D01*
X89315Y-33685D01*
X89315Y-35894D01*
X88411Y-36797D01*
X88338Y-36797D01*
X88686Y-36450D01*
X88686Y-36450D01*
X88686Y-36450D01*
X88753Y-36349D01*
X88753Y-36349D01*
X88776Y-36231D01*
X88777Y-36231D01*
X88777Y-35808D01*
X88753Y-35689D01*
X88686Y-35588D01*
X88440Y-35342D01*
X88339Y-35275D01*
X88278Y-35263D01*
X88278Y-34709D01*
X88240Y-34617D01*
X88170Y-34547D01*
X88078Y-34509D01*
X87978Y-34509D01*
X87840Y-34509D01*
X87778Y-34571D01*
X87778Y-35009D01*
X88215Y-35009D01*
X88278Y-34946D01*
X88278Y-34709D01*
X88278Y-35263D01*
X88278Y-35263D01*
X88278Y-35171D01*
X88215Y-35109D01*
X87778Y-35109D01*
X87778Y-35116D01*
X87678Y-35116D01*
X87678Y-35109D01*
X87678Y-35009D01*
X87678Y-34571D01*
X87615Y-34509D01*
X87477Y-34509D01*
X87378Y-34509D01*
X87286Y-34547D01*
X87216Y-34617D01*
X87178Y-34709D01*
X87178Y-34946D01*
X87240Y-35009D01*
X87678Y-35009D01*
X87678Y-35109D01*
X87240Y-35109D01*
X87178Y-35171D01*
X87178Y-35252D01*
X86778Y-35252D01*
X86778Y-34709D01*
X86740Y-34617D01*
X86670Y-34547D01*
X86578Y-34509D01*
X86478Y-34509D01*
X86340Y-34509D01*
X86278Y-34571D01*
X86278Y-35009D01*
X86715Y-35009D01*
X86778Y-34946D01*
X86778Y-34709D01*
X86778Y-35252D01*
X86778Y-35252D01*
X86778Y-35171D01*
X86715Y-35109D01*
X86278Y-35109D01*
X86278Y-35116D01*
X86204Y-35116D01*
X86204Y-33331D01*
X86193Y-33113D01*
X86131Y-32962D01*
X86035Y-32934D01*
X85720Y-33250D01*
X86035Y-33565D01*
X86131Y-33537D01*
X86204Y-33331D01*
X86204Y-35116D01*
X86178Y-35116D01*
X86178Y-35109D01*
X86178Y-35009D01*
X86178Y-34571D01*
X86115Y-34509D01*
X85977Y-34509D01*
X85965Y-34509D01*
X85965Y-33635D01*
X85650Y-33320D01*
X85579Y-33391D01*
X85579Y-33250D01*
X85264Y-32934D01*
X85168Y-32962D01*
X85095Y-33168D01*
X85106Y-33386D01*
X85168Y-33537D01*
X85264Y-33565D01*
X85579Y-33250D01*
X85579Y-33391D01*
X85334Y-33635D01*
X85362Y-33731D01*
X85568Y-33804D01*
X85786Y-33793D01*
X85937Y-33731D01*
X85965Y-33635D01*
X85965Y-34509D01*
X85878Y-34509D01*
X85786Y-34547D01*
X85716Y-34617D01*
X85678Y-34709D01*
X85678Y-34946D01*
X85740Y-35009D01*
X86178Y-35009D01*
X86178Y-35109D01*
X85740Y-35109D01*
X85678Y-35171D01*
X85678Y-35252D01*
X85278Y-35252D01*
X85278Y-34709D01*
X85240Y-34617D01*
X85170Y-34547D01*
X85078Y-34509D01*
X84978Y-34509D01*
X84840Y-34509D01*
X84778Y-34571D01*
X84778Y-35009D01*
X85215Y-35009D01*
X85278Y-34946D01*
X85278Y-34709D01*
X85278Y-35252D01*
X85278Y-35252D01*
X85278Y-35171D01*
X85215Y-35109D01*
X84778Y-35109D01*
X84778Y-35116D01*
X84678Y-35116D01*
X84678Y-35109D01*
X84678Y-35009D01*
X84678Y-34571D01*
X84615Y-34509D01*
X84477Y-34509D01*
X84378Y-34509D01*
X84286Y-34547D01*
X84216Y-34617D01*
X84178Y-34709D01*
X84178Y-34946D01*
X84240Y-35009D01*
X84678Y-35009D01*
X84678Y-35109D01*
X84240Y-35109D01*
X84178Y-35171D01*
X84178Y-35252D01*
X84061Y-35252D01*
X83942Y-35275D01*
X83841Y-35342D01*
X83841Y-35342D01*
X83841Y-35342D01*
X83254Y-35929D01*
X83254Y-33331D01*
X83243Y-33113D01*
X83181Y-32962D01*
X83085Y-32934D01*
X82770Y-33250D01*
X83085Y-33565D01*
X83181Y-33537D01*
X83254Y-33331D01*
X83254Y-35929D01*
X83015Y-36169D01*
X83015Y-33635D01*
X82700Y-33320D01*
X82629Y-33391D01*
X82629Y-33250D01*
X82314Y-32934D01*
X82218Y-32962D01*
X82145Y-33168D01*
X82156Y-33386D01*
X82218Y-33537D01*
X82314Y-33565D01*
X82629Y-33250D01*
X82629Y-33391D01*
X82384Y-33635D01*
X82412Y-33731D01*
X82618Y-33804D01*
X82836Y-33793D01*
X82987Y-33731D01*
X83015Y-33635D01*
X83015Y-36169D01*
X82709Y-36474D01*
X82642Y-36575D01*
X82619Y-36694D01*
X82619Y-37727D01*
X82614Y-37729D01*
X82460Y-37884D01*
X82376Y-38086D01*
X82375Y-38304D01*
X82459Y-38507D01*
X82614Y-38661D01*
X82816Y-38745D01*
X82942Y-38746D01*
X82942Y-38853D01*
X83026Y-39056D01*
X83181Y-39210D01*
X83383Y-39294D01*
X83601Y-39295D01*
X83686Y-39260D01*
X83724Y-39353D01*
X83879Y-39507D01*
X84081Y-39591D01*
X84193Y-39592D01*
X84193Y-39659D01*
X84277Y-39862D01*
X84341Y-39926D01*
X84251Y-40017D01*
X84167Y-40219D01*
X84166Y-40437D01*
X84250Y-40640D01*
X84405Y-40794D01*
X84566Y-40861D01*
X84521Y-40861D01*
X84318Y-40945D01*
X84164Y-41100D01*
X84080Y-41302D01*
X84080Y-41339D01*
X83941Y-41282D01*
X83723Y-41281D01*
X83520Y-41365D01*
X83366Y-41520D01*
X83282Y-41722D01*
X83281Y-41940D01*
X83365Y-42143D01*
X83520Y-42297D01*
X83722Y-42381D01*
X83940Y-42382D01*
X83967Y-42370D01*
X83967Y-42370D01*
X84060Y-42389D01*
X84083Y-42394D01*
X84083Y-42393D01*
X84084Y-42394D01*
X85292Y-42394D01*
X86558Y-43660D01*
X86659Y-43727D01*
X86777Y-43750D01*
X87064Y-43750D01*
X87064Y-43752D01*
X87219Y-43906D01*
X87221Y-43907D01*
X87221Y-44498D01*
X87096Y-44623D01*
X87016Y-44816D01*
X87016Y-44934D01*
X85410Y-43329D01*
X85410Y-43327D01*
X85411Y-43109D01*
X85327Y-42906D01*
X85172Y-42752D01*
X84970Y-42668D01*
X84752Y-42667D01*
X84549Y-42751D01*
X84395Y-42906D01*
X84311Y-43108D01*
X84310Y-43273D01*
X84173Y-43136D01*
X84173Y-43134D01*
X84174Y-42916D01*
X84090Y-42713D01*
X83935Y-42559D01*
X83733Y-42475D01*
X83515Y-42474D01*
X83312Y-42558D01*
X83309Y-42561D01*
X83262Y-42447D01*
X83107Y-42293D01*
X82905Y-42209D01*
X82687Y-42208D01*
X82484Y-42292D01*
X82330Y-42447D01*
X82246Y-42649D01*
X82245Y-42867D01*
X82246Y-42869D01*
X82001Y-43115D01*
X81934Y-43215D01*
X81910Y-43334D01*
X81910Y-44276D01*
X81775Y-44410D01*
X81695Y-44603D01*
X81695Y-44650D01*
X81479Y-44650D01*
X81479Y-33175D01*
X81468Y-32967D01*
X81410Y-32827D01*
X81317Y-32802D01*
X81247Y-32873D01*
X81247Y-32732D01*
X81222Y-32639D01*
X81025Y-32570D01*
X80817Y-32581D01*
X80677Y-32639D01*
X80652Y-32732D01*
X80950Y-33029D01*
X81247Y-32732D01*
X81247Y-32873D01*
X81020Y-33100D01*
X81317Y-33397D01*
X81410Y-33372D01*
X81479Y-33175D01*
X81479Y-44650D01*
X81473Y-44650D01*
X81339Y-44515D01*
X81247Y-44477D01*
X81247Y-33467D01*
X80950Y-33170D01*
X80652Y-33467D01*
X80677Y-33560D01*
X80874Y-33629D01*
X81082Y-33618D01*
X81222Y-33560D01*
X81247Y-33467D01*
X81247Y-44477D01*
X81146Y-44435D01*
X80937Y-44435D01*
X80744Y-44515D01*
X80596Y-44662D01*
X80516Y-44855D01*
X80516Y-45064D01*
X80596Y-45257D01*
X80743Y-45405D01*
X80936Y-45485D01*
X81145Y-45485D01*
X81338Y-45405D01*
X81473Y-45270D01*
X81968Y-45270D01*
X82087Y-45247D01*
X82110Y-45231D01*
X82115Y-45233D01*
X82324Y-45233D01*
X82517Y-45153D01*
X82665Y-45006D01*
X82717Y-44879D01*
X82759Y-44981D01*
X82852Y-45005D01*
X83149Y-44708D01*
X82852Y-44411D01*
X82759Y-44435D01*
X82721Y-44545D01*
X82665Y-44411D01*
X82530Y-44276D01*
X82530Y-43462D01*
X82684Y-43308D01*
X82686Y-43308D01*
X82904Y-43309D01*
X83107Y-43225D01*
X83110Y-43222D01*
X83157Y-43336D01*
X83312Y-43490D01*
X83514Y-43574D01*
X83732Y-43575D01*
X83734Y-43574D01*
X86572Y-46412D01*
X86572Y-46412D01*
X86612Y-46438D01*
X83750Y-46438D01*
X83750Y-44784D01*
X83739Y-44575D01*
X83681Y-44435D01*
X83588Y-44411D01*
X83517Y-44482D01*
X83517Y-44340D01*
X83493Y-44248D01*
X83296Y-44178D01*
X83087Y-44190D01*
X82947Y-44248D01*
X82923Y-44340D01*
X83220Y-44637D01*
X83517Y-44340D01*
X83517Y-44482D01*
X83291Y-44708D01*
X83588Y-45005D01*
X83681Y-44981D01*
X83750Y-44784D01*
X83750Y-46438D01*
X83517Y-46438D01*
X83517Y-45076D01*
X83220Y-44779D01*
X82923Y-45076D01*
X82947Y-45169D01*
X83144Y-45238D01*
X83353Y-45227D01*
X83493Y-45169D01*
X83517Y-45076D01*
X83517Y-46438D01*
X83378Y-46438D01*
X83378Y-48001D01*
X88833Y-48001D01*
X88833Y-46438D01*
X88582Y-46438D01*
X88622Y-46412D01*
X90008Y-45026D01*
X90008Y-45026D01*
X90008Y-45026D01*
X90075Y-44925D01*
X90075Y-44925D01*
X90098Y-44807D01*
X90099Y-44807D01*
X90099Y-42698D01*
X90098Y-42698D01*
X90075Y-42579D01*
X90075Y-42579D01*
X90008Y-42479D01*
X90008Y-42479D01*
X89080Y-41551D01*
X89081Y-41550D01*
X89081Y-41332D01*
X88998Y-41129D01*
X88843Y-40974D01*
X88641Y-40891D01*
X88422Y-40890D01*
X88335Y-40927D01*
X88335Y-40705D01*
X88334Y-40704D01*
X88335Y-40704D01*
X88330Y-40681D01*
X88311Y-40586D01*
X88311Y-40586D01*
X88244Y-40485D01*
X88244Y-40485D01*
X87840Y-40081D01*
X87840Y-37524D01*
X87879Y-37619D01*
X88027Y-37767D01*
X88219Y-37847D01*
X88428Y-37847D01*
X88621Y-37768D01*
X88645Y-37744D01*
X88762Y-37862D01*
X88762Y-38268D01*
X88628Y-38403D01*
X88547Y-38595D01*
X88547Y-38804D01*
X88627Y-38997D01*
X88768Y-39138D01*
X88786Y-39230D01*
X88853Y-39331D01*
X89583Y-40061D01*
X89684Y-40128D01*
X89803Y-40152D01*
X89900Y-40152D01*
X90034Y-40287D01*
X90227Y-40367D01*
X90419Y-40367D01*
X90752Y-40701D01*
X90752Y-41244D01*
X90734Y-41252D01*
X90571Y-41415D01*
X90483Y-41628D01*
X90482Y-41858D01*
X90571Y-42072D01*
X90734Y-42235D01*
X90754Y-42244D01*
X90734Y-42252D01*
X90571Y-42415D01*
X90483Y-42628D01*
X90482Y-42858D01*
X90571Y-43072D01*
X90731Y-43232D01*
X90731Y-44488D01*
X90596Y-44623D01*
X90516Y-44816D01*
X90516Y-45025D01*
X90596Y-45218D01*
X90743Y-45366D01*
X90936Y-45446D01*
X91145Y-45446D01*
X91338Y-45366D01*
X91486Y-45219D01*
X91566Y-45026D01*
X91566Y-44817D01*
X91486Y-44624D01*
X91351Y-44488D01*
X91351Y-43252D01*
X91391Y-43236D01*
X91554Y-43073D01*
X91642Y-42859D01*
X91643Y-42629D01*
X91643Y-45459D01*
X91561Y-45493D01*
X91237Y-45710D01*
X91160Y-45787D01*
X91159Y-45789D01*
X90944Y-46111D01*
X90943Y-46112D01*
X90901Y-46212D01*
X90825Y-46595D01*
X90825Y-46650D01*
X90825Y-46704D01*
X90901Y-47087D01*
X90943Y-47187D01*
X90944Y-47188D01*
X91159Y-47510D01*
X91160Y-47512D01*
X91237Y-47589D01*
X91561Y-47806D01*
X91662Y-47848D01*
X91663Y-47848D01*
X92043Y-47923D01*
X92045Y-47924D01*
X92154Y-47924D01*
X92537Y-47848D01*
X92637Y-47806D01*
X92638Y-47805D01*
X92960Y-47590D01*
X92962Y-47589D01*
X93039Y-47512D01*
X93256Y-47188D01*
X93298Y-47087D01*
X93298Y-47086D01*
X93373Y-46704D01*
X93373Y-46704D01*
X93373Y-46704D01*
X93373Y-46704D01*
X93373Y-48090D01*
X82038Y-48090D01*
X82038Y-45959D01*
X81959Y-45765D01*
X81811Y-45618D01*
X81618Y-45538D01*
X81409Y-45537D01*
X81216Y-45617D01*
X81160Y-45674D01*
X79695Y-45674D01*
X79279Y-45258D01*
X79279Y-35175D01*
X79268Y-34967D01*
X79210Y-34827D01*
X79117Y-34802D01*
X78820Y-35100D01*
X79117Y-35397D01*
X79210Y-35372D01*
X79279Y-35175D01*
X79279Y-45258D01*
X78762Y-44741D01*
X78661Y-44674D01*
X78543Y-44650D01*
X77973Y-44650D01*
X77851Y-44528D01*
X77851Y-43606D01*
X78004Y-43452D01*
X78088Y-43250D01*
X78089Y-43032D01*
X78005Y-42829D01*
X77850Y-42675D01*
X77648Y-42591D01*
X77484Y-42590D01*
X78099Y-41975D01*
X78099Y-41975D01*
X78099Y-41975D01*
X78170Y-41870D01*
X78170Y-41870D01*
X78195Y-41746D01*
X78195Y-40313D01*
X78170Y-40188D01*
X78170Y-40188D01*
X78099Y-40083D01*
X77304Y-39288D01*
X77305Y-39183D01*
X77374Y-39183D01*
X77577Y-39099D01*
X77731Y-38944D01*
X77815Y-38742D01*
X77815Y-38705D01*
X77972Y-38706D01*
X78114Y-38647D01*
X78130Y-38687D01*
X78285Y-38841D01*
X78487Y-38925D01*
X78705Y-38926D01*
X78908Y-38842D01*
X79062Y-38687D01*
X79146Y-38485D01*
X79147Y-38267D01*
X79063Y-38064D01*
X78908Y-37910D01*
X78888Y-37901D01*
X78888Y-37030D01*
X79023Y-36896D01*
X79103Y-36703D01*
X79103Y-36494D01*
X79047Y-36357D01*
X79047Y-35467D01*
X78750Y-35170D01*
X78679Y-35241D01*
X78679Y-35100D01*
X78382Y-34802D01*
X78289Y-34827D01*
X78220Y-35024D01*
X78231Y-35232D01*
X78289Y-35372D01*
X78382Y-35397D01*
X78679Y-35100D01*
X78679Y-35241D01*
X78452Y-35467D01*
X78477Y-35560D01*
X78674Y-35629D01*
X78882Y-35618D01*
X79022Y-35560D01*
X79047Y-35467D01*
X79047Y-36357D01*
X79024Y-36301D01*
X78876Y-36153D01*
X78683Y-36073D01*
X78474Y-36073D01*
X78281Y-36153D01*
X78133Y-36300D01*
X78078Y-36433D01*
X78024Y-36301D01*
X77876Y-36153D01*
X77683Y-36073D01*
X77474Y-36073D01*
X77281Y-36153D01*
X77133Y-36300D01*
X77053Y-36493D01*
X77053Y-36702D01*
X77133Y-36895D01*
X77268Y-37030D01*
X77268Y-37870D01*
X77292Y-37989D01*
X77320Y-38031D01*
X77314Y-38046D01*
X77314Y-38083D01*
X77157Y-38082D01*
X77155Y-38083D01*
X76429Y-37358D01*
X76429Y-35375D01*
X76418Y-35167D01*
X76360Y-35027D01*
X76267Y-35002D01*
X75970Y-35300D01*
X76267Y-35597D01*
X76360Y-35572D01*
X76429Y-35375D01*
X76429Y-37358D01*
X76197Y-37125D01*
X76197Y-35667D01*
X75900Y-35370D01*
X75829Y-35441D01*
X75829Y-35300D01*
X75532Y-35002D01*
X75439Y-35027D01*
X75370Y-35224D01*
X75381Y-35432D01*
X75439Y-35572D01*
X75532Y-35597D01*
X75829Y-35300D01*
X75829Y-35441D01*
X75602Y-35667D01*
X75627Y-35760D01*
X75824Y-35829D01*
X76032Y-35818D01*
X76172Y-35760D01*
X76197Y-35667D01*
X76197Y-37125D01*
X76102Y-37030D01*
X76001Y-36963D01*
X75883Y-36940D01*
X75682Y-36940D01*
X75547Y-36805D01*
X75354Y-36725D01*
X75184Y-36724D01*
X74256Y-35797D01*
X74151Y-35726D01*
X74087Y-35714D01*
X73955Y-35582D01*
X73762Y-35502D01*
X73553Y-35502D01*
X73360Y-35581D01*
X73213Y-35729D01*
X73132Y-35922D01*
X73132Y-36131D01*
X73212Y-36324D01*
X73360Y-36471D01*
X73552Y-36552D01*
X73761Y-36552D01*
X73954Y-36472D01*
X73983Y-36443D01*
X74725Y-37184D01*
X74724Y-37353D01*
X74804Y-37547D01*
X74952Y-37694D01*
X75085Y-37750D01*
X74953Y-37804D01*
X74805Y-37952D01*
X74725Y-38145D01*
X74724Y-38315D01*
X73967Y-39072D01*
X73967Y-37949D01*
X73944Y-37830D01*
X73924Y-37801D01*
X73922Y-37789D01*
X73922Y-37789D01*
X73851Y-37683D01*
X73851Y-37683D01*
X72844Y-36676D01*
X72844Y-36600D01*
X72844Y-36366D01*
X72916Y-36337D01*
X72986Y-36266D01*
X73024Y-36174D01*
X73025Y-36075D01*
X73025Y-35525D01*
X72987Y-35433D01*
X72916Y-35363D01*
X72844Y-35333D01*
X72844Y-35240D01*
X72844Y-35240D01*
X74504Y-33581D01*
X74703Y-33581D01*
X74716Y-33576D01*
X75375Y-34234D01*
X75374Y-34403D01*
X75454Y-34597D01*
X75602Y-34744D01*
X75728Y-34797D01*
X75627Y-34839D01*
X75602Y-34932D01*
X75900Y-35229D01*
X76197Y-34932D01*
X76172Y-34839D01*
X76062Y-34800D01*
X76197Y-34745D01*
X76344Y-34597D01*
X76424Y-34404D01*
X76425Y-34196D01*
X76345Y-34003D01*
X76225Y-33882D01*
X76225Y-32726D01*
X76389Y-32658D01*
X76464Y-32584D01*
X76487Y-32641D01*
X76558Y-32711D01*
X76650Y-32749D01*
X76749Y-32750D01*
X76937Y-32750D01*
X77000Y-32687D01*
X77000Y-32200D01*
X76992Y-32200D01*
X76992Y-32100D01*
X77000Y-32100D01*
X77000Y-31612D01*
X76937Y-31550D01*
X76749Y-31549D01*
X76650Y-31550D01*
X76558Y-31588D01*
X76487Y-31658D01*
X76464Y-31715D01*
X76390Y-31641D01*
X76169Y-31550D01*
X75931Y-31549D01*
X75710Y-31641D01*
X75541Y-31809D01*
X75450Y-32030D01*
X75449Y-32268D01*
X75541Y-32489D01*
X75575Y-32523D01*
X75575Y-33515D01*
X75144Y-33084D01*
X75144Y-32922D01*
X75061Y-32720D01*
X74906Y-32565D01*
X74704Y-32481D01*
X74485Y-32481D01*
X74283Y-32564D01*
X74144Y-32703D01*
X74144Y-32681D01*
X74106Y-32589D01*
X74035Y-32519D01*
X73943Y-32481D01*
X73706Y-32481D01*
X73644Y-32543D01*
X73644Y-32981D01*
X73652Y-32981D01*
X73652Y-33081D01*
X73644Y-33081D01*
X73644Y-33089D01*
X73544Y-33089D01*
X73544Y-33081D01*
X73544Y-32981D01*
X73544Y-32543D01*
X73481Y-32481D01*
X73244Y-32481D01*
X73153Y-32519D01*
X73082Y-32589D01*
X73044Y-32681D01*
X73044Y-32781D01*
X73044Y-32918D01*
X73106Y-32981D01*
X73544Y-32981D01*
X73544Y-33081D01*
X73106Y-33081D01*
X73044Y-33143D01*
X73044Y-33281D01*
X73044Y-33381D01*
X73082Y-33473D01*
X73153Y-33543D01*
X73244Y-33581D01*
X73481Y-33581D01*
X73544Y-33518D01*
X73544Y-33581D01*
X73544Y-33581D01*
X73584Y-33581D01*
X73544Y-33621D01*
X72923Y-34242D01*
X72923Y-32204D01*
X72923Y-32150D01*
X72923Y-32095D01*
X72923Y-32095D01*
X72923Y-32095D01*
X72923Y-32095D01*
X72848Y-31713D01*
X72848Y-31712D01*
X72806Y-31611D01*
X72589Y-31287D01*
X72512Y-31210D01*
X72510Y-31209D01*
X72188Y-30994D01*
X72187Y-30993D01*
X72087Y-30951D01*
X71704Y-30875D01*
X71595Y-30875D01*
X71593Y-30876D01*
X71213Y-30951D01*
X71212Y-30951D01*
X71111Y-30993D01*
X70787Y-31210D01*
X70710Y-31287D01*
X70709Y-31289D01*
X70494Y-31611D01*
X70493Y-31612D01*
X70451Y-31712D01*
X70375Y-32095D01*
X70375Y-32150D01*
X70375Y-32204D01*
X70451Y-32587D01*
X70493Y-32687D01*
X70494Y-32688D01*
X70709Y-33010D01*
X70710Y-33012D01*
X70787Y-33089D01*
X71111Y-33306D01*
X71212Y-33348D01*
X71213Y-33348D01*
X71593Y-33423D01*
X71595Y-33424D01*
X71704Y-33424D01*
X72087Y-33348D01*
X72187Y-33306D01*
X72188Y-33305D01*
X72510Y-33090D01*
X72512Y-33089D01*
X72589Y-33012D01*
X72806Y-32688D01*
X72848Y-32587D01*
X72848Y-32586D01*
X72923Y-32204D01*
X72923Y-32204D01*
X72923Y-32204D01*
X72923Y-32204D01*
X72923Y-34242D01*
X72289Y-34876D01*
X72270Y-34896D01*
X72199Y-35001D01*
X72175Y-35125D01*
X72175Y-35325D01*
X72083Y-35362D01*
X72013Y-35433D01*
X71975Y-35525D01*
X71974Y-35612D01*
X71960Y-35577D01*
X71867Y-35552D01*
X71797Y-35623D01*
X71797Y-35482D01*
X71772Y-35389D01*
X71575Y-35320D01*
X71367Y-35331D01*
X71227Y-35389D01*
X71202Y-35482D01*
X71500Y-35779D01*
X71797Y-35482D01*
X71797Y-35623D01*
X71570Y-35850D01*
X71867Y-36147D01*
X71960Y-36122D01*
X71974Y-36081D01*
X71974Y-36174D01*
X72012Y-36266D01*
X72083Y-36336D01*
X72175Y-36374D01*
X72194Y-36374D01*
X72194Y-36600D01*
X72194Y-36811D01*
X72219Y-36935D01*
X72289Y-37040D01*
X73297Y-38048D01*
X73297Y-38962D01*
X73297Y-39145D01*
X73213Y-39229D01*
X73132Y-39422D01*
X73132Y-39631D01*
X73212Y-39824D01*
X73360Y-39971D01*
X73444Y-40007D01*
X73257Y-40194D01*
X73254Y-40197D01*
X73126Y-40197D01*
X73034Y-40235D01*
X72964Y-40306D01*
X72926Y-40398D01*
X72926Y-40497D01*
X72926Y-41097D01*
X72964Y-41189D01*
X73034Y-41259D01*
X73089Y-41282D01*
X72655Y-41282D01*
X72655Y-38168D01*
X72644Y-37959D01*
X72586Y-37819D01*
X72493Y-37795D01*
X72423Y-37866D01*
X72423Y-37724D01*
X72398Y-37631D01*
X72201Y-37562D01*
X71993Y-37573D01*
X71853Y-37631D01*
X71828Y-37724D01*
X72125Y-38021D01*
X72423Y-37724D01*
X72423Y-37866D01*
X72196Y-38092D01*
X72493Y-38389D01*
X72586Y-38365D01*
X72655Y-38168D01*
X72655Y-41282D01*
X72558Y-41282D01*
X72423Y-41147D01*
X72423Y-41147D01*
X72423Y-38460D01*
X72125Y-38163D01*
X72055Y-38233D01*
X72055Y-38092D01*
X71797Y-37834D01*
X71797Y-36217D01*
X71500Y-35920D01*
X71429Y-35991D01*
X71429Y-35850D01*
X71132Y-35552D01*
X71039Y-35577D01*
X70970Y-35774D01*
X70981Y-35982D01*
X71039Y-36122D01*
X71132Y-36147D01*
X71429Y-35850D01*
X71429Y-35991D01*
X71202Y-36217D01*
X71227Y-36310D01*
X71424Y-36379D01*
X71632Y-36368D01*
X71772Y-36310D01*
X71797Y-36217D01*
X71797Y-37834D01*
X71758Y-37795D01*
X71665Y-37819D01*
X71596Y-38016D01*
X71607Y-38225D01*
X71665Y-38365D01*
X71758Y-38389D01*
X72055Y-38092D01*
X72055Y-38233D01*
X71828Y-38460D01*
X71853Y-38553D01*
X72050Y-38622D01*
X72258Y-38611D01*
X72398Y-38553D01*
X72423Y-38460D01*
X72423Y-41147D01*
X72230Y-41067D01*
X72022Y-41067D01*
X71828Y-41147D01*
X71681Y-41294D01*
X71601Y-41487D01*
X71600Y-41696D01*
X71680Y-41889D01*
X71828Y-42037D01*
X72021Y-42117D01*
X72229Y-42117D01*
X72422Y-42037D01*
X72558Y-41902D01*
X73499Y-41902D01*
X73325Y-42077D01*
X73254Y-42182D01*
X73230Y-42306D01*
X73230Y-42578D01*
X73089Y-42719D01*
X73005Y-42921D01*
X73005Y-43140D01*
X73088Y-43342D01*
X73243Y-43497D01*
X73445Y-43581D01*
X73664Y-43581D01*
X73742Y-43549D01*
X73742Y-43872D01*
X73218Y-44396D01*
X73027Y-44396D01*
X72834Y-44475D01*
X72687Y-44623D01*
X72606Y-44816D01*
X72606Y-45025D01*
X72686Y-45218D01*
X72834Y-45366D01*
X73027Y-45446D01*
X73235Y-45446D01*
X73428Y-45366D01*
X73576Y-45219D01*
X73656Y-45026D01*
X73656Y-44834D01*
X74271Y-44220D01*
X74338Y-44119D01*
X74362Y-44001D01*
X74362Y-43581D01*
X74904Y-43581D01*
X74996Y-43543D01*
X75066Y-43473D01*
X75105Y-43381D01*
X75105Y-43341D01*
X75443Y-43341D01*
X75562Y-43317D01*
X75662Y-43250D01*
X75957Y-42955D01*
X75959Y-42955D01*
X76161Y-42956D01*
X76161Y-43012D01*
X76245Y-43215D01*
X76400Y-43369D01*
X76602Y-43453D01*
X76820Y-43454D01*
X77023Y-43370D01*
X77034Y-43359D01*
X77072Y-43452D01*
X77227Y-43606D01*
X77231Y-43608D01*
X77231Y-44528D01*
X77097Y-44661D01*
X77092Y-44648D01*
X76999Y-44624D01*
X76928Y-44694D01*
X76928Y-44553D01*
X76904Y-44460D01*
X76707Y-44391D01*
X76499Y-44402D01*
X76359Y-44460D01*
X76334Y-44553D01*
X76631Y-44850D01*
X76928Y-44553D01*
X76928Y-44694D01*
X76702Y-44921D01*
X76999Y-45218D01*
X77071Y-45199D01*
X77096Y-45257D01*
X77243Y-45405D01*
X77436Y-45485D01*
X77645Y-45485D01*
X77838Y-45405D01*
X77973Y-45270D01*
X78414Y-45270D01*
X79347Y-46203D01*
X79448Y-46270D01*
X79566Y-46294D01*
X81041Y-46294D01*
X81068Y-46359D01*
X81216Y-46507D01*
X81408Y-46587D01*
X81617Y-46588D01*
X81810Y-46508D01*
X81958Y-46360D01*
X82038Y-46167D01*
X82038Y-45959D01*
X82038Y-48090D01*
X78543Y-48090D01*
X78543Y-46138D01*
X78532Y-45930D01*
X78474Y-45790D01*
X78381Y-45765D01*
X78310Y-45836D01*
X78310Y-45695D01*
X78286Y-45602D01*
X78089Y-45533D01*
X77881Y-45544D01*
X77740Y-45602D01*
X77716Y-45695D01*
X78013Y-45992D01*
X78310Y-45695D01*
X78310Y-45836D01*
X78084Y-46062D01*
X78381Y-46360D01*
X78474Y-46335D01*
X78543Y-46138D01*
X78543Y-48090D01*
X78310Y-48090D01*
X78310Y-46430D01*
X78013Y-46133D01*
X77943Y-46204D01*
X77943Y-46062D01*
X77645Y-45765D01*
X77553Y-45790D01*
X77483Y-45987D01*
X77495Y-46195D01*
X77553Y-46335D01*
X77645Y-46360D01*
X77943Y-46062D01*
X77943Y-46204D01*
X77716Y-46430D01*
X77740Y-46523D01*
X77937Y-46592D01*
X78146Y-46581D01*
X78286Y-46523D01*
X78310Y-46430D01*
X78310Y-48090D01*
X76928Y-48090D01*
X76928Y-45289D01*
X76631Y-44991D01*
X76561Y-45062D01*
X76561Y-44921D01*
X76264Y-44624D01*
X76171Y-44648D01*
X76101Y-44845D01*
X76113Y-45054D01*
X76171Y-45194D01*
X76264Y-45218D01*
X76561Y-44921D01*
X76561Y-45062D01*
X76334Y-45289D01*
X76359Y-45381D01*
X76556Y-45451D01*
X76764Y-45439D01*
X76904Y-45381D01*
X76928Y-45289D01*
X76928Y-48090D01*
X73123Y-48090D01*
X73123Y-46554D01*
X73123Y-46500D01*
X73123Y-46445D01*
X73123Y-46445D01*
X73123Y-46445D01*
X73123Y-46445D01*
X73048Y-46063D01*
X73048Y-46062D01*
X73006Y-45961D01*
X72789Y-45637D01*
X72712Y-45560D01*
X72710Y-45559D01*
X72388Y-45344D01*
X72387Y-45343D01*
X72287Y-45301D01*
X71904Y-45225D01*
X71795Y-45225D01*
X71793Y-45226D01*
X71413Y-45301D01*
X71412Y-45301D01*
X71311Y-45343D01*
X70987Y-45560D01*
X70910Y-45637D01*
X70909Y-45639D01*
X70694Y-45961D01*
X70693Y-45962D01*
X70651Y-46062D01*
X70575Y-46445D01*
X70575Y-46500D01*
X70575Y-46554D01*
X70651Y-46937D01*
X70693Y-47037D01*
X70694Y-47038D01*
X70909Y-47360D01*
X70910Y-47362D01*
X70987Y-47439D01*
X71311Y-47656D01*
X71412Y-47698D01*
X71413Y-47698D01*
X71793Y-47773D01*
X71795Y-47774D01*
X71904Y-47774D01*
X72287Y-47698D01*
X72387Y-47656D01*
X72388Y-47655D01*
X72710Y-47440D01*
X72712Y-47439D01*
X72789Y-47362D01*
X73006Y-47038D01*
X73048Y-46937D01*
X73048Y-46936D01*
X73123Y-46554D01*
X73123Y-46554D01*
X73123Y-46554D01*
X73123Y-46554D01*
X73123Y-48090D01*
X70250Y-48090D01*
X70250Y-30732D01*
X93606Y-30732D01*
X93606Y-48090D01*
X93606Y-48090D01*
G37*
G54D21*
X93606Y-48090D02*
X93373Y-48090D01*
X93373Y-46704D01*
X93373Y-46650D01*
X93373Y-46595D01*
X93373Y-46595D01*
X93373Y-46595D01*
X93373Y-46595D01*
X93298Y-46213D01*
X93298Y-46212D01*
X93256Y-46111D01*
X93039Y-45787D01*
X92973Y-45721D01*
X92973Y-32754D01*
X92973Y-32700D01*
X92973Y-32645D01*
X92973Y-32645D01*
X92973Y-32645D01*
X92973Y-32645D01*
X92898Y-32263D01*
X92898Y-32262D01*
X92856Y-32161D01*
X92639Y-31837D01*
X92562Y-31760D01*
X92560Y-31759D01*
X92238Y-31544D01*
X92237Y-31543D01*
X92137Y-31501D01*
X91754Y-31425D01*
X91645Y-31425D01*
X91643Y-31426D01*
X91263Y-31501D01*
X91262Y-31501D01*
X91161Y-31543D01*
X90837Y-31760D01*
X90760Y-31837D01*
X90759Y-31839D01*
X90544Y-32161D01*
X90543Y-32162D01*
X90501Y-32262D01*
X90425Y-32645D01*
X90425Y-32700D01*
X90425Y-32754D01*
X90501Y-33137D01*
X90543Y-33237D01*
X90544Y-33238D01*
X90759Y-33560D01*
X90760Y-33562D01*
X90837Y-33639D01*
X91161Y-33856D01*
X91262Y-33898D01*
X91263Y-33898D01*
X91643Y-33973D01*
X91645Y-33974D01*
X91754Y-33974D01*
X92137Y-33898D01*
X92237Y-33856D01*
X92238Y-33855D01*
X92560Y-33640D01*
X92562Y-33639D01*
X92639Y-33562D01*
X92856Y-33238D01*
X92898Y-33137D01*
X92898Y-33136D01*
X92973Y-32754D01*
X92973Y-32754D01*
X92973Y-32754D01*
X92973Y-32754D01*
X92973Y-45721D01*
X92962Y-45710D01*
X92960Y-45709D01*
X92638Y-45494D01*
X92637Y-45493D01*
X92537Y-45451D01*
X92154Y-45375D01*
X92045Y-45375D01*
X92043Y-45376D01*
X91663Y-45451D01*
X91662Y-45451D01*
X91643Y-45459D01*
X91643Y-42629D01*
X91554Y-42415D01*
X91391Y-42252D01*
X91371Y-42244D01*
X91391Y-42236D01*
X91554Y-42073D01*
X91642Y-41859D01*
X91643Y-41629D01*
X91554Y-41415D01*
X91391Y-41252D01*
X91372Y-41244D01*
X91372Y-40572D01*
X91349Y-40454D01*
X91282Y-40353D01*
X90857Y-39929D01*
X90857Y-39738D01*
X90778Y-39545D01*
X90630Y-39397D01*
X90437Y-39317D01*
X90228Y-39317D01*
X90035Y-39397D01*
X89915Y-39516D01*
X89457Y-39058D01*
X89517Y-38998D01*
X89597Y-38805D01*
X89597Y-38596D01*
X89518Y-38403D01*
X89382Y-38268D01*
X89382Y-37734D01*
X89359Y-37615D01*
X89292Y-37515D01*
X88931Y-37154D01*
X90269Y-35816D01*
X90269Y-35816D01*
X90269Y-35816D01*
X90336Y-35716D01*
X90336Y-35716D01*
X90355Y-35621D01*
X90360Y-35597D01*
X90359Y-35597D01*
X90360Y-35597D01*
X90360Y-32650D01*
X90359Y-32649D01*
X90360Y-32649D01*
X90355Y-32626D01*
X90336Y-32531D01*
X90336Y-32531D01*
X90269Y-32430D01*
X90269Y-32430D01*
X89919Y-32080D01*
X89818Y-32013D01*
X89700Y-31990D01*
X89550Y-31990D01*
X89550Y-31950D01*
X89512Y-31858D01*
X89441Y-31788D01*
X89349Y-31750D01*
X89250Y-31749D01*
X88650Y-31749D01*
X88558Y-31787D01*
X88488Y-31858D01*
X88454Y-31940D01*
X86200Y-31940D01*
X86200Y-31900D01*
X86162Y-31808D01*
X86091Y-31738D01*
X85999Y-31700D01*
X85900Y-31699D01*
X85300Y-31699D01*
X85208Y-31737D01*
X85138Y-31808D01*
X85100Y-31900D01*
X85100Y-31940D01*
X83250Y-31940D01*
X83250Y-31900D01*
X83212Y-31808D01*
X83141Y-31738D01*
X83049Y-31700D01*
X82950Y-31699D01*
X82350Y-31699D01*
X82258Y-31737D01*
X82188Y-31808D01*
X82150Y-31900D01*
X82150Y-31940D01*
X80050Y-31940D01*
X79931Y-31963D01*
X79830Y-32030D01*
X79730Y-32130D01*
X79663Y-32231D01*
X79640Y-32350D01*
X79640Y-32574D01*
X79625Y-32574D01*
X79533Y-32612D01*
X79463Y-32683D01*
X79425Y-32775D01*
X79424Y-32874D01*
X79424Y-33424D01*
X79462Y-33516D01*
X79528Y-33582D01*
X79321Y-33790D01*
X79182Y-33790D01*
X79047Y-33655D01*
X78854Y-33575D01*
X78663Y-33574D01*
X78360Y-33271D01*
X78360Y-32671D01*
X78389Y-32658D01*
X78558Y-32490D01*
X78649Y-32269D01*
X78650Y-32031D01*
X78558Y-31810D01*
X78390Y-31641D01*
X78169Y-31550D01*
X77931Y-31549D01*
X77710Y-31641D01*
X77635Y-31715D01*
X77612Y-31658D01*
X77541Y-31588D01*
X77449Y-31550D01*
X77350Y-31549D01*
X77162Y-31550D01*
X77100Y-31612D01*
X77100Y-32100D01*
X77107Y-32100D01*
X77107Y-32200D01*
X77100Y-32200D01*
X77100Y-32687D01*
X77162Y-32750D01*
X77350Y-32750D01*
X77449Y-32749D01*
X77541Y-32711D01*
X77612Y-32641D01*
X77635Y-32584D01*
X77709Y-32658D01*
X77740Y-32670D01*
X77740Y-33400D01*
X77763Y-33518D01*
X77830Y-33619D01*
X78225Y-34013D01*
X78224Y-34203D01*
X78304Y-34397D01*
X78452Y-34544D01*
X78578Y-34597D01*
X78477Y-34639D01*
X78452Y-34732D01*
X78750Y-35029D01*
X79047Y-34732D01*
X79022Y-34639D01*
X78912Y-34600D01*
X79047Y-34545D01*
X79182Y-34410D01*
X79450Y-34410D01*
X79568Y-34386D01*
X79669Y-34319D01*
X80169Y-33819D01*
X80236Y-33718D01*
X80255Y-33625D01*
X80274Y-33625D01*
X80366Y-33587D01*
X80436Y-33516D01*
X80474Y-33424D01*
X80475Y-33337D01*
X80489Y-33372D01*
X80582Y-33397D01*
X80879Y-33100D01*
X80582Y-32802D01*
X80489Y-32827D01*
X80475Y-32868D01*
X80475Y-32775D01*
X80437Y-32683D01*
X80366Y-32613D01*
X80274Y-32575D01*
X80260Y-32575D01*
X80260Y-32560D01*
X82149Y-32560D01*
X82149Y-32599D01*
X82187Y-32691D01*
X82258Y-32761D01*
X82350Y-32799D01*
X82403Y-32800D01*
X82384Y-32864D01*
X82700Y-33179D01*
X83015Y-32864D01*
X82996Y-32800D01*
X83049Y-32800D01*
X83141Y-32762D01*
X83211Y-32691D01*
X83249Y-32599D01*
X83249Y-32560D01*
X85099Y-32560D01*
X85099Y-32599D01*
X85137Y-32691D01*
X85208Y-32761D01*
X85300Y-32799D01*
X85353Y-32800D01*
X85334Y-32864D01*
X85650Y-33179D01*
X85965Y-32864D01*
X85946Y-32800D01*
X85999Y-32800D01*
X86091Y-32762D01*
X86161Y-32691D01*
X86199Y-32599D01*
X86199Y-32560D01*
X88449Y-32560D01*
X88449Y-32649D01*
X88487Y-32741D01*
X88558Y-32811D01*
X88650Y-32849D01*
X88703Y-32850D01*
X88684Y-32914D01*
X89000Y-33229D01*
X89315Y-32914D01*
X89296Y-32850D01*
X89349Y-32850D01*
X89441Y-32812D01*
X89511Y-32741D01*
X89549Y-32649D01*
X89549Y-32610D01*
X89571Y-32610D01*
X89740Y-32778D01*
X89740Y-35469D01*
X89554Y-35654D01*
X89554Y-33381D01*
X89543Y-33163D01*
X89481Y-33012D01*
X89385Y-32984D01*
X89070Y-33300D01*
X89385Y-33615D01*
X89481Y-33587D01*
X89554Y-33381D01*
X89554Y-35654D01*
X89315Y-35894D01*
X89315Y-33685D01*
X89000Y-33370D01*
X88929Y-33441D01*
X88929Y-33300D01*
X88614Y-32984D01*
X88518Y-33012D01*
X88445Y-33218D01*
X88456Y-33436D01*
X88518Y-33587D01*
X88614Y-33615D01*
X88929Y-33300D01*
X88929Y-33441D01*
X88684Y-33685D01*
X88712Y-33781D01*
X88918Y-33854D01*
X89136Y-33843D01*
X89287Y-33781D01*
X89315Y-33685D01*
X89315Y-35894D01*
X88411Y-36797D01*
X88338Y-36797D01*
X88686Y-36450D01*
X88686Y-36450D01*
X88686Y-36450D01*
X88753Y-36349D01*
X88753Y-36349D01*
X88776Y-36231D01*
X88777Y-36231D01*
X88777Y-35808D01*
X88753Y-35689D01*
X88686Y-35588D01*
X88440Y-35342D01*
X88339Y-35275D01*
X88278Y-35263D01*
X88278Y-34709D01*
X88240Y-34617D01*
X88170Y-34547D01*
X88078Y-34509D01*
X87978Y-34509D01*
X87840Y-34509D01*
X87778Y-34571D01*
X87778Y-35009D01*
X88215Y-35009D01*
X88278Y-34946D01*
X88278Y-34709D01*
X88278Y-35263D01*
X88278Y-35263D01*
X88278Y-35171D01*
X88215Y-35109D01*
X87778Y-35109D01*
X87778Y-35116D01*
X87678Y-35116D01*
X87678Y-35109D01*
X87678Y-35009D01*
X87678Y-34571D01*
X87615Y-34509D01*
X87477Y-34509D01*
X87378Y-34509D01*
X87286Y-34547D01*
X87216Y-34617D01*
X87178Y-34709D01*
X87178Y-34946D01*
X87240Y-35009D01*
X87678Y-35009D01*
X87678Y-35109D01*
X87240Y-35109D01*
X87178Y-35171D01*
X87178Y-35252D01*
X86778Y-35252D01*
X86778Y-34709D01*
X86740Y-34617D01*
X86670Y-34547D01*
X86578Y-34509D01*
X86478Y-34509D01*
X86340Y-34509D01*
X86278Y-34571D01*
X86278Y-35009D01*
X86715Y-35009D01*
X86778Y-34946D01*
X86778Y-34709D01*
X86778Y-35252D01*
X86778Y-35252D01*
X86778Y-35171D01*
X86715Y-35109D01*
X86278Y-35109D01*
X86278Y-35116D01*
X86204Y-35116D01*
X86204Y-33331D01*
X86193Y-33113D01*
X86131Y-32962D01*
X86035Y-32934D01*
X85720Y-33250D01*
X86035Y-33565D01*
X86131Y-33537D01*
X86204Y-33331D01*
X86204Y-35116D01*
X86178Y-35116D01*
X86178Y-35109D01*
X86178Y-35009D01*
X86178Y-34571D01*
X86115Y-34509D01*
X85977Y-34509D01*
X85965Y-34509D01*
X85965Y-33635D01*
X85650Y-33320D01*
X85579Y-33391D01*
X85579Y-33250D01*
X85264Y-32934D01*
X85168Y-32962D01*
X85095Y-33168D01*
X85106Y-33386D01*
X85168Y-33537D01*
X85264Y-33565D01*
X85579Y-33250D01*
X85579Y-33391D01*
X85334Y-33635D01*
X85362Y-33731D01*
X85568Y-33804D01*
X85786Y-33793D01*
X85937Y-33731D01*
X85965Y-33635D01*
X85965Y-34509D01*
X85878Y-34509D01*
X85786Y-34547D01*
X85716Y-34617D01*
X85678Y-34709D01*
X85678Y-34946D01*
X85740Y-35009D01*
X86178Y-35009D01*
X86178Y-35109D01*
X85740Y-35109D01*
X85678Y-35171D01*
X85678Y-35252D01*
X85278Y-35252D01*
X85278Y-34709D01*
X85240Y-34617D01*
X85170Y-34547D01*
X85078Y-34509D01*
X84978Y-34509D01*
X84840Y-34509D01*
X84778Y-34571D01*
X84778Y-35009D01*
X85215Y-35009D01*
X85278Y-34946D01*
X85278Y-34709D01*
X85278Y-35252D01*
X85278Y-35252D01*
X85278Y-35171D01*
X85215Y-35109D01*
X84778Y-35109D01*
X84778Y-35116D01*
X84678Y-35116D01*
X84678Y-35109D01*
X84678Y-35009D01*
X84678Y-34571D01*
X84615Y-34509D01*
X84477Y-34509D01*
X84378Y-34509D01*
X84286Y-34547D01*
X84216Y-34617D01*
X84178Y-34709D01*
X84178Y-34946D01*
X84240Y-35009D01*
X84678Y-35009D01*
X84678Y-35109D01*
X84240Y-35109D01*
X84178Y-35171D01*
X84178Y-35252D01*
X84061Y-35252D01*
X83942Y-35275D01*
X83841Y-35342D01*
X83841Y-35342D01*
X83841Y-35342D01*
X83254Y-35929D01*
X83254Y-33331D01*
X83243Y-33113D01*
X83181Y-32962D01*
X83085Y-32934D01*
X82770Y-33250D01*
X83085Y-33565D01*
X83181Y-33537D01*
X83254Y-33331D01*
X83254Y-35929D01*
X83015Y-36169D01*
X83015Y-33635D01*
X82700Y-33320D01*
X82629Y-33391D01*
X82629Y-33250D01*
X82314Y-32934D01*
X82218Y-32962D01*
X82145Y-33168D01*
X82156Y-33386D01*
X82218Y-33537D01*
X82314Y-33565D01*
X82629Y-33250D01*
X82629Y-33391D01*
X82384Y-33635D01*
X82412Y-33731D01*
X82618Y-33804D01*
X82836Y-33793D01*
X82987Y-33731D01*
X83015Y-33635D01*
X83015Y-36169D01*
X82709Y-36474D01*
X82642Y-36575D01*
X82619Y-36694D01*
X82619Y-37727D01*
X82614Y-37729D01*
X82460Y-37884D01*
X82376Y-38086D01*
X82375Y-38304D01*
X82459Y-38507D01*
X82614Y-38661D01*
X82816Y-38745D01*
X82942Y-38746D01*
X82942Y-38853D01*
X83026Y-39056D01*
X83181Y-39210D01*
X83383Y-39294D01*
X83601Y-39295D01*
X83686Y-39260D01*
X83724Y-39353D01*
X83879Y-39507D01*
X84081Y-39591D01*
X84193Y-39592D01*
X84193Y-39659D01*
X84277Y-39862D01*
X84341Y-39926D01*
X84251Y-40017D01*
X84167Y-40219D01*
X84166Y-40437D01*
X84250Y-40640D01*
X84405Y-40794D01*
X84566Y-40861D01*
X84521Y-40861D01*
X84318Y-40945D01*
X84164Y-41100D01*
X84080Y-41302D01*
X84080Y-41339D01*
X83941Y-41282D01*
X83723Y-41281D01*
X83520Y-41365D01*
X83366Y-41520D01*
X83282Y-41722D01*
X83281Y-41940D01*
X83365Y-42143D01*
X83520Y-42297D01*
X83722Y-42381D01*
X83940Y-42382D01*
X83967Y-42370D01*
X83967Y-42370D01*
X84060Y-42389D01*
X84083Y-42394D01*
X84083Y-42393D01*
X84084Y-42394D01*
X85292Y-42394D01*
X86558Y-43660D01*
X86659Y-43727D01*
X86777Y-43750D01*
X87064Y-43750D01*
X87064Y-43752D01*
X87219Y-43906D01*
X87221Y-43907D01*
X87221Y-44498D01*
X87096Y-44623D01*
X87016Y-44816D01*
X87016Y-44934D01*
X85410Y-43329D01*
X85410Y-43327D01*
X85411Y-43109D01*
X85327Y-42906D01*
X85172Y-42752D01*
X84970Y-42668D01*
X84752Y-42667D01*
X84549Y-42751D01*
X84395Y-42906D01*
X84311Y-43108D01*
X84310Y-43273D01*
X84173Y-43136D01*
X84173Y-43134D01*
X84174Y-42916D01*
X84090Y-42713D01*
X83935Y-42559D01*
X83733Y-42475D01*
X83515Y-42474D01*
X83312Y-42558D01*
X83309Y-42561D01*
X83262Y-42447D01*
X83107Y-42293D01*
X82905Y-42209D01*
X82687Y-42208D01*
X82484Y-42292D01*
X82330Y-42447D01*
X82246Y-42649D01*
X82245Y-42867D01*
X82246Y-42869D01*
X82001Y-43115D01*
X81934Y-43215D01*
X81910Y-43334D01*
X81910Y-44276D01*
X81775Y-44410D01*
X81695Y-44603D01*
X81695Y-44650D01*
X81479Y-44650D01*
X81479Y-33175D01*
X81468Y-32967D01*
X81410Y-32827D01*
X81317Y-32802D01*
X81247Y-32873D01*
X81247Y-32732D01*
X81222Y-32639D01*
X81025Y-32570D01*
X80817Y-32581D01*
X80677Y-32639D01*
X80652Y-32732D01*
X80950Y-33029D01*
X81247Y-32732D01*
X81247Y-32873D01*
X81020Y-33100D01*
X81317Y-33397D01*
X81410Y-33372D01*
X81479Y-33175D01*
X81479Y-44650D01*
X81473Y-44650D01*
X81339Y-44515D01*
X81247Y-44477D01*
X81247Y-33467D01*
X80950Y-33170D01*
X80652Y-33467D01*
X80677Y-33560D01*
X80874Y-33629D01*
X81082Y-33618D01*
X81222Y-33560D01*
X81247Y-33467D01*
X81247Y-44477D01*
X81146Y-44435D01*
X80937Y-44435D01*
X80744Y-44515D01*
X80596Y-44662D01*
X80516Y-44855D01*
X80516Y-45064D01*
X80596Y-45257D01*
X80743Y-45405D01*
X80936Y-45485D01*
X81145Y-45485D01*
X81338Y-45405D01*
X81473Y-45270D01*
X81968Y-45270D01*
X82087Y-45247D01*
X82110Y-45231D01*
X82115Y-45233D01*
X82324Y-45233D01*
X82517Y-45153D01*
X82665Y-45006D01*
X82717Y-44879D01*
X82759Y-44981D01*
X82852Y-45005D01*
X83149Y-44708D01*
X82852Y-44411D01*
X82759Y-44435D01*
X82721Y-44545D01*
X82665Y-44411D01*
X82530Y-44276D01*
X82530Y-43462D01*
X82684Y-43308D01*
X82686Y-43308D01*
X82904Y-43309D01*
X83107Y-43225D01*
X83110Y-43222D01*
X83157Y-43336D01*
X83312Y-43490D01*
X83514Y-43574D01*
X83732Y-43575D01*
X83734Y-43574D01*
X86572Y-46412D01*
X86572Y-46412D01*
X86612Y-46438D01*
X83750Y-46438D01*
X83750Y-44784D01*
X83739Y-44575D01*
X83681Y-44435D01*
X83588Y-44411D01*
X83517Y-44482D01*
X83517Y-44340D01*
X83493Y-44248D01*
X83296Y-44178D01*
X83087Y-44190D01*
X82947Y-44248D01*
X82923Y-44340D01*
X83220Y-44637D01*
X83517Y-44340D01*
X83517Y-44482D01*
X83291Y-44708D01*
X83588Y-45005D01*
X83681Y-44981D01*
X83750Y-44784D01*
X83750Y-46438D01*
X83517Y-46438D01*
X83517Y-45076D01*
X83220Y-44779D01*
X82923Y-45076D01*
X82947Y-45169D01*
X83144Y-45238D01*
X83353Y-45227D01*
X83493Y-45169D01*
X83517Y-45076D01*
X83517Y-46438D01*
X83378Y-46438D01*
X83378Y-48001D01*
X88833Y-48001D01*
X88833Y-46438D01*
X88582Y-46438D01*
X88622Y-46412D01*
X90008Y-45026D01*
X90008Y-45026D01*
X90008Y-45026D01*
X90075Y-44925D01*
X90075Y-44925D01*
X90098Y-44807D01*
X90099Y-44807D01*
X90099Y-42698D01*
X90098Y-42698D01*
X90075Y-42579D01*
X90075Y-42579D01*
X90008Y-42479D01*
X90008Y-42479D01*
X89080Y-41551D01*
X89081Y-41550D01*
X89081Y-41332D01*
X88998Y-41129D01*
X88843Y-40974D01*
X88641Y-40891D01*
X88422Y-40890D01*
X88335Y-40927D01*
X88335Y-40705D01*
X88334Y-40704D01*
X88335Y-40704D01*
X88330Y-40681D01*
X88311Y-40586D01*
X88311Y-40586D01*
X88244Y-40485D01*
X88244Y-40485D01*
X87840Y-40081D01*
X87840Y-37524D01*
X87879Y-37619D01*
X88027Y-37767D01*
X88219Y-37847D01*
X88428Y-37847D01*
X88621Y-37768D01*
X88645Y-37744D01*
X88762Y-37862D01*
X88762Y-38268D01*
X88628Y-38403D01*
X88547Y-38595D01*
X88547Y-38804D01*
X88627Y-38997D01*
X88768Y-39138D01*
X88786Y-39230D01*
X88853Y-39331D01*
X89583Y-40061D01*
X89684Y-40128D01*
X89803Y-40152D01*
X89900Y-40152D01*
X90034Y-40287D01*
X90227Y-40367D01*
X90419Y-40367D01*
X90752Y-40701D01*
X90752Y-41244D01*
X90734Y-41252D01*
X90571Y-41415D01*
X90483Y-41628D01*
X90482Y-41858D01*
X90571Y-42072D01*
X90734Y-42235D01*
X90754Y-42244D01*
X90734Y-42252D01*
X90571Y-42415D01*
X90483Y-42628D01*
X90482Y-42858D01*
X90571Y-43072D01*
X90731Y-43232D01*
X90731Y-44488D01*
X90596Y-44623D01*
X90516Y-44816D01*
X90516Y-45025D01*
X90596Y-45218D01*
X90743Y-45366D01*
X90936Y-45446D01*
X91145Y-45446D01*
X91338Y-45366D01*
X91486Y-45219D01*
X91566Y-45026D01*
X91566Y-44817D01*
X91486Y-44624D01*
X91351Y-44488D01*
X91351Y-43252D01*
X91391Y-43236D01*
X91554Y-43073D01*
X91642Y-42859D01*
X91643Y-42629D01*
X91643Y-45459D01*
X91561Y-45493D01*
X91237Y-45710D01*
X91160Y-45787D01*
X91159Y-45789D01*
X90944Y-46111D01*
X90943Y-46112D01*
X90901Y-46212D01*
X90825Y-46595D01*
X90825Y-46650D01*
X90825Y-46704D01*
X90901Y-47087D01*
X90943Y-47187D01*
X90944Y-47188D01*
X91159Y-47510D01*
X91160Y-47512D01*
X91237Y-47589D01*
X91561Y-47806D01*
X91662Y-47848D01*
X91663Y-47848D01*
X92043Y-47923D01*
X92045Y-47924D01*
X92154Y-47924D01*
X92537Y-47848D01*
X92637Y-47806D01*
X92638Y-47805D01*
X92960Y-47590D01*
X92962Y-47589D01*
X93039Y-47512D01*
X93256Y-47188D01*
X93298Y-47087D01*
X93298Y-47086D01*
X93373Y-46704D01*
X93373Y-46704D01*
X93373Y-46704D01*
X93373Y-46704D01*
X93373Y-48090D01*
X82038Y-48090D01*
X82038Y-45959D01*
X81959Y-45765D01*
X81811Y-45618D01*
X81618Y-45538D01*
X81409Y-45537D01*
X81216Y-45617D01*
X81160Y-45674D01*
X79695Y-45674D01*
X79279Y-45258D01*
X79279Y-35175D01*
X79268Y-34967D01*
X79210Y-34827D01*
X79117Y-34802D01*
X78820Y-35100D01*
X79117Y-35397D01*
X79210Y-35372D01*
X79279Y-35175D01*
X79279Y-45258D01*
X78762Y-44741D01*
X78661Y-44674D01*
X78543Y-44650D01*
X77973Y-44650D01*
X77851Y-44528D01*
X77851Y-43606D01*
X78004Y-43452D01*
X78088Y-43250D01*
X78089Y-43032D01*
X78005Y-42829D01*
X77850Y-42675D01*
X77648Y-42591D01*
X77484Y-42590D01*
X78099Y-41975D01*
X78099Y-41975D01*
X78099Y-41975D01*
X78170Y-41870D01*
X78170Y-41870D01*
X78195Y-41746D01*
X78195Y-40313D01*
X78170Y-40188D01*
X78170Y-40188D01*
X78099Y-40083D01*
X77304Y-39288D01*
X77305Y-39183D01*
X77374Y-39183D01*
X77577Y-39099D01*
X77731Y-38944D01*
X77815Y-38742D01*
X77815Y-38705D01*
X77972Y-38706D01*
X78114Y-38647D01*
X78130Y-38687D01*
X78285Y-38841D01*
X78487Y-38925D01*
X78705Y-38926D01*
X78908Y-38842D01*
X79062Y-38687D01*
X79146Y-38485D01*
X79147Y-38267D01*
X79063Y-38064D01*
X78908Y-37910D01*
X78888Y-37901D01*
X78888Y-37030D01*
X79023Y-36896D01*
X79103Y-36703D01*
X79103Y-36494D01*
X79047Y-36357D01*
X79047Y-35467D01*
X78750Y-35170D01*
X78679Y-35241D01*
X78679Y-35100D01*
X78382Y-34802D01*
X78289Y-34827D01*
X78220Y-35024D01*
X78231Y-35232D01*
X78289Y-35372D01*
X78382Y-35397D01*
X78679Y-35100D01*
X78679Y-35241D01*
X78452Y-35467D01*
X78477Y-35560D01*
X78674Y-35629D01*
X78882Y-35618D01*
X79022Y-35560D01*
X79047Y-35467D01*
X79047Y-36357D01*
X79024Y-36301D01*
X78876Y-36153D01*
X78683Y-36073D01*
X78474Y-36073D01*
X78281Y-36153D01*
X78133Y-36300D01*
X78078Y-36433D01*
X78024Y-36301D01*
X77876Y-36153D01*
X77683Y-36073D01*
X77474Y-36073D01*
X77281Y-36153D01*
X77133Y-36300D01*
X77053Y-36493D01*
X77053Y-36702D01*
X77133Y-36895D01*
X77268Y-37030D01*
X77268Y-37870D01*
X77292Y-37989D01*
X77320Y-38031D01*
X77314Y-38046D01*
X77314Y-38083D01*
X77157Y-38082D01*
X77155Y-38083D01*
X76429Y-37358D01*
X76429Y-35375D01*
X76418Y-35167D01*
X76360Y-35027D01*
X76267Y-35002D01*
X75970Y-35300D01*
X76267Y-35597D01*
X76360Y-35572D01*
X76429Y-35375D01*
X76429Y-37358D01*
X76197Y-37125D01*
X76197Y-35667D01*
X75900Y-35370D01*
X75829Y-35441D01*
X75829Y-35300D01*
X75532Y-35002D01*
X75439Y-35027D01*
X75370Y-35224D01*
X75381Y-35432D01*
X75439Y-35572D01*
X75532Y-35597D01*
X75829Y-35300D01*
X75829Y-35441D01*
X75602Y-35667D01*
X75627Y-35760D01*
X75824Y-35829D01*
X76032Y-35818D01*
X76172Y-35760D01*
X76197Y-35667D01*
X76197Y-37125D01*
X76102Y-37030D01*
X76001Y-36963D01*
X75883Y-36940D01*
X75682Y-36940D01*
X75547Y-36805D01*
X75354Y-36725D01*
X75184Y-36724D01*
X74256Y-35797D01*
X74151Y-35726D01*
X74087Y-35714D01*
X73955Y-35582D01*
X73762Y-35502D01*
X73553Y-35502D01*
X73360Y-35581D01*
X73213Y-35729D01*
X73132Y-35922D01*
X73132Y-36131D01*
X73212Y-36324D01*
X73360Y-36471D01*
X73552Y-36552D01*
X73761Y-36552D01*
X73954Y-36472D01*
X73983Y-36443D01*
X74725Y-37184D01*
X74724Y-37353D01*
X74804Y-37547D01*
X74952Y-37694D01*
X75085Y-37750D01*
X74953Y-37804D01*
X74805Y-37952D01*
X74725Y-38145D01*
X74724Y-38315D01*
X73967Y-39072D01*
X73967Y-37949D01*
X73944Y-37830D01*
X73924Y-37801D01*
X73922Y-37789D01*
X73922Y-37789D01*
X73851Y-37683D01*
X73851Y-37683D01*
X72844Y-36676D01*
X72844Y-36600D01*
X72844Y-36366D01*
X72916Y-36337D01*
X72986Y-36266D01*
X73024Y-36174D01*
X73025Y-36075D01*
X73025Y-35525D01*
X72987Y-35433D01*
X72916Y-35363D01*
X72844Y-35333D01*
X72844Y-35240D01*
X72844Y-35240D01*
X74504Y-33581D01*
X74703Y-33581D01*
X74716Y-33576D01*
X75375Y-34234D01*
X75374Y-34403D01*
X75454Y-34597D01*
X75602Y-34744D01*
X75728Y-34797D01*
X75627Y-34839D01*
X75602Y-34932D01*
X75900Y-35229D01*
X76197Y-34932D01*
X76172Y-34839D01*
X76062Y-34800D01*
X76197Y-34745D01*
X76344Y-34597D01*
X76424Y-34404D01*
X76425Y-34196D01*
X76345Y-34003D01*
X76225Y-33882D01*
X76225Y-32726D01*
X76389Y-32658D01*
X76464Y-32584D01*
X76487Y-32641D01*
X76558Y-32711D01*
X76650Y-32749D01*
X76749Y-32750D01*
X76937Y-32750D01*
X77000Y-32687D01*
X77000Y-32200D01*
X76992Y-32200D01*
X76992Y-32100D01*
X77000Y-32100D01*
X77000Y-31612D01*
X76937Y-31550D01*
X76749Y-31549D01*
X76650Y-31550D01*
X76558Y-31588D01*
X76487Y-31658D01*
X76464Y-31715D01*
X76390Y-31641D01*
X76169Y-31550D01*
X75931Y-31549D01*
X75710Y-31641D01*
X75541Y-31809D01*
X75450Y-32030D01*
X75449Y-32268D01*
X75541Y-32489D01*
X75575Y-32523D01*
X75575Y-33515D01*
X75144Y-33084D01*
X75144Y-32922D01*
X75061Y-32720D01*
X74906Y-32565D01*
X74704Y-32481D01*
X74485Y-32481D01*
X74283Y-32564D01*
X74144Y-32703D01*
X74144Y-32681D01*
X74106Y-32589D01*
X74035Y-32519D01*
X73943Y-32481D01*
X73706Y-32481D01*
X73644Y-32543D01*
X73644Y-32981D01*
X73652Y-32981D01*
X73652Y-33081D01*
X73644Y-33081D01*
X73644Y-33089D01*
X73544Y-33089D01*
X73544Y-33081D01*
X73544Y-32981D01*
X73544Y-32543D01*
X73481Y-32481D01*
X73244Y-32481D01*
X73153Y-32519D01*
X73082Y-32589D01*
X73044Y-32681D01*
X73044Y-32781D01*
X73044Y-32918D01*
X73106Y-32981D01*
X73544Y-32981D01*
X73544Y-33081D01*
X73106Y-33081D01*
X73044Y-33143D01*
X73044Y-33281D01*
X73044Y-33381D01*
X73082Y-33473D01*
X73153Y-33543D01*
X73244Y-33581D01*
X73481Y-33581D01*
X73544Y-33518D01*
X73544Y-33581D01*
X73544Y-33581D01*
X73584Y-33581D01*
X73544Y-33621D01*
X72923Y-34242D01*
X72923Y-32204D01*
X72923Y-32150D01*
X72923Y-32095D01*
X72923Y-32095D01*
X72923Y-32095D01*
X72923Y-32095D01*
X72848Y-31713D01*
X72848Y-31712D01*
X72806Y-31611D01*
X72589Y-31287D01*
X72512Y-31210D01*
X72510Y-31209D01*
X72188Y-30994D01*
X72187Y-30993D01*
X72087Y-30951D01*
X71704Y-30875D01*
X71595Y-30875D01*
X71593Y-30876D01*
X71213Y-30951D01*
X71212Y-30951D01*
X71111Y-30993D01*
X70787Y-31210D01*
X70710Y-31287D01*
X70709Y-31289D01*
X70494Y-31611D01*
X70493Y-31612D01*
X70451Y-31712D01*
X70375Y-32095D01*
X70375Y-32150D01*
X70375Y-32204D01*
X70451Y-32587D01*
X70493Y-32687D01*
X70494Y-32688D01*
X70709Y-33010D01*
X70710Y-33012D01*
X70787Y-33089D01*
X71111Y-33306D01*
X71212Y-33348D01*
X71213Y-33348D01*
X71593Y-33423D01*
X71595Y-33424D01*
X71704Y-33424D01*
X72087Y-33348D01*
X72187Y-33306D01*
X72188Y-33305D01*
X72510Y-33090D01*
X72512Y-33089D01*
X72589Y-33012D01*
X72806Y-32688D01*
X72848Y-32587D01*
X72848Y-32586D01*
X72923Y-32204D01*
X72923Y-32204D01*
X72923Y-32204D01*
X72923Y-32204D01*
X72923Y-34242D01*
X72289Y-34876D01*
X72270Y-34896D01*
X72199Y-35001D01*
X72175Y-35125D01*
X72175Y-35325D01*
X72083Y-35362D01*
X72013Y-35433D01*
X71975Y-35525D01*
X71974Y-35612D01*
X71960Y-35577D01*
X71867Y-35552D01*
X71797Y-35623D01*
X71797Y-35482D01*
X71772Y-35389D01*
X71575Y-35320D01*
X71367Y-35331D01*
X71227Y-35389D01*
X71202Y-35482D01*
X71500Y-35779D01*
X71797Y-35482D01*
X71797Y-35623D01*
X71570Y-35850D01*
X71867Y-36147D01*
X71960Y-36122D01*
X71974Y-36081D01*
X71974Y-36174D01*
X72012Y-36266D01*
X72083Y-36336D01*
X72175Y-36374D01*
X72194Y-36374D01*
X72194Y-36600D01*
X72194Y-36811D01*
X72219Y-36935D01*
X72289Y-37040D01*
X73297Y-38048D01*
X73297Y-38962D01*
X73297Y-39145D01*
X73213Y-39229D01*
X73132Y-39422D01*
X73132Y-39631D01*
X73212Y-39824D01*
X73360Y-39971D01*
X73444Y-40007D01*
X73257Y-40194D01*
X73254Y-40197D01*
X73126Y-40197D01*
X73034Y-40235D01*
X72964Y-40306D01*
X72926Y-40398D01*
X72926Y-40497D01*
X72926Y-41097D01*
X72964Y-41189D01*
X73034Y-41259D01*
X73089Y-41282D01*
X72655Y-41282D01*
X72655Y-38168D01*
X72644Y-37959D01*
X72586Y-37819D01*
X72493Y-37795D01*
X72423Y-37866D01*
X72423Y-37724D01*
X72398Y-37631D01*
X72201Y-37562D01*
X71993Y-37573D01*
X71853Y-37631D01*
X71828Y-37724D01*
X72125Y-38021D01*
X72423Y-37724D01*
X72423Y-37866D01*
X72196Y-38092D01*
X72493Y-38389D01*
X72586Y-38365D01*
X72655Y-38168D01*
X72655Y-41282D01*
X72558Y-41282D01*
X72423Y-41147D01*
X72423Y-41147D01*
X72423Y-38460D01*
X72125Y-38163D01*
X72055Y-38233D01*
X72055Y-38092D01*
X71797Y-37834D01*
X71797Y-36217D01*
X71500Y-35920D01*
X71429Y-35991D01*
X71429Y-35850D01*
X71132Y-35552D01*
X71039Y-35577D01*
X70970Y-35774D01*
X70981Y-35982D01*
X71039Y-36122D01*
X71132Y-36147D01*
X71429Y-35850D01*
X71429Y-35991D01*
X71202Y-36217D01*
X71227Y-36310D01*
X71424Y-36379D01*
X71632Y-36368D01*
X71772Y-36310D01*
X71797Y-36217D01*
X71797Y-37834D01*
X71758Y-37795D01*
X71665Y-37819D01*
X71596Y-38016D01*
X71607Y-38225D01*
X71665Y-38365D01*
X71758Y-38389D01*
X72055Y-38092D01*
X72055Y-38233D01*
X71828Y-38460D01*
X71853Y-38553D01*
X72050Y-38622D01*
X72258Y-38611D01*
X72398Y-38553D01*
X72423Y-38460D01*
X72423Y-41147D01*
X72230Y-41067D01*
X72022Y-41067D01*
X71828Y-41147D01*
X71681Y-41294D01*
X71601Y-41487D01*
X71600Y-41696D01*
X71680Y-41889D01*
X71828Y-42037D01*
X72021Y-42117D01*
X72229Y-42117D01*
X72422Y-42037D01*
X72558Y-41902D01*
X73499Y-41902D01*
X73325Y-42077D01*
X73254Y-42182D01*
X73230Y-42306D01*
X73230Y-42578D01*
X73089Y-42719D01*
X73005Y-42921D01*
X73005Y-43140D01*
X73088Y-43342D01*
X73243Y-43497D01*
X73445Y-43581D01*
X73664Y-43581D01*
X73742Y-43549D01*
X73742Y-43872D01*
X73218Y-44396D01*
X73027Y-44396D01*
X72834Y-44475D01*
X72687Y-44623D01*
X72606Y-44816D01*
X72606Y-45025D01*
X72686Y-45218D01*
X72834Y-45366D01*
X73027Y-45446D01*
X73235Y-45446D01*
X73428Y-45366D01*
X73576Y-45219D01*
X73656Y-45026D01*
X73656Y-44834D01*
X74271Y-44220D01*
X74338Y-44119D01*
X74362Y-44001D01*
X74362Y-43581D01*
X74904Y-43581D01*
X74996Y-43543D01*
X75066Y-43473D01*
X75105Y-43381D01*
X75105Y-43341D01*
X75443Y-43341D01*
X75562Y-43317D01*
X75662Y-43250D01*
X75957Y-42955D01*
X75959Y-42955D01*
X76161Y-42956D01*
X76161Y-43012D01*
X76245Y-43215D01*
X76400Y-43369D01*
X76602Y-43453D01*
X76820Y-43454D01*
X77023Y-43370D01*
X77034Y-43359D01*
X77072Y-43452D01*
X77227Y-43606D01*
X77231Y-43608D01*
X77231Y-44528D01*
X77097Y-44661D01*
X77092Y-44648D01*
X76999Y-44624D01*
X76928Y-44694D01*
X76928Y-44553D01*
X76904Y-44460D01*
X76707Y-44391D01*
X76499Y-44402D01*
X76359Y-44460D01*
X76334Y-44553D01*
X76631Y-44850D01*
X76928Y-44553D01*
X76928Y-44694D01*
X76702Y-44921D01*
X76999Y-45218D01*
X77071Y-45199D01*
X77096Y-45257D01*
X77243Y-45405D01*
X77436Y-45485D01*
X77645Y-45485D01*
X77838Y-45405D01*
X77973Y-45270D01*
X78414Y-45270D01*
X79347Y-46203D01*
X79448Y-46270D01*
X79566Y-46294D01*
X81041Y-46294D01*
X81068Y-46359D01*
X81216Y-46507D01*
X81408Y-46587D01*
X81617Y-46588D01*
X81810Y-46508D01*
X81958Y-46360D01*
X82038Y-46167D01*
X82038Y-45959D01*
X82038Y-48090D01*
X78543Y-48090D01*
X78543Y-46138D01*
X78532Y-45930D01*
X78474Y-45790D01*
X78381Y-45765D01*
X78310Y-45836D01*
X78310Y-45695D01*
X78286Y-45602D01*
X78089Y-45533D01*
X77881Y-45544D01*
X77740Y-45602D01*
X77716Y-45695D01*
X78013Y-45992D01*
X78310Y-45695D01*
X78310Y-45836D01*
X78084Y-46062D01*
X78381Y-46360D01*
X78474Y-46335D01*
X78543Y-46138D01*
X78543Y-48090D01*
X78310Y-48090D01*
X78310Y-46430D01*
X78013Y-46133D01*
X77943Y-46204D01*
X77943Y-46062D01*
X77645Y-45765D01*
X77553Y-45790D01*
X77483Y-45987D01*
X77495Y-46195D01*
X77553Y-46335D01*
X77645Y-46360D01*
X77943Y-46062D01*
X77943Y-46204D01*
X77716Y-46430D01*
X77740Y-46523D01*
X77937Y-46592D01*
X78146Y-46581D01*
X78286Y-46523D01*
X78310Y-46430D01*
X78310Y-48090D01*
X76928Y-48090D01*
X76928Y-45289D01*
X76631Y-44991D01*
X76561Y-45062D01*
X76561Y-44921D01*
X76264Y-44624D01*
X76171Y-44648D01*
X76101Y-44845D01*
X76113Y-45054D01*
X76171Y-45194D01*
X76264Y-45218D01*
X76561Y-44921D01*
X76561Y-45062D01*
X76334Y-45289D01*
X76359Y-45381D01*
X76556Y-45451D01*
X76764Y-45439D01*
X76904Y-45381D01*
X76928Y-45289D01*
X76928Y-48090D01*
X73123Y-48090D01*
X73123Y-46554D01*
X73123Y-46500D01*
X73123Y-46445D01*
X73123Y-46445D01*
X73123Y-46445D01*
X73123Y-46445D01*
X73048Y-46063D01*
X73048Y-46062D01*
X73006Y-45961D01*
X72789Y-45637D01*
X72712Y-45560D01*
X72710Y-45559D01*
X72388Y-45344D01*
X72387Y-45343D01*
X72287Y-45301D01*
X71904Y-45225D01*
X71795Y-45225D01*
X71793Y-45226D01*
X71413Y-45301D01*
X71412Y-45301D01*
X71311Y-45343D01*
X70987Y-45560D01*
X70910Y-45637D01*
X70909Y-45639D01*
X70694Y-45961D01*
X70693Y-45962D01*
X70651Y-46062D01*
X70575Y-46445D01*
X70575Y-46500D01*
X70575Y-46554D01*
X70651Y-46937D01*
X70693Y-47037D01*
X70694Y-47038D01*
X70909Y-47360D01*
X70910Y-47362D01*
X70987Y-47439D01*
X71311Y-47656D01*
X71412Y-47698D01*
X71413Y-47698D01*
X71793Y-47773D01*
X71795Y-47774D01*
X71904Y-47774D01*
X72287Y-47698D01*
X72387Y-47656D01*
X72388Y-47655D01*
X72710Y-47440D01*
X72712Y-47439D01*
X72789Y-47362D01*
X73006Y-47038D01*
X73048Y-46937D01*
X73048Y-46936D01*
X73123Y-46554D01*
X73123Y-46554D01*
X73123Y-46554D01*
X73123Y-46554D01*
X73123Y-48090D01*
X70250Y-48090D01*
X70250Y-30732D01*
X93606Y-30732D01*
X93606Y-48090D01*
M02*
