G04 (created by PCBNEW (2013-07-07 BZR 4022)-stable) date 30/04/2014 12:18:14*
%MOIN*%
G04 Gerber Fmt 3.4, Leading zero omitted, Abs format*
%FSLAX34Y34*%
G01*
G70*
G90*
G04 APERTURE LIST*
%ADD10C,0.00590551*%
%ADD11C,0.011811*%
%ADD12R,0.0413386X0.011811*%
%ADD13C,0.055*%
%ADD14R,0.06X0.06*%
%ADD15C,0.06*%
%ADD16C,0.066*%
%ADD17C,0.07*%
%ADD18R,0.07X0.07*%
%ADD19R,0.055X0.055*%
%ADD20C,0.012*%
%ADD21C,0.01*%
G04 APERTURE END LIST*
G54D10*
G54D11*
X83775Y-46935D02*
X83972Y-47526D01*
X84169Y-46935D01*
X84366Y-47526D02*
X84366Y-46935D01*
X84844Y-47217D02*
X84928Y-47245D01*
X84956Y-47273D01*
X84984Y-47329D01*
X84984Y-47413D01*
X84956Y-47470D01*
X84928Y-47498D01*
X84872Y-47526D01*
X84647Y-47526D01*
X84647Y-46935D01*
X84844Y-46935D01*
X84900Y-46964D01*
X84928Y-46992D01*
X84956Y-47048D01*
X84956Y-47104D01*
X84928Y-47160D01*
X84900Y-47188D01*
X84844Y-47217D01*
X84647Y-47217D01*
X85575Y-47526D02*
X85378Y-47245D01*
X85237Y-47526D02*
X85237Y-46935D01*
X85462Y-46935D01*
X85519Y-46964D01*
X85547Y-46992D01*
X85575Y-47048D01*
X85575Y-47132D01*
X85547Y-47188D01*
X85519Y-47217D01*
X85462Y-47245D01*
X85237Y-47245D01*
X85800Y-47357D02*
X86081Y-47357D01*
X85744Y-47526D02*
X85940Y-46935D01*
X86137Y-47526D01*
X86250Y-46935D02*
X86587Y-46935D01*
X86419Y-47526D02*
X86419Y-46935D01*
X86897Y-46935D02*
X87009Y-46935D01*
X87065Y-46964D01*
X87122Y-47020D01*
X87150Y-47132D01*
X87150Y-47329D01*
X87122Y-47442D01*
X87065Y-47498D01*
X87009Y-47526D01*
X86897Y-47526D01*
X86840Y-47498D01*
X86784Y-47442D01*
X86756Y-47329D01*
X86756Y-47132D01*
X86784Y-47020D01*
X86840Y-46964D01*
X86897Y-46935D01*
X87403Y-47526D02*
X87403Y-46935D01*
X87600Y-47357D01*
X87796Y-46935D01*
X87796Y-47526D01*
X88190Y-46935D02*
X88303Y-46935D01*
X88359Y-46964D01*
X88415Y-47020D01*
X88443Y-47132D01*
X88443Y-47329D01*
X88415Y-47442D01*
X88359Y-47498D01*
X88303Y-47526D01*
X88190Y-47526D01*
X88134Y-47498D01*
X88078Y-47442D01*
X88050Y-47329D01*
X88050Y-47132D01*
X88078Y-47020D01*
X88134Y-46964D01*
X88190Y-46935D01*
G54D12*
X79065Y-39050D03*
X79065Y-39305D03*
X79065Y-39561D03*
X79065Y-39817D03*
X79065Y-40073D03*
X79065Y-40329D03*
X79065Y-40585D03*
X79065Y-40841D03*
X79065Y-41097D03*
X79065Y-41353D03*
X79065Y-41609D03*
X79065Y-41864D03*
X79065Y-42120D03*
X79065Y-42376D03*
X81534Y-42376D03*
X81534Y-42120D03*
X81534Y-41864D03*
X81534Y-41609D03*
X81534Y-41353D03*
X81534Y-41097D03*
X81534Y-40841D03*
X81534Y-40585D03*
X81534Y-40329D03*
X81534Y-40073D03*
X81534Y-39817D03*
X81534Y-39561D03*
X81534Y-39305D03*
X81534Y-39050D03*
G54D13*
X87541Y-44921D03*
X91041Y-44921D03*
X88324Y-37322D03*
X84824Y-37322D03*
X89072Y-38700D03*
X85572Y-38700D03*
X72125Y-41592D03*
X72125Y-38092D03*
X73131Y-44921D03*
X76631Y-44921D03*
X90332Y-39842D03*
X86832Y-39842D03*
X73657Y-36027D03*
X73657Y-39527D03*
X81041Y-44960D03*
X77541Y-44960D03*
X81513Y-46062D03*
X78013Y-46062D03*
G54D14*
X87531Y-41440D03*
G54D15*
X88531Y-41440D03*
X87531Y-42440D03*
X88531Y-42440D03*
X87531Y-43440D03*
X88531Y-43440D03*
G54D14*
X73476Y-40748D03*
G54D15*
X74476Y-40748D03*
G54D14*
X74555Y-43031D03*
G54D15*
X73555Y-43031D03*
G54D14*
X87728Y-35059D03*
G54D15*
X87728Y-36059D03*
G54D14*
X86228Y-35059D03*
G54D15*
X86228Y-36059D03*
G54D14*
X84728Y-35059D03*
G54D15*
X84728Y-36059D03*
G54D14*
X89000Y-32300D03*
G54D15*
X89000Y-33300D03*
G54D14*
X82700Y-32250D03*
G54D15*
X82700Y-33250D03*
G54D14*
X85650Y-32250D03*
G54D15*
X85650Y-33250D03*
G54D16*
X91062Y-41744D03*
X91062Y-42744D03*
G54D14*
X73594Y-33031D03*
G54D15*
X74594Y-33031D03*
G54D17*
X76050Y-32150D03*
G54D18*
X77050Y-32150D03*
G54D17*
X78050Y-32150D03*
G54D13*
X78750Y-34100D03*
X78750Y-35100D03*
X75900Y-34300D03*
X75900Y-35300D03*
X78578Y-36598D03*
X77578Y-36598D03*
X75250Y-37250D03*
X75250Y-38250D03*
X82220Y-44708D03*
X83220Y-44708D03*
G54D19*
X72500Y-35850D03*
G54D13*
X71500Y-35850D03*
G54D19*
X79950Y-33100D03*
G54D13*
X80950Y-33100D03*
G54D15*
X78750Y-43160D03*
X81936Y-38277D03*
X85575Y-40831D03*
X84191Y-39042D03*
X76113Y-40730D03*
X82796Y-42759D03*
X84744Y-39551D03*
X84717Y-40329D03*
X75523Y-41825D03*
X84630Y-41412D03*
X83624Y-43025D03*
X82926Y-38196D03*
X75586Y-40208D03*
X83493Y-38745D03*
X84861Y-43218D03*
X77266Y-38633D03*
X77539Y-43141D03*
X78597Y-38376D03*
X77864Y-38156D03*
X83832Y-41832D03*
X76069Y-42406D03*
X76615Y-41279D03*
X76188Y-39704D03*
X76712Y-42904D03*
X76755Y-39200D03*
G54D20*
X79065Y-42376D02*
X78587Y-42376D01*
X78462Y-42872D02*
X78750Y-43160D01*
X78462Y-42502D02*
X78462Y-42872D01*
X78587Y-42376D02*
X78462Y-42502D01*
X81534Y-39050D02*
X82051Y-39050D01*
X82251Y-38592D02*
X81936Y-38277D01*
X82251Y-38850D02*
X82251Y-38592D01*
X82051Y-39050D02*
X82251Y-38850D01*
X81534Y-40841D02*
X85564Y-40841D01*
X85564Y-40841D02*
X85575Y-40831D01*
X81534Y-39817D02*
X83415Y-39817D01*
X83415Y-39817D02*
X84191Y-39042D01*
X76257Y-40585D02*
X76113Y-40730D01*
X76257Y-40585D02*
X79065Y-40585D01*
X81534Y-42376D02*
X82413Y-42376D01*
X82413Y-42376D02*
X82796Y-42759D01*
X81534Y-40073D02*
X84221Y-40073D01*
X84221Y-40073D02*
X84744Y-39551D01*
X81534Y-40585D02*
X82319Y-40585D01*
X82576Y-40329D02*
X84717Y-40329D01*
X82319Y-40585D02*
X82576Y-40329D01*
X79065Y-41097D02*
X77273Y-41097D01*
X76804Y-41825D02*
X75523Y-41825D01*
X77126Y-41503D02*
X76804Y-41825D01*
X77126Y-41244D02*
X77126Y-41503D01*
X77273Y-41097D02*
X77126Y-41244D01*
X81534Y-41097D02*
X84315Y-41097D01*
X84315Y-41097D02*
X84630Y-41412D01*
X81534Y-42120D02*
X82904Y-42120D01*
X83624Y-42840D02*
X83624Y-43025D01*
X82904Y-42120D02*
X83624Y-42840D01*
X81534Y-39305D02*
X82332Y-39305D01*
X82926Y-38712D02*
X82926Y-38196D01*
X82332Y-39305D02*
X82926Y-38712D01*
X79065Y-40329D02*
X76953Y-40329D01*
X76832Y-40208D02*
X75586Y-40208D01*
X76953Y-40329D02*
X76832Y-40208D01*
X81534Y-39561D02*
X82676Y-39561D01*
X82676Y-39561D02*
X83493Y-38745D01*
X81534Y-41864D02*
X83101Y-41864D01*
X84105Y-42462D02*
X84861Y-43218D01*
X83699Y-42462D02*
X84105Y-42462D01*
X83101Y-41864D02*
X83699Y-42462D01*
X79065Y-39561D02*
X78173Y-39561D01*
X77266Y-38654D02*
X77266Y-38633D01*
X78173Y-39561D02*
X77266Y-38654D01*
X79065Y-42120D02*
X77936Y-42120D01*
X77539Y-42518D02*
X77539Y-43141D01*
X77936Y-42120D02*
X77539Y-42518D01*
X79065Y-41864D02*
X79065Y-42120D01*
X79065Y-39050D02*
X78614Y-39050D01*
X78368Y-38605D02*
X78597Y-38376D01*
X78368Y-38804D02*
X78368Y-38605D01*
X78614Y-39050D02*
X78368Y-38804D01*
X79065Y-39305D02*
X78401Y-39305D01*
X77864Y-38768D02*
X77864Y-38156D01*
X78401Y-39305D02*
X77864Y-38768D01*
X81534Y-41609D02*
X83609Y-41609D01*
X83609Y-41609D02*
X83832Y-41832D01*
X79065Y-41353D02*
X77681Y-41353D01*
X76328Y-42147D02*
X76069Y-42406D01*
X76888Y-42147D02*
X76328Y-42147D01*
X77681Y-41353D02*
X76888Y-42147D01*
X77052Y-40841D02*
X76615Y-41279D01*
X79065Y-40841D02*
X77052Y-40841D01*
X79065Y-40073D02*
X77460Y-40073D01*
X77091Y-39704D02*
X76188Y-39704D01*
X77460Y-40073D02*
X77091Y-39704D01*
X78006Y-41609D02*
X76712Y-42904D01*
X78006Y-41609D02*
X79065Y-41609D01*
X79065Y-39817D02*
X77890Y-39817D01*
X77273Y-39200D02*
X76755Y-39200D01*
X77890Y-39817D02*
X77273Y-39200D01*
G54D10*
G36*
X93606Y-48090D02*
X93373Y-48090D01*
X93373Y-46704D01*
X93373Y-46650D01*
X93373Y-46595D01*
X93373Y-46595D01*
X93373Y-46595D01*
X93373Y-46595D01*
X93298Y-46213D01*
X93298Y-46212D01*
X93256Y-46111D01*
X93039Y-45787D01*
X92973Y-45721D01*
X92973Y-32754D01*
X92973Y-32700D01*
X92973Y-32645D01*
X92973Y-32645D01*
X92973Y-32645D01*
X92973Y-32645D01*
X92898Y-32263D01*
X92898Y-32262D01*
X92856Y-32161D01*
X92639Y-31837D01*
X92562Y-31760D01*
X92560Y-31759D01*
X92238Y-31544D01*
X92237Y-31543D01*
X92137Y-31501D01*
X91754Y-31425D01*
X91645Y-31425D01*
X91643Y-31426D01*
X91263Y-31501D01*
X91262Y-31501D01*
X91161Y-31543D01*
X90837Y-31760D01*
X90760Y-31837D01*
X90759Y-31839D01*
X90544Y-32161D01*
X90543Y-32162D01*
X90501Y-32262D01*
X90425Y-32645D01*
X90425Y-32700D01*
X90425Y-32754D01*
X90501Y-33137D01*
X90543Y-33237D01*
X90544Y-33238D01*
X90759Y-33560D01*
X90760Y-33562D01*
X90837Y-33639D01*
X91161Y-33856D01*
X91262Y-33898D01*
X91263Y-33898D01*
X91643Y-33973D01*
X91645Y-33974D01*
X91754Y-33974D01*
X92137Y-33898D01*
X92237Y-33856D01*
X92238Y-33855D01*
X92560Y-33640D01*
X92562Y-33639D01*
X92639Y-33562D01*
X92856Y-33238D01*
X92898Y-33137D01*
X92898Y-33136D01*
X92973Y-32754D01*
X92973Y-32754D01*
X92973Y-32754D01*
X92973Y-32754D01*
X92973Y-45721D01*
X92962Y-45710D01*
X92960Y-45709D01*
X92638Y-45494D01*
X92637Y-45493D01*
X92537Y-45451D01*
X92154Y-45375D01*
X92045Y-45375D01*
X92043Y-45376D01*
X91663Y-45451D01*
X91662Y-45451D01*
X91643Y-45459D01*
X91643Y-42629D01*
X91554Y-42415D01*
X91391Y-42252D01*
X91371Y-42244D01*
X91391Y-42236D01*
X91554Y-42073D01*
X91642Y-41859D01*
X91643Y-41629D01*
X91554Y-41415D01*
X91391Y-41252D01*
X91178Y-41164D01*
X90948Y-41163D01*
X90857Y-41201D01*
X90857Y-39738D01*
X90778Y-39545D01*
X90630Y-39397D01*
X90437Y-39317D01*
X90228Y-39317D01*
X90035Y-39397D01*
X89887Y-39544D01*
X89807Y-39737D01*
X89807Y-39946D01*
X89887Y-40139D01*
X90034Y-40287D01*
X90227Y-40367D01*
X90436Y-40367D01*
X90629Y-40287D01*
X90777Y-40140D01*
X90857Y-39947D01*
X90857Y-39738D01*
X90857Y-41201D01*
X90734Y-41252D01*
X90571Y-41415D01*
X90483Y-41628D01*
X90482Y-41858D01*
X90571Y-42072D01*
X90734Y-42235D01*
X90754Y-42244D01*
X90734Y-42252D01*
X90571Y-42415D01*
X90483Y-42628D01*
X90482Y-42858D01*
X90571Y-43072D01*
X90734Y-43235D01*
X90947Y-43323D01*
X91177Y-43324D01*
X91391Y-43236D01*
X91554Y-43073D01*
X91642Y-42859D01*
X91643Y-42629D01*
X91643Y-45459D01*
X91566Y-45491D01*
X91566Y-44817D01*
X91486Y-44624D01*
X91339Y-44476D01*
X91146Y-44396D01*
X90937Y-44396D01*
X90744Y-44475D01*
X90596Y-44623D01*
X90516Y-44816D01*
X90516Y-45025D01*
X90596Y-45218D01*
X90743Y-45366D01*
X90936Y-45446D01*
X91145Y-45446D01*
X91338Y-45366D01*
X91486Y-45219D01*
X91566Y-45026D01*
X91566Y-44817D01*
X91566Y-45491D01*
X91561Y-45493D01*
X91237Y-45710D01*
X91160Y-45787D01*
X91159Y-45789D01*
X90944Y-46111D01*
X90943Y-46112D01*
X90901Y-46212D01*
X90825Y-46595D01*
X90825Y-46650D01*
X90825Y-46704D01*
X90901Y-47087D01*
X90943Y-47187D01*
X90944Y-47188D01*
X91159Y-47510D01*
X91160Y-47512D01*
X91237Y-47589D01*
X91561Y-47806D01*
X91662Y-47848D01*
X91663Y-47848D01*
X92043Y-47923D01*
X92045Y-47924D01*
X92154Y-47924D01*
X92537Y-47848D01*
X92637Y-47806D01*
X92638Y-47805D01*
X92960Y-47590D01*
X92962Y-47589D01*
X93039Y-47512D01*
X93256Y-47188D01*
X93298Y-47087D01*
X93298Y-47086D01*
X93373Y-46704D01*
X93373Y-46704D01*
X93373Y-46704D01*
X93373Y-46704D01*
X93373Y-48090D01*
X89597Y-48090D01*
X89597Y-38596D01*
X89554Y-38492D01*
X89554Y-33381D01*
X89550Y-33287D01*
X89550Y-32550D01*
X89550Y-31950D01*
X89512Y-31858D01*
X89441Y-31788D01*
X89349Y-31750D01*
X89250Y-31749D01*
X88650Y-31749D01*
X88558Y-31787D01*
X88488Y-31858D01*
X88450Y-31950D01*
X88449Y-32049D01*
X88449Y-32649D01*
X88487Y-32741D01*
X88558Y-32811D01*
X88650Y-32849D01*
X88703Y-32850D01*
X88684Y-32914D01*
X89000Y-33229D01*
X89315Y-32914D01*
X89296Y-32850D01*
X89349Y-32850D01*
X89441Y-32812D01*
X89511Y-32741D01*
X89549Y-32649D01*
X89550Y-32550D01*
X89550Y-33287D01*
X89543Y-33163D01*
X89481Y-33012D01*
X89385Y-32984D01*
X89070Y-33300D01*
X89385Y-33615D01*
X89481Y-33587D01*
X89554Y-33381D01*
X89554Y-38492D01*
X89518Y-38403D01*
X89370Y-38255D01*
X89315Y-38232D01*
X89315Y-33685D01*
X89000Y-33370D01*
X88929Y-33441D01*
X88929Y-33300D01*
X88614Y-32984D01*
X88518Y-33012D01*
X88445Y-33218D01*
X88456Y-33436D01*
X88518Y-33587D01*
X88614Y-33615D01*
X88929Y-33300D01*
X88929Y-33441D01*
X88684Y-33685D01*
X88712Y-33781D01*
X88918Y-33854D01*
X89136Y-33843D01*
X89287Y-33781D01*
X89315Y-33685D01*
X89315Y-38232D01*
X89177Y-38175D01*
X88968Y-38175D01*
X88849Y-38224D01*
X88849Y-37218D01*
X88770Y-37025D01*
X88622Y-36878D01*
X88429Y-36797D01*
X88278Y-36797D01*
X88278Y-35950D01*
X88194Y-35747D01*
X88056Y-35609D01*
X88078Y-35609D01*
X88170Y-35570D01*
X88240Y-35500D01*
X88278Y-35408D01*
X88278Y-34709D01*
X88240Y-34617D01*
X88170Y-34547D01*
X88078Y-34509D01*
X87978Y-34509D01*
X87840Y-34509D01*
X87778Y-34571D01*
X87778Y-35009D01*
X88215Y-35009D01*
X88278Y-34946D01*
X88278Y-34709D01*
X88278Y-35408D01*
X88278Y-35171D01*
X88215Y-35109D01*
X87778Y-35109D01*
X87778Y-35116D01*
X87678Y-35116D01*
X87678Y-35109D01*
X87678Y-35009D01*
X87678Y-34571D01*
X87615Y-34509D01*
X87477Y-34509D01*
X87378Y-34509D01*
X87286Y-34547D01*
X87216Y-34617D01*
X87178Y-34709D01*
X87178Y-34946D01*
X87240Y-35009D01*
X87678Y-35009D01*
X87678Y-35109D01*
X87240Y-35109D01*
X87178Y-35171D01*
X87178Y-35408D01*
X87216Y-35500D01*
X87286Y-35570D01*
X87378Y-35609D01*
X87400Y-35609D01*
X87262Y-35747D01*
X87178Y-35949D01*
X87178Y-36167D01*
X87261Y-36370D01*
X87416Y-36525D01*
X87618Y-36608D01*
X87837Y-36609D01*
X88039Y-36525D01*
X88194Y-36371D01*
X88278Y-36168D01*
X88278Y-35950D01*
X88278Y-36797D01*
X88220Y-36797D01*
X88027Y-36877D01*
X87879Y-37025D01*
X87799Y-37217D01*
X87799Y-37426D01*
X87879Y-37619D01*
X88027Y-37767D01*
X88219Y-37847D01*
X88428Y-37847D01*
X88621Y-37768D01*
X88769Y-37620D01*
X88849Y-37427D01*
X88849Y-37218D01*
X88849Y-38224D01*
X88775Y-38255D01*
X88628Y-38403D01*
X88547Y-38595D01*
X88547Y-38804D01*
X88627Y-38997D01*
X88775Y-39145D01*
X88967Y-39225D01*
X89176Y-39225D01*
X89369Y-39146D01*
X89517Y-38998D01*
X89597Y-38805D01*
X89597Y-38596D01*
X89597Y-48090D01*
X89081Y-48090D01*
X89081Y-43332D01*
X88998Y-43129D01*
X88843Y-42974D01*
X88761Y-42940D01*
X88842Y-42907D01*
X88997Y-42752D01*
X89081Y-42550D01*
X89081Y-42332D01*
X88998Y-42129D01*
X88843Y-41974D01*
X88761Y-41940D01*
X88842Y-41907D01*
X88997Y-41752D01*
X89081Y-41550D01*
X89081Y-41332D01*
X88998Y-41129D01*
X88843Y-40974D01*
X88641Y-40891D01*
X88422Y-40890D01*
X88220Y-40974D01*
X88081Y-41112D01*
X88081Y-41091D01*
X88043Y-40999D01*
X87973Y-40929D01*
X87881Y-40890D01*
X87781Y-40890D01*
X87357Y-40890D01*
X87357Y-39738D01*
X87278Y-39545D01*
X87130Y-39397D01*
X86937Y-39317D01*
X86778Y-39317D01*
X86778Y-35950D01*
X86694Y-35747D01*
X86556Y-35609D01*
X86578Y-35609D01*
X86670Y-35570D01*
X86740Y-35500D01*
X86778Y-35408D01*
X86778Y-34709D01*
X86740Y-34617D01*
X86670Y-34547D01*
X86578Y-34509D01*
X86478Y-34509D01*
X86340Y-34509D01*
X86278Y-34571D01*
X86278Y-35009D01*
X86715Y-35009D01*
X86778Y-34946D01*
X86778Y-34709D01*
X86778Y-35408D01*
X86778Y-35171D01*
X86715Y-35109D01*
X86278Y-35109D01*
X86278Y-35116D01*
X86204Y-35116D01*
X86204Y-33331D01*
X86200Y-33237D01*
X86200Y-32500D01*
X86200Y-31900D01*
X86162Y-31808D01*
X86091Y-31738D01*
X85999Y-31700D01*
X85900Y-31699D01*
X85300Y-31699D01*
X85208Y-31737D01*
X85138Y-31808D01*
X85100Y-31900D01*
X85099Y-31999D01*
X85099Y-32599D01*
X85137Y-32691D01*
X85208Y-32761D01*
X85300Y-32799D01*
X85353Y-32800D01*
X85334Y-32864D01*
X85650Y-33179D01*
X85965Y-32864D01*
X85946Y-32800D01*
X85999Y-32800D01*
X86091Y-32762D01*
X86161Y-32691D01*
X86199Y-32599D01*
X86200Y-32500D01*
X86200Y-33237D01*
X86193Y-33113D01*
X86131Y-32962D01*
X86035Y-32934D01*
X85720Y-33250D01*
X86035Y-33565D01*
X86131Y-33537D01*
X86204Y-33331D01*
X86204Y-35116D01*
X86178Y-35116D01*
X86178Y-35109D01*
X86178Y-35009D01*
X86178Y-34571D01*
X86115Y-34509D01*
X85977Y-34509D01*
X85965Y-34509D01*
X85965Y-33635D01*
X85650Y-33320D01*
X85579Y-33391D01*
X85579Y-33250D01*
X85264Y-32934D01*
X85168Y-32962D01*
X85095Y-33168D01*
X85106Y-33386D01*
X85168Y-33537D01*
X85264Y-33565D01*
X85579Y-33250D01*
X85579Y-33391D01*
X85334Y-33635D01*
X85362Y-33731D01*
X85568Y-33804D01*
X85786Y-33793D01*
X85937Y-33731D01*
X85965Y-33635D01*
X85965Y-34509D01*
X85878Y-34509D01*
X85786Y-34547D01*
X85716Y-34617D01*
X85678Y-34709D01*
X85678Y-34946D01*
X85740Y-35009D01*
X86178Y-35009D01*
X86178Y-35109D01*
X85740Y-35109D01*
X85678Y-35171D01*
X85678Y-35408D01*
X85716Y-35500D01*
X85786Y-35570D01*
X85878Y-35609D01*
X85900Y-35609D01*
X85762Y-35747D01*
X85678Y-35949D01*
X85678Y-36167D01*
X85761Y-36370D01*
X85916Y-36525D01*
X86118Y-36608D01*
X86337Y-36609D01*
X86539Y-36525D01*
X86694Y-36371D01*
X86778Y-36168D01*
X86778Y-35950D01*
X86778Y-39317D01*
X86728Y-39317D01*
X86535Y-39397D01*
X86387Y-39544D01*
X86307Y-39737D01*
X86307Y-39946D01*
X86387Y-40139D01*
X86534Y-40287D01*
X86727Y-40367D01*
X86936Y-40367D01*
X87129Y-40287D01*
X87277Y-40140D01*
X87357Y-39947D01*
X87357Y-39738D01*
X87357Y-40890D01*
X87181Y-40890D01*
X87090Y-40928D01*
X87019Y-40999D01*
X86981Y-41090D01*
X86981Y-41190D01*
X86981Y-41790D01*
X87019Y-41882D01*
X87089Y-41952D01*
X87181Y-41990D01*
X87203Y-41990D01*
X87065Y-42128D01*
X86981Y-42331D01*
X86981Y-42549D01*
X87064Y-42752D01*
X87219Y-42906D01*
X87301Y-42940D01*
X87220Y-42974D01*
X87065Y-43128D01*
X86981Y-43331D01*
X86981Y-43549D01*
X87064Y-43752D01*
X87219Y-43906D01*
X87421Y-43990D01*
X87640Y-43991D01*
X87842Y-43907D01*
X87997Y-43752D01*
X88031Y-43671D01*
X88064Y-43752D01*
X88219Y-43906D01*
X88421Y-43990D01*
X88640Y-43991D01*
X88842Y-43907D01*
X88997Y-43752D01*
X89081Y-43550D01*
X89081Y-43332D01*
X89081Y-48090D01*
X88865Y-48090D01*
X88865Y-48009D01*
X88865Y-46446D01*
X88066Y-46446D01*
X88066Y-44817D01*
X87986Y-44624D01*
X87839Y-44476D01*
X87646Y-44396D01*
X87437Y-44396D01*
X87244Y-44475D01*
X87096Y-44623D01*
X87016Y-44816D01*
X87016Y-45025D01*
X87096Y-45218D01*
X87243Y-45366D01*
X87436Y-45446D01*
X87645Y-45446D01*
X87838Y-45366D01*
X87986Y-45219D01*
X88066Y-45026D01*
X88066Y-44817D01*
X88066Y-46446D01*
X86097Y-46446D01*
X86097Y-38596D01*
X86018Y-38403D01*
X85870Y-38255D01*
X85677Y-38175D01*
X85468Y-38175D01*
X85349Y-38224D01*
X85349Y-37218D01*
X85278Y-37045D01*
X85278Y-35950D01*
X85194Y-35747D01*
X85056Y-35609D01*
X85078Y-35609D01*
X85170Y-35570D01*
X85240Y-35500D01*
X85278Y-35408D01*
X85278Y-34709D01*
X85240Y-34617D01*
X85170Y-34547D01*
X85078Y-34509D01*
X84978Y-34509D01*
X84840Y-34509D01*
X84778Y-34571D01*
X84778Y-35009D01*
X85215Y-35009D01*
X85278Y-34946D01*
X85278Y-34709D01*
X85278Y-35408D01*
X85278Y-35171D01*
X85215Y-35109D01*
X84778Y-35109D01*
X84778Y-35116D01*
X84678Y-35116D01*
X84678Y-35109D01*
X84678Y-35009D01*
X84678Y-34571D01*
X84615Y-34509D01*
X84477Y-34509D01*
X84378Y-34509D01*
X84286Y-34547D01*
X84216Y-34617D01*
X84178Y-34709D01*
X84178Y-34946D01*
X84240Y-35009D01*
X84678Y-35009D01*
X84678Y-35109D01*
X84240Y-35109D01*
X84178Y-35171D01*
X84178Y-35408D01*
X84216Y-35500D01*
X84286Y-35570D01*
X84378Y-35609D01*
X84400Y-35609D01*
X84262Y-35747D01*
X84178Y-35949D01*
X84178Y-36167D01*
X84261Y-36370D01*
X84416Y-36525D01*
X84618Y-36608D01*
X84837Y-36609D01*
X85039Y-36525D01*
X85194Y-36371D01*
X85278Y-36168D01*
X85278Y-35950D01*
X85278Y-37045D01*
X85270Y-37025D01*
X85122Y-36878D01*
X84929Y-36797D01*
X84720Y-36797D01*
X84527Y-36877D01*
X84379Y-37025D01*
X84299Y-37217D01*
X84299Y-37426D01*
X84379Y-37619D01*
X84527Y-37767D01*
X84719Y-37847D01*
X84928Y-37847D01*
X85121Y-37768D01*
X85269Y-37620D01*
X85349Y-37427D01*
X85349Y-37218D01*
X85349Y-38224D01*
X85275Y-38255D01*
X85128Y-38403D01*
X85047Y-38595D01*
X85047Y-38804D01*
X85127Y-38997D01*
X85275Y-39145D01*
X85467Y-39225D01*
X85676Y-39225D01*
X85869Y-39146D01*
X86017Y-38998D01*
X86097Y-38805D01*
X86097Y-38596D01*
X86097Y-46446D01*
X85411Y-46446D01*
X85411Y-43109D01*
X85327Y-42906D01*
X85172Y-42752D01*
X84970Y-42668D01*
X84752Y-42667D01*
X84750Y-42668D01*
X84324Y-42242D01*
X84249Y-42192D01*
X84297Y-42143D01*
X84381Y-41941D01*
X84381Y-41904D01*
X84520Y-41961D01*
X84738Y-41962D01*
X84941Y-41878D01*
X85095Y-41723D01*
X85179Y-41521D01*
X85180Y-41303D01*
X85096Y-41100D01*
X84941Y-40946D01*
X84780Y-40879D01*
X84825Y-40879D01*
X85028Y-40795D01*
X85182Y-40640D01*
X85266Y-40438D01*
X85267Y-40220D01*
X85183Y-40017D01*
X85119Y-39953D01*
X85209Y-39862D01*
X85293Y-39660D01*
X85294Y-39442D01*
X85210Y-39239D01*
X85055Y-39085D01*
X84853Y-39001D01*
X84741Y-39000D01*
X84741Y-38933D01*
X84657Y-38730D01*
X84502Y-38576D01*
X84300Y-38492D01*
X84082Y-38491D01*
X83997Y-38526D01*
X83959Y-38433D01*
X83804Y-38279D01*
X83602Y-38195D01*
X83476Y-38194D01*
X83476Y-38087D01*
X83392Y-37884D01*
X83254Y-37746D01*
X83254Y-33331D01*
X83250Y-33237D01*
X83250Y-32500D01*
X83250Y-31900D01*
X83212Y-31808D01*
X83141Y-31738D01*
X83049Y-31700D01*
X82950Y-31699D01*
X82350Y-31699D01*
X82258Y-31737D01*
X82188Y-31808D01*
X82150Y-31900D01*
X82149Y-31999D01*
X82149Y-32599D01*
X82187Y-32691D01*
X82258Y-32761D01*
X82350Y-32799D01*
X82403Y-32800D01*
X82384Y-32864D01*
X82700Y-33179D01*
X83015Y-32864D01*
X82996Y-32800D01*
X83049Y-32800D01*
X83141Y-32762D01*
X83211Y-32691D01*
X83249Y-32599D01*
X83250Y-32500D01*
X83250Y-33237D01*
X83243Y-33113D01*
X83181Y-32962D01*
X83085Y-32934D01*
X82770Y-33250D01*
X83085Y-33565D01*
X83181Y-33537D01*
X83254Y-33331D01*
X83254Y-37746D01*
X83237Y-37730D01*
X83035Y-37646D01*
X83015Y-37646D01*
X83015Y-33635D01*
X82700Y-33320D01*
X82629Y-33391D01*
X82629Y-33250D01*
X82314Y-32934D01*
X82218Y-32962D01*
X82145Y-33168D01*
X82156Y-33386D01*
X82218Y-33537D01*
X82314Y-33565D01*
X82629Y-33250D01*
X82629Y-33391D01*
X82384Y-33635D01*
X82412Y-33731D01*
X82618Y-33804D01*
X82836Y-33793D01*
X82987Y-33731D01*
X83015Y-33635D01*
X83015Y-37646D01*
X82817Y-37645D01*
X82614Y-37729D01*
X82460Y-37884D01*
X82376Y-38086D01*
X82375Y-38304D01*
X82459Y-38507D01*
X82576Y-38624D01*
X82204Y-38995D01*
X81953Y-38995D01*
X81991Y-38957D01*
X81991Y-38941D01*
X81953Y-38849D01*
X81883Y-38779D01*
X81791Y-38740D01*
X81691Y-38740D01*
X81647Y-38740D01*
X81584Y-38803D01*
X81584Y-38995D01*
X81534Y-38995D01*
X81530Y-38996D01*
X81484Y-38996D01*
X81484Y-38803D01*
X81479Y-38798D01*
X81479Y-33175D01*
X81468Y-32967D01*
X81410Y-32827D01*
X81317Y-32802D01*
X81247Y-32873D01*
X81247Y-32732D01*
X81222Y-32639D01*
X81025Y-32570D01*
X80817Y-32581D01*
X80677Y-32639D01*
X80652Y-32732D01*
X80950Y-33029D01*
X81247Y-32732D01*
X81247Y-32873D01*
X81020Y-33100D01*
X81317Y-33397D01*
X81410Y-33372D01*
X81479Y-33175D01*
X81479Y-38798D01*
X81422Y-38740D01*
X81377Y-38740D01*
X81278Y-38740D01*
X81247Y-38753D01*
X81247Y-33467D01*
X80950Y-33170D01*
X80879Y-33241D01*
X80879Y-33100D01*
X80582Y-32802D01*
X80489Y-32827D01*
X80475Y-32868D01*
X80475Y-32775D01*
X80437Y-32683D01*
X80366Y-32613D01*
X80274Y-32575D01*
X80175Y-32574D01*
X79625Y-32574D01*
X79533Y-32612D01*
X79463Y-32683D01*
X79425Y-32775D01*
X79424Y-32874D01*
X79424Y-33424D01*
X79462Y-33516D01*
X79533Y-33586D01*
X79625Y-33624D01*
X79724Y-33625D01*
X80274Y-33625D01*
X80366Y-33587D01*
X80436Y-33516D01*
X80474Y-33424D01*
X80475Y-33337D01*
X80489Y-33372D01*
X80582Y-33397D01*
X80879Y-33100D01*
X80879Y-33241D01*
X80652Y-33467D01*
X80677Y-33560D01*
X80874Y-33629D01*
X81082Y-33618D01*
X81222Y-33560D01*
X81247Y-33467D01*
X81247Y-38753D01*
X81186Y-38779D01*
X81157Y-38808D01*
X80792Y-38808D01*
X80772Y-42624D01*
X81163Y-42624D01*
X81186Y-42647D01*
X81278Y-42685D01*
X81377Y-42685D01*
X81530Y-42685D01*
X81534Y-42686D01*
X82246Y-42686D01*
X82245Y-42867D01*
X82329Y-43070D01*
X82484Y-43224D01*
X82686Y-43308D01*
X82904Y-43309D01*
X83107Y-43225D01*
X83110Y-43222D01*
X83157Y-43336D01*
X83312Y-43490D01*
X83514Y-43574D01*
X83732Y-43575D01*
X83935Y-43491D01*
X84089Y-43336D01*
X84173Y-43134D01*
X84174Y-42969D01*
X84311Y-43106D01*
X84311Y-43108D01*
X84310Y-43326D01*
X84394Y-43529D01*
X84549Y-43683D01*
X84751Y-43767D01*
X84969Y-43768D01*
X85172Y-43684D01*
X85326Y-43529D01*
X85410Y-43327D01*
X85411Y-43109D01*
X85411Y-46446D01*
X83750Y-46446D01*
X83750Y-44784D01*
X83739Y-44575D01*
X83681Y-44435D01*
X83588Y-44411D01*
X83517Y-44482D01*
X83517Y-44340D01*
X83493Y-44248D01*
X83296Y-44178D01*
X83087Y-44190D01*
X82947Y-44248D01*
X82923Y-44340D01*
X83220Y-44637D01*
X83517Y-44340D01*
X83517Y-44482D01*
X83291Y-44708D01*
X83588Y-45005D01*
X83681Y-44981D01*
X83750Y-44784D01*
X83750Y-46446D01*
X83517Y-46446D01*
X83517Y-45076D01*
X83220Y-44779D01*
X83149Y-44850D01*
X83149Y-44708D01*
X82852Y-44411D01*
X82759Y-44435D01*
X82721Y-44545D01*
X82665Y-44411D01*
X82518Y-44263D01*
X82325Y-44183D01*
X82116Y-44183D01*
X81923Y-44263D01*
X81775Y-44410D01*
X81695Y-44603D01*
X81695Y-44812D01*
X81775Y-45005D01*
X81922Y-45153D01*
X82115Y-45233D01*
X82324Y-45233D01*
X82517Y-45153D01*
X82665Y-45006D01*
X82717Y-44879D01*
X82759Y-44981D01*
X82852Y-45005D01*
X83149Y-44708D01*
X83149Y-44850D01*
X82923Y-45076D01*
X82947Y-45169D01*
X83144Y-45238D01*
X83353Y-45227D01*
X83493Y-45169D01*
X83517Y-45076D01*
X83517Y-46446D01*
X83410Y-46446D01*
X83410Y-48009D01*
X88865Y-48009D01*
X88865Y-48090D01*
X82038Y-48090D01*
X82038Y-45959D01*
X81959Y-45765D01*
X81811Y-45618D01*
X81618Y-45538D01*
X81566Y-45538D01*
X81566Y-44856D01*
X81486Y-44663D01*
X81339Y-44515D01*
X81146Y-44435D01*
X80937Y-44435D01*
X80744Y-44515D01*
X80596Y-44662D01*
X80516Y-44855D01*
X80516Y-45064D01*
X80596Y-45257D01*
X80743Y-45405D01*
X80936Y-45485D01*
X81145Y-45485D01*
X81338Y-45405D01*
X81486Y-45258D01*
X81566Y-45065D01*
X81566Y-44856D01*
X81566Y-45538D01*
X81409Y-45537D01*
X81216Y-45617D01*
X81068Y-45765D01*
X80988Y-45958D01*
X80988Y-46166D01*
X81068Y-46359D01*
X81216Y-46507D01*
X81408Y-46587D01*
X81617Y-46588D01*
X81810Y-46508D01*
X81958Y-46360D01*
X82038Y-46167D01*
X82038Y-45959D01*
X82038Y-48090D01*
X79735Y-48090D01*
X79735Y-38725D01*
X79681Y-38725D01*
X79387Y-38725D01*
X79387Y-38767D01*
X79321Y-38740D01*
X79279Y-38740D01*
X79279Y-35175D01*
X79275Y-35087D01*
X79275Y-33996D01*
X79195Y-33803D01*
X79047Y-33655D01*
X78854Y-33575D01*
X78650Y-33574D01*
X78650Y-32031D01*
X78558Y-31810D01*
X78390Y-31641D01*
X78169Y-31550D01*
X77931Y-31549D01*
X77710Y-31641D01*
X77635Y-31715D01*
X77612Y-31658D01*
X77541Y-31588D01*
X77449Y-31550D01*
X77350Y-31549D01*
X77162Y-31550D01*
X77100Y-31612D01*
X77100Y-32100D01*
X77107Y-32100D01*
X77107Y-32200D01*
X77100Y-32200D01*
X77100Y-32687D01*
X77162Y-32750D01*
X77350Y-32750D01*
X77449Y-32749D01*
X77541Y-32711D01*
X77612Y-32641D01*
X77635Y-32584D01*
X77709Y-32658D01*
X77930Y-32749D01*
X78168Y-32750D01*
X78389Y-32658D01*
X78558Y-32490D01*
X78649Y-32269D01*
X78650Y-32031D01*
X78650Y-33574D01*
X78646Y-33574D01*
X78453Y-33654D01*
X78305Y-33802D01*
X78225Y-33995D01*
X78224Y-34203D01*
X78304Y-34397D01*
X78452Y-34544D01*
X78578Y-34597D01*
X78477Y-34639D01*
X78452Y-34732D01*
X78750Y-35029D01*
X79047Y-34732D01*
X79022Y-34639D01*
X78912Y-34600D01*
X79047Y-34545D01*
X79194Y-34397D01*
X79274Y-34204D01*
X79275Y-33996D01*
X79275Y-35087D01*
X79268Y-34967D01*
X79210Y-34827D01*
X79117Y-34802D01*
X78820Y-35100D01*
X79117Y-35397D01*
X79210Y-35372D01*
X79279Y-35175D01*
X79279Y-38740D01*
X79222Y-38740D01*
X79069Y-38740D01*
X79065Y-38740D01*
X79010Y-38740D01*
X79062Y-38687D01*
X79146Y-38485D01*
X79147Y-38267D01*
X79103Y-38162D01*
X79103Y-36494D01*
X79047Y-36357D01*
X79047Y-35467D01*
X78750Y-35170D01*
X78679Y-35241D01*
X78679Y-35100D01*
X78382Y-34802D01*
X78289Y-34827D01*
X78220Y-35024D01*
X78231Y-35232D01*
X78289Y-35372D01*
X78382Y-35397D01*
X78679Y-35100D01*
X78679Y-35241D01*
X78452Y-35467D01*
X78477Y-35560D01*
X78674Y-35629D01*
X78882Y-35618D01*
X79022Y-35560D01*
X79047Y-35467D01*
X79047Y-36357D01*
X79024Y-36301D01*
X78876Y-36153D01*
X78683Y-36073D01*
X78474Y-36073D01*
X78281Y-36153D01*
X78133Y-36300D01*
X78078Y-36433D01*
X78024Y-36301D01*
X77876Y-36153D01*
X77683Y-36073D01*
X77474Y-36073D01*
X77281Y-36153D01*
X77133Y-36300D01*
X77053Y-36493D01*
X77053Y-36702D01*
X77133Y-36895D01*
X77280Y-37043D01*
X77473Y-37123D01*
X77682Y-37123D01*
X77875Y-37043D01*
X78023Y-36896D01*
X78078Y-36763D01*
X78133Y-36895D01*
X78280Y-37043D01*
X78473Y-37123D01*
X78682Y-37123D01*
X78875Y-37043D01*
X79023Y-36896D01*
X79103Y-36703D01*
X79103Y-36494D01*
X79103Y-38162D01*
X79063Y-38064D01*
X78908Y-37910D01*
X78706Y-37826D01*
X78488Y-37825D01*
X78346Y-37884D01*
X78330Y-37844D01*
X78175Y-37690D01*
X77973Y-37606D01*
X77755Y-37605D01*
X77552Y-37689D01*
X77398Y-37844D01*
X77314Y-38046D01*
X77314Y-38083D01*
X77157Y-38082D01*
X77000Y-38147D01*
X77000Y-32687D01*
X77000Y-32200D01*
X76992Y-32200D01*
X76992Y-32100D01*
X77000Y-32100D01*
X77000Y-31612D01*
X76937Y-31550D01*
X76749Y-31549D01*
X76650Y-31550D01*
X76558Y-31588D01*
X76487Y-31658D01*
X76464Y-31715D01*
X76390Y-31641D01*
X76169Y-31550D01*
X75931Y-31549D01*
X75710Y-31641D01*
X75541Y-31809D01*
X75450Y-32030D01*
X75449Y-32268D01*
X75541Y-32489D01*
X75709Y-32658D01*
X75930Y-32749D01*
X76168Y-32750D01*
X76389Y-32658D01*
X76464Y-32584D01*
X76487Y-32641D01*
X76558Y-32711D01*
X76650Y-32749D01*
X76749Y-32750D01*
X76937Y-32750D01*
X77000Y-32687D01*
X77000Y-38147D01*
X76954Y-38166D01*
X76800Y-38321D01*
X76716Y-38523D01*
X76715Y-38649D01*
X76646Y-38649D01*
X76443Y-38733D01*
X76429Y-38747D01*
X76429Y-35375D01*
X76425Y-35287D01*
X76425Y-34196D01*
X76345Y-34003D01*
X76197Y-33855D01*
X76004Y-33775D01*
X75796Y-33774D01*
X75603Y-33854D01*
X75455Y-34002D01*
X75375Y-34195D01*
X75374Y-34403D01*
X75454Y-34597D01*
X75602Y-34744D01*
X75728Y-34797D01*
X75627Y-34839D01*
X75602Y-34932D01*
X75900Y-35229D01*
X76197Y-34932D01*
X76172Y-34839D01*
X76062Y-34800D01*
X76197Y-34745D01*
X76344Y-34597D01*
X76424Y-34404D01*
X76425Y-34196D01*
X76425Y-35287D01*
X76418Y-35167D01*
X76360Y-35027D01*
X76267Y-35002D01*
X75970Y-35300D01*
X76267Y-35597D01*
X76360Y-35572D01*
X76429Y-35375D01*
X76429Y-38747D01*
X76289Y-38888D01*
X76205Y-39090D01*
X76205Y-39154D01*
X76197Y-39154D01*
X76197Y-35667D01*
X75900Y-35370D01*
X75829Y-35441D01*
X75829Y-35300D01*
X75532Y-35002D01*
X75439Y-35027D01*
X75370Y-35224D01*
X75381Y-35432D01*
X75439Y-35572D01*
X75532Y-35597D01*
X75829Y-35300D01*
X75829Y-35441D01*
X75602Y-35667D01*
X75627Y-35760D01*
X75824Y-35829D01*
X76032Y-35818D01*
X76172Y-35760D01*
X76197Y-35667D01*
X76197Y-39154D01*
X76079Y-39153D01*
X75876Y-39237D01*
X75775Y-39339D01*
X75775Y-38146D01*
X75695Y-37953D01*
X75547Y-37805D01*
X75414Y-37749D01*
X75547Y-37695D01*
X75694Y-37547D01*
X75774Y-37354D01*
X75775Y-37146D01*
X75695Y-36953D01*
X75547Y-36805D01*
X75354Y-36725D01*
X75146Y-36724D01*
X75144Y-36725D01*
X75144Y-32922D01*
X75061Y-32720D01*
X74906Y-32565D01*
X74704Y-32481D01*
X74485Y-32481D01*
X74283Y-32564D01*
X74144Y-32703D01*
X74144Y-32681D01*
X74106Y-32589D01*
X74035Y-32519D01*
X73943Y-32481D01*
X73706Y-32481D01*
X73644Y-32543D01*
X73644Y-32981D01*
X73652Y-32981D01*
X73652Y-33081D01*
X73644Y-33081D01*
X73644Y-33518D01*
X73706Y-33581D01*
X73943Y-33581D01*
X74035Y-33543D01*
X74106Y-33473D01*
X74144Y-33381D01*
X74144Y-33359D01*
X74282Y-33497D01*
X74484Y-33581D01*
X74703Y-33581D01*
X74905Y-33498D01*
X75060Y-33343D01*
X75144Y-33141D01*
X75144Y-32922D01*
X75144Y-36725D01*
X74953Y-36804D01*
X74805Y-36952D01*
X74725Y-37145D01*
X74724Y-37353D01*
X74804Y-37547D01*
X74952Y-37694D01*
X75085Y-37750D01*
X74953Y-37804D01*
X74805Y-37952D01*
X74725Y-38145D01*
X74724Y-38353D01*
X74804Y-38547D01*
X74952Y-38694D01*
X75145Y-38774D01*
X75353Y-38775D01*
X75547Y-38695D01*
X75694Y-38547D01*
X75774Y-38354D01*
X75775Y-38146D01*
X75775Y-39339D01*
X75722Y-39392D01*
X75638Y-39594D01*
X75638Y-39658D01*
X75477Y-39657D01*
X75274Y-39741D01*
X75120Y-39896D01*
X75036Y-40098D01*
X75035Y-40316D01*
X75119Y-40519D01*
X75274Y-40673D01*
X75476Y-40757D01*
X75562Y-40757D01*
X75562Y-40838D01*
X75646Y-41041D01*
X75801Y-41195D01*
X76003Y-41279D01*
X76064Y-41279D01*
X76064Y-41387D01*
X76117Y-41515D01*
X75990Y-41515D01*
X75989Y-41513D01*
X75834Y-41359D01*
X75632Y-41275D01*
X75414Y-41274D01*
X75211Y-41358D01*
X75057Y-41513D01*
X75026Y-41586D01*
X75026Y-40639D01*
X74942Y-40436D01*
X74788Y-40282D01*
X74586Y-40198D01*
X74367Y-40197D01*
X74182Y-40274D01*
X74182Y-39423D01*
X74182Y-35923D01*
X74103Y-35730D01*
X73955Y-35582D01*
X73762Y-35502D01*
X73553Y-35502D01*
X73544Y-35505D01*
X73544Y-33518D01*
X73544Y-33081D01*
X73544Y-32981D01*
X73544Y-32543D01*
X73481Y-32481D01*
X73244Y-32481D01*
X73153Y-32519D01*
X73082Y-32589D01*
X73044Y-32681D01*
X73044Y-32781D01*
X73044Y-32918D01*
X73106Y-32981D01*
X73544Y-32981D01*
X73544Y-33081D01*
X73106Y-33081D01*
X73044Y-33143D01*
X73044Y-33281D01*
X73044Y-33381D01*
X73082Y-33473D01*
X73153Y-33543D01*
X73244Y-33581D01*
X73481Y-33581D01*
X73544Y-33518D01*
X73544Y-35505D01*
X73360Y-35581D01*
X73213Y-35729D01*
X73132Y-35922D01*
X73132Y-36131D01*
X73212Y-36324D01*
X73360Y-36471D01*
X73552Y-36552D01*
X73761Y-36552D01*
X73954Y-36472D01*
X74102Y-36324D01*
X74182Y-36132D01*
X74182Y-35923D01*
X74182Y-39423D01*
X74103Y-39230D01*
X73955Y-39082D01*
X73762Y-39002D01*
X73553Y-39002D01*
X73360Y-39081D01*
X73213Y-39229D01*
X73132Y-39422D01*
X73132Y-39631D01*
X73212Y-39824D01*
X73360Y-39971D01*
X73552Y-40052D01*
X73761Y-40052D01*
X73954Y-39972D01*
X74102Y-39824D01*
X74182Y-39632D01*
X74182Y-39423D01*
X74182Y-40274D01*
X74165Y-40281D01*
X74026Y-40420D01*
X74026Y-40398D01*
X73988Y-40306D01*
X73918Y-40236D01*
X73826Y-40198D01*
X73726Y-40197D01*
X73126Y-40197D01*
X73034Y-40235D01*
X73025Y-40245D01*
X73025Y-36075D01*
X73025Y-35525D01*
X72987Y-35433D01*
X72923Y-35370D01*
X72923Y-32204D01*
X72923Y-32150D01*
X72923Y-32095D01*
X72923Y-32095D01*
X72923Y-32095D01*
X72923Y-32095D01*
X72848Y-31713D01*
X72848Y-31712D01*
X72806Y-31611D01*
X72589Y-31287D01*
X72512Y-31210D01*
X72510Y-31209D01*
X72188Y-30994D01*
X72187Y-30993D01*
X72087Y-30951D01*
X71704Y-30875D01*
X71595Y-30875D01*
X71593Y-30876D01*
X71213Y-30951D01*
X71212Y-30951D01*
X71111Y-30993D01*
X70787Y-31210D01*
X70710Y-31287D01*
X70709Y-31289D01*
X70494Y-31611D01*
X70493Y-31612D01*
X70451Y-31712D01*
X70375Y-32095D01*
X70375Y-32150D01*
X70375Y-32204D01*
X70451Y-32587D01*
X70493Y-32687D01*
X70494Y-32688D01*
X70709Y-33010D01*
X70710Y-33012D01*
X70787Y-33089D01*
X71111Y-33306D01*
X71212Y-33348D01*
X71213Y-33348D01*
X71593Y-33423D01*
X71595Y-33424D01*
X71704Y-33424D01*
X72087Y-33348D01*
X72187Y-33306D01*
X72188Y-33305D01*
X72510Y-33090D01*
X72512Y-33089D01*
X72589Y-33012D01*
X72806Y-32688D01*
X72848Y-32587D01*
X72848Y-32586D01*
X72923Y-32204D01*
X72923Y-32204D01*
X72923Y-32204D01*
X72923Y-32204D01*
X72923Y-35370D01*
X72916Y-35363D01*
X72824Y-35325D01*
X72725Y-35324D01*
X72175Y-35324D01*
X72083Y-35362D01*
X72013Y-35433D01*
X71975Y-35525D01*
X71974Y-35612D01*
X71960Y-35577D01*
X71867Y-35552D01*
X71797Y-35623D01*
X71797Y-35482D01*
X71772Y-35389D01*
X71575Y-35320D01*
X71367Y-35331D01*
X71227Y-35389D01*
X71202Y-35482D01*
X71500Y-35779D01*
X71797Y-35482D01*
X71797Y-35623D01*
X71570Y-35850D01*
X71867Y-36147D01*
X71960Y-36122D01*
X71974Y-36081D01*
X71974Y-36174D01*
X72012Y-36266D01*
X72083Y-36336D01*
X72175Y-36374D01*
X72274Y-36375D01*
X72824Y-36375D01*
X72916Y-36337D01*
X72986Y-36266D01*
X73024Y-36174D01*
X73025Y-36075D01*
X73025Y-40245D01*
X72964Y-40306D01*
X72926Y-40398D01*
X72926Y-40497D01*
X72926Y-41097D01*
X72964Y-41189D01*
X73034Y-41259D01*
X73126Y-41297D01*
X73225Y-41298D01*
X73825Y-41298D01*
X73917Y-41260D01*
X73988Y-41189D01*
X74026Y-41097D01*
X74026Y-41075D01*
X74164Y-41214D01*
X74366Y-41297D01*
X74585Y-41298D01*
X74787Y-41214D01*
X74942Y-41059D01*
X75026Y-40857D01*
X75026Y-40639D01*
X75026Y-41586D01*
X74973Y-41715D01*
X74972Y-41933D01*
X75056Y-42136D01*
X75211Y-42290D01*
X75413Y-42374D01*
X75519Y-42374D01*
X75518Y-42514D01*
X75602Y-42717D01*
X75757Y-42871D01*
X75959Y-42955D01*
X76161Y-42956D01*
X76161Y-43012D01*
X76245Y-43215D01*
X76400Y-43369D01*
X76602Y-43453D01*
X76820Y-43454D01*
X77023Y-43370D01*
X77034Y-43359D01*
X77072Y-43452D01*
X77227Y-43606D01*
X77429Y-43690D01*
X77647Y-43691D01*
X77850Y-43607D01*
X78004Y-43452D01*
X78088Y-43250D01*
X78089Y-43032D01*
X78005Y-42829D01*
X77850Y-42675D01*
X77849Y-42674D01*
X77849Y-42646D01*
X78064Y-42430D01*
X78646Y-42430D01*
X78608Y-42468D01*
X78608Y-42485D01*
X78646Y-42577D01*
X78716Y-42647D01*
X78808Y-42685D01*
X78908Y-42685D01*
X78952Y-42685D01*
X79015Y-42623D01*
X79015Y-42430D01*
X79065Y-42430D01*
X79069Y-42429D01*
X79115Y-42429D01*
X79115Y-42623D01*
X79177Y-42685D01*
X79222Y-42685D01*
X79321Y-42685D01*
X79412Y-42648D01*
X79723Y-42653D01*
X79735Y-38725D01*
X79735Y-48090D01*
X78543Y-48090D01*
X78543Y-46138D01*
X78532Y-45930D01*
X78474Y-45790D01*
X78381Y-45765D01*
X78310Y-45836D01*
X78310Y-45695D01*
X78286Y-45602D01*
X78089Y-45533D01*
X78066Y-45534D01*
X78066Y-44856D01*
X77986Y-44663D01*
X77839Y-44515D01*
X77646Y-44435D01*
X77437Y-44435D01*
X77244Y-44515D01*
X77097Y-44661D01*
X77092Y-44648D01*
X76999Y-44624D01*
X76928Y-44694D01*
X76928Y-44553D01*
X76904Y-44460D01*
X76707Y-44391D01*
X76499Y-44402D01*
X76359Y-44460D01*
X76334Y-44553D01*
X76631Y-44850D01*
X76928Y-44553D01*
X76928Y-44694D01*
X76702Y-44921D01*
X76999Y-45218D01*
X77071Y-45199D01*
X77096Y-45257D01*
X77243Y-45405D01*
X77436Y-45485D01*
X77645Y-45485D01*
X77838Y-45405D01*
X77986Y-45258D01*
X78066Y-45065D01*
X78066Y-44856D01*
X78066Y-45534D01*
X77881Y-45544D01*
X77740Y-45602D01*
X77716Y-45695D01*
X78013Y-45992D01*
X78310Y-45695D01*
X78310Y-45836D01*
X78084Y-46062D01*
X78381Y-46360D01*
X78474Y-46335D01*
X78543Y-46138D01*
X78543Y-48090D01*
X78310Y-48090D01*
X78310Y-46430D01*
X78013Y-46133D01*
X77943Y-46204D01*
X77943Y-46062D01*
X77645Y-45765D01*
X77553Y-45790D01*
X77483Y-45987D01*
X77495Y-46195D01*
X77553Y-46335D01*
X77645Y-46360D01*
X77943Y-46062D01*
X77943Y-46204D01*
X77716Y-46430D01*
X77740Y-46523D01*
X77937Y-46592D01*
X78146Y-46581D01*
X78286Y-46523D01*
X78310Y-46430D01*
X78310Y-48090D01*
X76928Y-48090D01*
X76928Y-45289D01*
X76631Y-44991D01*
X76561Y-45062D01*
X76561Y-44921D01*
X76264Y-44624D01*
X76171Y-44648D01*
X76101Y-44845D01*
X76113Y-45054D01*
X76171Y-45194D01*
X76264Y-45218D01*
X76561Y-44921D01*
X76561Y-45062D01*
X76334Y-45289D01*
X76359Y-45381D01*
X76556Y-45451D01*
X76764Y-45439D01*
X76904Y-45381D01*
X76928Y-45289D01*
X76928Y-48090D01*
X75105Y-48090D01*
X75105Y-43281D01*
X75105Y-42681D01*
X75067Y-42590D01*
X74996Y-42519D01*
X74905Y-42481D01*
X74805Y-42481D01*
X74205Y-42481D01*
X74113Y-42519D01*
X74043Y-42589D01*
X74005Y-42681D01*
X74005Y-42703D01*
X73867Y-42565D01*
X73664Y-42481D01*
X73446Y-42481D01*
X73243Y-42564D01*
X73089Y-42719D01*
X73005Y-42921D01*
X73005Y-43140D01*
X73088Y-43342D01*
X73243Y-43497D01*
X73445Y-43581D01*
X73664Y-43581D01*
X73866Y-43498D01*
X74005Y-43359D01*
X74005Y-43381D01*
X74043Y-43472D01*
X74113Y-43543D01*
X74205Y-43581D01*
X74304Y-43581D01*
X74904Y-43581D01*
X74996Y-43543D01*
X75066Y-43473D01*
X75105Y-43381D01*
X75105Y-43281D01*
X75105Y-48090D01*
X73656Y-48090D01*
X73656Y-44817D01*
X73577Y-44624D01*
X73429Y-44476D01*
X73236Y-44396D01*
X73027Y-44396D01*
X72834Y-44475D01*
X72687Y-44623D01*
X72655Y-44698D01*
X72655Y-38168D01*
X72644Y-37959D01*
X72586Y-37819D01*
X72493Y-37795D01*
X72423Y-37866D01*
X72423Y-37724D01*
X72398Y-37631D01*
X72201Y-37562D01*
X71993Y-37573D01*
X71853Y-37631D01*
X71828Y-37724D01*
X72125Y-38021D01*
X72423Y-37724D01*
X72423Y-37866D01*
X72196Y-38092D01*
X72493Y-38389D01*
X72586Y-38365D01*
X72655Y-38168D01*
X72655Y-44698D01*
X72651Y-44710D01*
X72651Y-41488D01*
X72571Y-41295D01*
X72423Y-41147D01*
X72423Y-41147D01*
X72423Y-38460D01*
X72125Y-38163D01*
X72055Y-38233D01*
X72055Y-38092D01*
X71797Y-37834D01*
X71797Y-36217D01*
X71500Y-35920D01*
X71429Y-35991D01*
X71429Y-35850D01*
X71132Y-35552D01*
X71039Y-35577D01*
X70970Y-35774D01*
X70981Y-35982D01*
X71039Y-36122D01*
X71132Y-36147D01*
X71429Y-35850D01*
X71429Y-35991D01*
X71202Y-36217D01*
X71227Y-36310D01*
X71424Y-36379D01*
X71632Y-36368D01*
X71772Y-36310D01*
X71797Y-36217D01*
X71797Y-37834D01*
X71758Y-37795D01*
X71665Y-37819D01*
X71596Y-38016D01*
X71607Y-38225D01*
X71665Y-38365D01*
X71758Y-38389D01*
X72055Y-38092D01*
X72055Y-38233D01*
X71828Y-38460D01*
X71853Y-38553D01*
X72050Y-38622D01*
X72258Y-38611D01*
X72398Y-38553D01*
X72423Y-38460D01*
X72423Y-41147D01*
X72230Y-41067D01*
X72022Y-41067D01*
X71828Y-41147D01*
X71681Y-41294D01*
X71601Y-41487D01*
X71600Y-41696D01*
X71680Y-41889D01*
X71828Y-42037D01*
X72021Y-42117D01*
X72229Y-42117D01*
X72422Y-42037D01*
X72570Y-41890D01*
X72650Y-41697D01*
X72651Y-41488D01*
X72651Y-44710D01*
X72606Y-44816D01*
X72606Y-45025D01*
X72686Y-45218D01*
X72834Y-45366D01*
X73027Y-45446D01*
X73235Y-45446D01*
X73428Y-45366D01*
X73576Y-45219D01*
X73656Y-45026D01*
X73656Y-44817D01*
X73656Y-48090D01*
X73123Y-48090D01*
X73123Y-46554D01*
X73123Y-46500D01*
X73123Y-46445D01*
X73123Y-46445D01*
X73123Y-46445D01*
X73123Y-46445D01*
X73048Y-46063D01*
X73048Y-46062D01*
X73006Y-45961D01*
X72789Y-45637D01*
X72712Y-45560D01*
X72710Y-45559D01*
X72388Y-45344D01*
X72387Y-45343D01*
X72287Y-45301D01*
X71904Y-45225D01*
X71795Y-45225D01*
X71793Y-45226D01*
X71413Y-45301D01*
X71412Y-45301D01*
X71311Y-45343D01*
X70987Y-45560D01*
X70910Y-45637D01*
X70909Y-45639D01*
X70694Y-45961D01*
X70693Y-45962D01*
X70651Y-46062D01*
X70575Y-46445D01*
X70575Y-46500D01*
X70575Y-46554D01*
X70651Y-46937D01*
X70693Y-47037D01*
X70694Y-47038D01*
X70909Y-47360D01*
X70910Y-47362D01*
X70987Y-47439D01*
X71311Y-47656D01*
X71412Y-47698D01*
X71413Y-47698D01*
X71793Y-47773D01*
X71795Y-47774D01*
X71904Y-47774D01*
X72287Y-47698D01*
X72387Y-47656D01*
X72388Y-47655D01*
X72710Y-47440D01*
X72712Y-47439D01*
X72789Y-47362D01*
X73006Y-47038D01*
X73048Y-46937D01*
X73048Y-46936D01*
X73123Y-46554D01*
X73123Y-46554D01*
X73123Y-46554D01*
X73123Y-46554D01*
X73123Y-48090D01*
X70320Y-48090D01*
X70261Y-43519D01*
X70266Y-43519D01*
X70293Y-30732D01*
X93606Y-30732D01*
X93606Y-48090D01*
X93606Y-48090D01*
G37*
G54D21*
X93606Y-48090D02*
X93373Y-48090D01*
X93373Y-46704D01*
X93373Y-46650D01*
X93373Y-46595D01*
X93373Y-46595D01*
X93373Y-46595D01*
X93373Y-46595D01*
X93298Y-46213D01*
X93298Y-46212D01*
X93256Y-46111D01*
X93039Y-45787D01*
X92973Y-45721D01*
X92973Y-32754D01*
X92973Y-32700D01*
X92973Y-32645D01*
X92973Y-32645D01*
X92973Y-32645D01*
X92973Y-32645D01*
X92898Y-32263D01*
X92898Y-32262D01*
X92856Y-32161D01*
X92639Y-31837D01*
X92562Y-31760D01*
X92560Y-31759D01*
X92238Y-31544D01*
X92237Y-31543D01*
X92137Y-31501D01*
X91754Y-31425D01*
X91645Y-31425D01*
X91643Y-31426D01*
X91263Y-31501D01*
X91262Y-31501D01*
X91161Y-31543D01*
X90837Y-31760D01*
X90760Y-31837D01*
X90759Y-31839D01*
X90544Y-32161D01*
X90543Y-32162D01*
X90501Y-32262D01*
X90425Y-32645D01*
X90425Y-32700D01*
X90425Y-32754D01*
X90501Y-33137D01*
X90543Y-33237D01*
X90544Y-33238D01*
X90759Y-33560D01*
X90760Y-33562D01*
X90837Y-33639D01*
X91161Y-33856D01*
X91262Y-33898D01*
X91263Y-33898D01*
X91643Y-33973D01*
X91645Y-33974D01*
X91754Y-33974D01*
X92137Y-33898D01*
X92237Y-33856D01*
X92238Y-33855D01*
X92560Y-33640D01*
X92562Y-33639D01*
X92639Y-33562D01*
X92856Y-33238D01*
X92898Y-33137D01*
X92898Y-33136D01*
X92973Y-32754D01*
X92973Y-32754D01*
X92973Y-32754D01*
X92973Y-32754D01*
X92973Y-45721D01*
X92962Y-45710D01*
X92960Y-45709D01*
X92638Y-45494D01*
X92637Y-45493D01*
X92537Y-45451D01*
X92154Y-45375D01*
X92045Y-45375D01*
X92043Y-45376D01*
X91663Y-45451D01*
X91662Y-45451D01*
X91643Y-45459D01*
X91643Y-42629D01*
X91554Y-42415D01*
X91391Y-42252D01*
X91371Y-42244D01*
X91391Y-42236D01*
X91554Y-42073D01*
X91642Y-41859D01*
X91643Y-41629D01*
X91554Y-41415D01*
X91391Y-41252D01*
X91178Y-41164D01*
X90948Y-41163D01*
X90857Y-41201D01*
X90857Y-39738D01*
X90778Y-39545D01*
X90630Y-39397D01*
X90437Y-39317D01*
X90228Y-39317D01*
X90035Y-39397D01*
X89887Y-39544D01*
X89807Y-39737D01*
X89807Y-39946D01*
X89887Y-40139D01*
X90034Y-40287D01*
X90227Y-40367D01*
X90436Y-40367D01*
X90629Y-40287D01*
X90777Y-40140D01*
X90857Y-39947D01*
X90857Y-39738D01*
X90857Y-41201D01*
X90734Y-41252D01*
X90571Y-41415D01*
X90483Y-41628D01*
X90482Y-41858D01*
X90571Y-42072D01*
X90734Y-42235D01*
X90754Y-42244D01*
X90734Y-42252D01*
X90571Y-42415D01*
X90483Y-42628D01*
X90482Y-42858D01*
X90571Y-43072D01*
X90734Y-43235D01*
X90947Y-43323D01*
X91177Y-43324D01*
X91391Y-43236D01*
X91554Y-43073D01*
X91642Y-42859D01*
X91643Y-42629D01*
X91643Y-45459D01*
X91566Y-45491D01*
X91566Y-44817D01*
X91486Y-44624D01*
X91339Y-44476D01*
X91146Y-44396D01*
X90937Y-44396D01*
X90744Y-44475D01*
X90596Y-44623D01*
X90516Y-44816D01*
X90516Y-45025D01*
X90596Y-45218D01*
X90743Y-45366D01*
X90936Y-45446D01*
X91145Y-45446D01*
X91338Y-45366D01*
X91486Y-45219D01*
X91566Y-45026D01*
X91566Y-44817D01*
X91566Y-45491D01*
X91561Y-45493D01*
X91237Y-45710D01*
X91160Y-45787D01*
X91159Y-45789D01*
X90944Y-46111D01*
X90943Y-46112D01*
X90901Y-46212D01*
X90825Y-46595D01*
X90825Y-46650D01*
X90825Y-46704D01*
X90901Y-47087D01*
X90943Y-47187D01*
X90944Y-47188D01*
X91159Y-47510D01*
X91160Y-47512D01*
X91237Y-47589D01*
X91561Y-47806D01*
X91662Y-47848D01*
X91663Y-47848D01*
X92043Y-47923D01*
X92045Y-47924D01*
X92154Y-47924D01*
X92537Y-47848D01*
X92637Y-47806D01*
X92638Y-47805D01*
X92960Y-47590D01*
X92962Y-47589D01*
X93039Y-47512D01*
X93256Y-47188D01*
X93298Y-47087D01*
X93298Y-47086D01*
X93373Y-46704D01*
X93373Y-46704D01*
X93373Y-46704D01*
X93373Y-46704D01*
X93373Y-48090D01*
X89597Y-48090D01*
X89597Y-38596D01*
X89554Y-38492D01*
X89554Y-33381D01*
X89550Y-33287D01*
X89550Y-32550D01*
X89550Y-31950D01*
X89512Y-31858D01*
X89441Y-31788D01*
X89349Y-31750D01*
X89250Y-31749D01*
X88650Y-31749D01*
X88558Y-31787D01*
X88488Y-31858D01*
X88450Y-31950D01*
X88449Y-32049D01*
X88449Y-32649D01*
X88487Y-32741D01*
X88558Y-32811D01*
X88650Y-32849D01*
X88703Y-32850D01*
X88684Y-32914D01*
X89000Y-33229D01*
X89315Y-32914D01*
X89296Y-32850D01*
X89349Y-32850D01*
X89441Y-32812D01*
X89511Y-32741D01*
X89549Y-32649D01*
X89550Y-32550D01*
X89550Y-33287D01*
X89543Y-33163D01*
X89481Y-33012D01*
X89385Y-32984D01*
X89070Y-33300D01*
X89385Y-33615D01*
X89481Y-33587D01*
X89554Y-33381D01*
X89554Y-38492D01*
X89518Y-38403D01*
X89370Y-38255D01*
X89315Y-38232D01*
X89315Y-33685D01*
X89000Y-33370D01*
X88929Y-33441D01*
X88929Y-33300D01*
X88614Y-32984D01*
X88518Y-33012D01*
X88445Y-33218D01*
X88456Y-33436D01*
X88518Y-33587D01*
X88614Y-33615D01*
X88929Y-33300D01*
X88929Y-33441D01*
X88684Y-33685D01*
X88712Y-33781D01*
X88918Y-33854D01*
X89136Y-33843D01*
X89287Y-33781D01*
X89315Y-33685D01*
X89315Y-38232D01*
X89177Y-38175D01*
X88968Y-38175D01*
X88849Y-38224D01*
X88849Y-37218D01*
X88770Y-37025D01*
X88622Y-36878D01*
X88429Y-36797D01*
X88278Y-36797D01*
X88278Y-35950D01*
X88194Y-35747D01*
X88056Y-35609D01*
X88078Y-35609D01*
X88170Y-35570D01*
X88240Y-35500D01*
X88278Y-35408D01*
X88278Y-34709D01*
X88240Y-34617D01*
X88170Y-34547D01*
X88078Y-34509D01*
X87978Y-34509D01*
X87840Y-34509D01*
X87778Y-34571D01*
X87778Y-35009D01*
X88215Y-35009D01*
X88278Y-34946D01*
X88278Y-34709D01*
X88278Y-35408D01*
X88278Y-35171D01*
X88215Y-35109D01*
X87778Y-35109D01*
X87778Y-35116D01*
X87678Y-35116D01*
X87678Y-35109D01*
X87678Y-35009D01*
X87678Y-34571D01*
X87615Y-34509D01*
X87477Y-34509D01*
X87378Y-34509D01*
X87286Y-34547D01*
X87216Y-34617D01*
X87178Y-34709D01*
X87178Y-34946D01*
X87240Y-35009D01*
X87678Y-35009D01*
X87678Y-35109D01*
X87240Y-35109D01*
X87178Y-35171D01*
X87178Y-35408D01*
X87216Y-35500D01*
X87286Y-35570D01*
X87378Y-35609D01*
X87400Y-35609D01*
X87262Y-35747D01*
X87178Y-35949D01*
X87178Y-36167D01*
X87261Y-36370D01*
X87416Y-36525D01*
X87618Y-36608D01*
X87837Y-36609D01*
X88039Y-36525D01*
X88194Y-36371D01*
X88278Y-36168D01*
X88278Y-35950D01*
X88278Y-36797D01*
X88220Y-36797D01*
X88027Y-36877D01*
X87879Y-37025D01*
X87799Y-37217D01*
X87799Y-37426D01*
X87879Y-37619D01*
X88027Y-37767D01*
X88219Y-37847D01*
X88428Y-37847D01*
X88621Y-37768D01*
X88769Y-37620D01*
X88849Y-37427D01*
X88849Y-37218D01*
X88849Y-38224D01*
X88775Y-38255D01*
X88628Y-38403D01*
X88547Y-38595D01*
X88547Y-38804D01*
X88627Y-38997D01*
X88775Y-39145D01*
X88967Y-39225D01*
X89176Y-39225D01*
X89369Y-39146D01*
X89517Y-38998D01*
X89597Y-38805D01*
X89597Y-38596D01*
X89597Y-48090D01*
X89081Y-48090D01*
X89081Y-43332D01*
X88998Y-43129D01*
X88843Y-42974D01*
X88761Y-42940D01*
X88842Y-42907D01*
X88997Y-42752D01*
X89081Y-42550D01*
X89081Y-42332D01*
X88998Y-42129D01*
X88843Y-41974D01*
X88761Y-41940D01*
X88842Y-41907D01*
X88997Y-41752D01*
X89081Y-41550D01*
X89081Y-41332D01*
X88998Y-41129D01*
X88843Y-40974D01*
X88641Y-40891D01*
X88422Y-40890D01*
X88220Y-40974D01*
X88081Y-41112D01*
X88081Y-41091D01*
X88043Y-40999D01*
X87973Y-40929D01*
X87881Y-40890D01*
X87781Y-40890D01*
X87357Y-40890D01*
X87357Y-39738D01*
X87278Y-39545D01*
X87130Y-39397D01*
X86937Y-39317D01*
X86778Y-39317D01*
X86778Y-35950D01*
X86694Y-35747D01*
X86556Y-35609D01*
X86578Y-35609D01*
X86670Y-35570D01*
X86740Y-35500D01*
X86778Y-35408D01*
X86778Y-34709D01*
X86740Y-34617D01*
X86670Y-34547D01*
X86578Y-34509D01*
X86478Y-34509D01*
X86340Y-34509D01*
X86278Y-34571D01*
X86278Y-35009D01*
X86715Y-35009D01*
X86778Y-34946D01*
X86778Y-34709D01*
X86778Y-35408D01*
X86778Y-35171D01*
X86715Y-35109D01*
X86278Y-35109D01*
X86278Y-35116D01*
X86204Y-35116D01*
X86204Y-33331D01*
X86200Y-33237D01*
X86200Y-32500D01*
X86200Y-31900D01*
X86162Y-31808D01*
X86091Y-31738D01*
X85999Y-31700D01*
X85900Y-31699D01*
X85300Y-31699D01*
X85208Y-31737D01*
X85138Y-31808D01*
X85100Y-31900D01*
X85099Y-31999D01*
X85099Y-32599D01*
X85137Y-32691D01*
X85208Y-32761D01*
X85300Y-32799D01*
X85353Y-32800D01*
X85334Y-32864D01*
X85650Y-33179D01*
X85965Y-32864D01*
X85946Y-32800D01*
X85999Y-32800D01*
X86091Y-32762D01*
X86161Y-32691D01*
X86199Y-32599D01*
X86200Y-32500D01*
X86200Y-33237D01*
X86193Y-33113D01*
X86131Y-32962D01*
X86035Y-32934D01*
X85720Y-33250D01*
X86035Y-33565D01*
X86131Y-33537D01*
X86204Y-33331D01*
X86204Y-35116D01*
X86178Y-35116D01*
X86178Y-35109D01*
X86178Y-35009D01*
X86178Y-34571D01*
X86115Y-34509D01*
X85977Y-34509D01*
X85965Y-34509D01*
X85965Y-33635D01*
X85650Y-33320D01*
X85579Y-33391D01*
X85579Y-33250D01*
X85264Y-32934D01*
X85168Y-32962D01*
X85095Y-33168D01*
X85106Y-33386D01*
X85168Y-33537D01*
X85264Y-33565D01*
X85579Y-33250D01*
X85579Y-33391D01*
X85334Y-33635D01*
X85362Y-33731D01*
X85568Y-33804D01*
X85786Y-33793D01*
X85937Y-33731D01*
X85965Y-33635D01*
X85965Y-34509D01*
X85878Y-34509D01*
X85786Y-34547D01*
X85716Y-34617D01*
X85678Y-34709D01*
X85678Y-34946D01*
X85740Y-35009D01*
X86178Y-35009D01*
X86178Y-35109D01*
X85740Y-35109D01*
X85678Y-35171D01*
X85678Y-35408D01*
X85716Y-35500D01*
X85786Y-35570D01*
X85878Y-35609D01*
X85900Y-35609D01*
X85762Y-35747D01*
X85678Y-35949D01*
X85678Y-36167D01*
X85761Y-36370D01*
X85916Y-36525D01*
X86118Y-36608D01*
X86337Y-36609D01*
X86539Y-36525D01*
X86694Y-36371D01*
X86778Y-36168D01*
X86778Y-35950D01*
X86778Y-39317D01*
X86728Y-39317D01*
X86535Y-39397D01*
X86387Y-39544D01*
X86307Y-39737D01*
X86307Y-39946D01*
X86387Y-40139D01*
X86534Y-40287D01*
X86727Y-40367D01*
X86936Y-40367D01*
X87129Y-40287D01*
X87277Y-40140D01*
X87357Y-39947D01*
X87357Y-39738D01*
X87357Y-40890D01*
X87181Y-40890D01*
X87090Y-40928D01*
X87019Y-40999D01*
X86981Y-41090D01*
X86981Y-41190D01*
X86981Y-41790D01*
X87019Y-41882D01*
X87089Y-41952D01*
X87181Y-41990D01*
X87203Y-41990D01*
X87065Y-42128D01*
X86981Y-42331D01*
X86981Y-42549D01*
X87064Y-42752D01*
X87219Y-42906D01*
X87301Y-42940D01*
X87220Y-42974D01*
X87065Y-43128D01*
X86981Y-43331D01*
X86981Y-43549D01*
X87064Y-43752D01*
X87219Y-43906D01*
X87421Y-43990D01*
X87640Y-43991D01*
X87842Y-43907D01*
X87997Y-43752D01*
X88031Y-43671D01*
X88064Y-43752D01*
X88219Y-43906D01*
X88421Y-43990D01*
X88640Y-43991D01*
X88842Y-43907D01*
X88997Y-43752D01*
X89081Y-43550D01*
X89081Y-43332D01*
X89081Y-48090D01*
X88865Y-48090D01*
X88865Y-48009D01*
X88865Y-46446D01*
X88066Y-46446D01*
X88066Y-44817D01*
X87986Y-44624D01*
X87839Y-44476D01*
X87646Y-44396D01*
X87437Y-44396D01*
X87244Y-44475D01*
X87096Y-44623D01*
X87016Y-44816D01*
X87016Y-45025D01*
X87096Y-45218D01*
X87243Y-45366D01*
X87436Y-45446D01*
X87645Y-45446D01*
X87838Y-45366D01*
X87986Y-45219D01*
X88066Y-45026D01*
X88066Y-44817D01*
X88066Y-46446D01*
X86097Y-46446D01*
X86097Y-38596D01*
X86018Y-38403D01*
X85870Y-38255D01*
X85677Y-38175D01*
X85468Y-38175D01*
X85349Y-38224D01*
X85349Y-37218D01*
X85278Y-37045D01*
X85278Y-35950D01*
X85194Y-35747D01*
X85056Y-35609D01*
X85078Y-35609D01*
X85170Y-35570D01*
X85240Y-35500D01*
X85278Y-35408D01*
X85278Y-34709D01*
X85240Y-34617D01*
X85170Y-34547D01*
X85078Y-34509D01*
X84978Y-34509D01*
X84840Y-34509D01*
X84778Y-34571D01*
X84778Y-35009D01*
X85215Y-35009D01*
X85278Y-34946D01*
X85278Y-34709D01*
X85278Y-35408D01*
X85278Y-35171D01*
X85215Y-35109D01*
X84778Y-35109D01*
X84778Y-35116D01*
X84678Y-35116D01*
X84678Y-35109D01*
X84678Y-35009D01*
X84678Y-34571D01*
X84615Y-34509D01*
X84477Y-34509D01*
X84378Y-34509D01*
X84286Y-34547D01*
X84216Y-34617D01*
X84178Y-34709D01*
X84178Y-34946D01*
X84240Y-35009D01*
X84678Y-35009D01*
X84678Y-35109D01*
X84240Y-35109D01*
X84178Y-35171D01*
X84178Y-35408D01*
X84216Y-35500D01*
X84286Y-35570D01*
X84378Y-35609D01*
X84400Y-35609D01*
X84262Y-35747D01*
X84178Y-35949D01*
X84178Y-36167D01*
X84261Y-36370D01*
X84416Y-36525D01*
X84618Y-36608D01*
X84837Y-36609D01*
X85039Y-36525D01*
X85194Y-36371D01*
X85278Y-36168D01*
X85278Y-35950D01*
X85278Y-37045D01*
X85270Y-37025D01*
X85122Y-36878D01*
X84929Y-36797D01*
X84720Y-36797D01*
X84527Y-36877D01*
X84379Y-37025D01*
X84299Y-37217D01*
X84299Y-37426D01*
X84379Y-37619D01*
X84527Y-37767D01*
X84719Y-37847D01*
X84928Y-37847D01*
X85121Y-37768D01*
X85269Y-37620D01*
X85349Y-37427D01*
X85349Y-37218D01*
X85349Y-38224D01*
X85275Y-38255D01*
X85128Y-38403D01*
X85047Y-38595D01*
X85047Y-38804D01*
X85127Y-38997D01*
X85275Y-39145D01*
X85467Y-39225D01*
X85676Y-39225D01*
X85869Y-39146D01*
X86017Y-38998D01*
X86097Y-38805D01*
X86097Y-38596D01*
X86097Y-46446D01*
X85411Y-46446D01*
X85411Y-43109D01*
X85327Y-42906D01*
X85172Y-42752D01*
X84970Y-42668D01*
X84752Y-42667D01*
X84750Y-42668D01*
X84324Y-42242D01*
X84249Y-42192D01*
X84297Y-42143D01*
X84381Y-41941D01*
X84381Y-41904D01*
X84520Y-41961D01*
X84738Y-41962D01*
X84941Y-41878D01*
X85095Y-41723D01*
X85179Y-41521D01*
X85180Y-41303D01*
X85096Y-41100D01*
X84941Y-40946D01*
X84780Y-40879D01*
X84825Y-40879D01*
X85028Y-40795D01*
X85182Y-40640D01*
X85266Y-40438D01*
X85267Y-40220D01*
X85183Y-40017D01*
X85119Y-39953D01*
X85209Y-39862D01*
X85293Y-39660D01*
X85294Y-39442D01*
X85210Y-39239D01*
X85055Y-39085D01*
X84853Y-39001D01*
X84741Y-39000D01*
X84741Y-38933D01*
X84657Y-38730D01*
X84502Y-38576D01*
X84300Y-38492D01*
X84082Y-38491D01*
X83997Y-38526D01*
X83959Y-38433D01*
X83804Y-38279D01*
X83602Y-38195D01*
X83476Y-38194D01*
X83476Y-38087D01*
X83392Y-37884D01*
X83254Y-37746D01*
X83254Y-33331D01*
X83250Y-33237D01*
X83250Y-32500D01*
X83250Y-31900D01*
X83212Y-31808D01*
X83141Y-31738D01*
X83049Y-31700D01*
X82950Y-31699D01*
X82350Y-31699D01*
X82258Y-31737D01*
X82188Y-31808D01*
X82150Y-31900D01*
X82149Y-31999D01*
X82149Y-32599D01*
X82187Y-32691D01*
X82258Y-32761D01*
X82350Y-32799D01*
X82403Y-32800D01*
X82384Y-32864D01*
X82700Y-33179D01*
X83015Y-32864D01*
X82996Y-32800D01*
X83049Y-32800D01*
X83141Y-32762D01*
X83211Y-32691D01*
X83249Y-32599D01*
X83250Y-32500D01*
X83250Y-33237D01*
X83243Y-33113D01*
X83181Y-32962D01*
X83085Y-32934D01*
X82770Y-33250D01*
X83085Y-33565D01*
X83181Y-33537D01*
X83254Y-33331D01*
X83254Y-37746D01*
X83237Y-37730D01*
X83035Y-37646D01*
X83015Y-37646D01*
X83015Y-33635D01*
X82700Y-33320D01*
X82629Y-33391D01*
X82629Y-33250D01*
X82314Y-32934D01*
X82218Y-32962D01*
X82145Y-33168D01*
X82156Y-33386D01*
X82218Y-33537D01*
X82314Y-33565D01*
X82629Y-33250D01*
X82629Y-33391D01*
X82384Y-33635D01*
X82412Y-33731D01*
X82618Y-33804D01*
X82836Y-33793D01*
X82987Y-33731D01*
X83015Y-33635D01*
X83015Y-37646D01*
X82817Y-37645D01*
X82614Y-37729D01*
X82460Y-37884D01*
X82376Y-38086D01*
X82375Y-38304D01*
X82459Y-38507D01*
X82576Y-38624D01*
X82204Y-38995D01*
X81953Y-38995D01*
X81991Y-38957D01*
X81991Y-38941D01*
X81953Y-38849D01*
X81883Y-38779D01*
X81791Y-38740D01*
X81691Y-38740D01*
X81647Y-38740D01*
X81584Y-38803D01*
X81584Y-38995D01*
X81534Y-38995D01*
X81530Y-38996D01*
X81484Y-38996D01*
X81484Y-38803D01*
X81479Y-38798D01*
X81479Y-33175D01*
X81468Y-32967D01*
X81410Y-32827D01*
X81317Y-32802D01*
X81247Y-32873D01*
X81247Y-32732D01*
X81222Y-32639D01*
X81025Y-32570D01*
X80817Y-32581D01*
X80677Y-32639D01*
X80652Y-32732D01*
X80950Y-33029D01*
X81247Y-32732D01*
X81247Y-32873D01*
X81020Y-33100D01*
X81317Y-33397D01*
X81410Y-33372D01*
X81479Y-33175D01*
X81479Y-38798D01*
X81422Y-38740D01*
X81377Y-38740D01*
X81278Y-38740D01*
X81247Y-38753D01*
X81247Y-33467D01*
X80950Y-33170D01*
X80879Y-33241D01*
X80879Y-33100D01*
X80582Y-32802D01*
X80489Y-32827D01*
X80475Y-32868D01*
X80475Y-32775D01*
X80437Y-32683D01*
X80366Y-32613D01*
X80274Y-32575D01*
X80175Y-32574D01*
X79625Y-32574D01*
X79533Y-32612D01*
X79463Y-32683D01*
X79425Y-32775D01*
X79424Y-32874D01*
X79424Y-33424D01*
X79462Y-33516D01*
X79533Y-33586D01*
X79625Y-33624D01*
X79724Y-33625D01*
X80274Y-33625D01*
X80366Y-33587D01*
X80436Y-33516D01*
X80474Y-33424D01*
X80475Y-33337D01*
X80489Y-33372D01*
X80582Y-33397D01*
X80879Y-33100D01*
X80879Y-33241D01*
X80652Y-33467D01*
X80677Y-33560D01*
X80874Y-33629D01*
X81082Y-33618D01*
X81222Y-33560D01*
X81247Y-33467D01*
X81247Y-38753D01*
X81186Y-38779D01*
X81157Y-38808D01*
X80792Y-38808D01*
X80772Y-42624D01*
X81163Y-42624D01*
X81186Y-42647D01*
X81278Y-42685D01*
X81377Y-42685D01*
X81530Y-42685D01*
X81534Y-42686D01*
X82246Y-42686D01*
X82245Y-42867D01*
X82329Y-43070D01*
X82484Y-43224D01*
X82686Y-43308D01*
X82904Y-43309D01*
X83107Y-43225D01*
X83110Y-43222D01*
X83157Y-43336D01*
X83312Y-43490D01*
X83514Y-43574D01*
X83732Y-43575D01*
X83935Y-43491D01*
X84089Y-43336D01*
X84173Y-43134D01*
X84174Y-42969D01*
X84311Y-43106D01*
X84311Y-43108D01*
X84310Y-43326D01*
X84394Y-43529D01*
X84549Y-43683D01*
X84751Y-43767D01*
X84969Y-43768D01*
X85172Y-43684D01*
X85326Y-43529D01*
X85410Y-43327D01*
X85411Y-43109D01*
X85411Y-46446D01*
X83750Y-46446D01*
X83750Y-44784D01*
X83739Y-44575D01*
X83681Y-44435D01*
X83588Y-44411D01*
X83517Y-44482D01*
X83517Y-44340D01*
X83493Y-44248D01*
X83296Y-44178D01*
X83087Y-44190D01*
X82947Y-44248D01*
X82923Y-44340D01*
X83220Y-44637D01*
X83517Y-44340D01*
X83517Y-44482D01*
X83291Y-44708D01*
X83588Y-45005D01*
X83681Y-44981D01*
X83750Y-44784D01*
X83750Y-46446D01*
X83517Y-46446D01*
X83517Y-45076D01*
X83220Y-44779D01*
X83149Y-44850D01*
X83149Y-44708D01*
X82852Y-44411D01*
X82759Y-44435D01*
X82721Y-44545D01*
X82665Y-44411D01*
X82518Y-44263D01*
X82325Y-44183D01*
X82116Y-44183D01*
X81923Y-44263D01*
X81775Y-44410D01*
X81695Y-44603D01*
X81695Y-44812D01*
X81775Y-45005D01*
X81922Y-45153D01*
X82115Y-45233D01*
X82324Y-45233D01*
X82517Y-45153D01*
X82665Y-45006D01*
X82717Y-44879D01*
X82759Y-44981D01*
X82852Y-45005D01*
X83149Y-44708D01*
X83149Y-44850D01*
X82923Y-45076D01*
X82947Y-45169D01*
X83144Y-45238D01*
X83353Y-45227D01*
X83493Y-45169D01*
X83517Y-45076D01*
X83517Y-46446D01*
X83410Y-46446D01*
X83410Y-48009D01*
X88865Y-48009D01*
X88865Y-48090D01*
X82038Y-48090D01*
X82038Y-45959D01*
X81959Y-45765D01*
X81811Y-45618D01*
X81618Y-45538D01*
X81566Y-45538D01*
X81566Y-44856D01*
X81486Y-44663D01*
X81339Y-44515D01*
X81146Y-44435D01*
X80937Y-44435D01*
X80744Y-44515D01*
X80596Y-44662D01*
X80516Y-44855D01*
X80516Y-45064D01*
X80596Y-45257D01*
X80743Y-45405D01*
X80936Y-45485D01*
X81145Y-45485D01*
X81338Y-45405D01*
X81486Y-45258D01*
X81566Y-45065D01*
X81566Y-44856D01*
X81566Y-45538D01*
X81409Y-45537D01*
X81216Y-45617D01*
X81068Y-45765D01*
X80988Y-45958D01*
X80988Y-46166D01*
X81068Y-46359D01*
X81216Y-46507D01*
X81408Y-46587D01*
X81617Y-46588D01*
X81810Y-46508D01*
X81958Y-46360D01*
X82038Y-46167D01*
X82038Y-45959D01*
X82038Y-48090D01*
X79735Y-48090D01*
X79735Y-38725D01*
X79681Y-38725D01*
X79387Y-38725D01*
X79387Y-38767D01*
X79321Y-38740D01*
X79279Y-38740D01*
X79279Y-35175D01*
X79275Y-35087D01*
X79275Y-33996D01*
X79195Y-33803D01*
X79047Y-33655D01*
X78854Y-33575D01*
X78650Y-33574D01*
X78650Y-32031D01*
X78558Y-31810D01*
X78390Y-31641D01*
X78169Y-31550D01*
X77931Y-31549D01*
X77710Y-31641D01*
X77635Y-31715D01*
X77612Y-31658D01*
X77541Y-31588D01*
X77449Y-31550D01*
X77350Y-31549D01*
X77162Y-31550D01*
X77100Y-31612D01*
X77100Y-32100D01*
X77107Y-32100D01*
X77107Y-32200D01*
X77100Y-32200D01*
X77100Y-32687D01*
X77162Y-32750D01*
X77350Y-32750D01*
X77449Y-32749D01*
X77541Y-32711D01*
X77612Y-32641D01*
X77635Y-32584D01*
X77709Y-32658D01*
X77930Y-32749D01*
X78168Y-32750D01*
X78389Y-32658D01*
X78558Y-32490D01*
X78649Y-32269D01*
X78650Y-32031D01*
X78650Y-33574D01*
X78646Y-33574D01*
X78453Y-33654D01*
X78305Y-33802D01*
X78225Y-33995D01*
X78224Y-34203D01*
X78304Y-34397D01*
X78452Y-34544D01*
X78578Y-34597D01*
X78477Y-34639D01*
X78452Y-34732D01*
X78750Y-35029D01*
X79047Y-34732D01*
X79022Y-34639D01*
X78912Y-34600D01*
X79047Y-34545D01*
X79194Y-34397D01*
X79274Y-34204D01*
X79275Y-33996D01*
X79275Y-35087D01*
X79268Y-34967D01*
X79210Y-34827D01*
X79117Y-34802D01*
X78820Y-35100D01*
X79117Y-35397D01*
X79210Y-35372D01*
X79279Y-35175D01*
X79279Y-38740D01*
X79222Y-38740D01*
X79069Y-38740D01*
X79065Y-38740D01*
X79010Y-38740D01*
X79062Y-38687D01*
X79146Y-38485D01*
X79147Y-38267D01*
X79103Y-38162D01*
X79103Y-36494D01*
X79047Y-36357D01*
X79047Y-35467D01*
X78750Y-35170D01*
X78679Y-35241D01*
X78679Y-35100D01*
X78382Y-34802D01*
X78289Y-34827D01*
X78220Y-35024D01*
X78231Y-35232D01*
X78289Y-35372D01*
X78382Y-35397D01*
X78679Y-35100D01*
X78679Y-35241D01*
X78452Y-35467D01*
X78477Y-35560D01*
X78674Y-35629D01*
X78882Y-35618D01*
X79022Y-35560D01*
X79047Y-35467D01*
X79047Y-36357D01*
X79024Y-36301D01*
X78876Y-36153D01*
X78683Y-36073D01*
X78474Y-36073D01*
X78281Y-36153D01*
X78133Y-36300D01*
X78078Y-36433D01*
X78024Y-36301D01*
X77876Y-36153D01*
X77683Y-36073D01*
X77474Y-36073D01*
X77281Y-36153D01*
X77133Y-36300D01*
X77053Y-36493D01*
X77053Y-36702D01*
X77133Y-36895D01*
X77280Y-37043D01*
X77473Y-37123D01*
X77682Y-37123D01*
X77875Y-37043D01*
X78023Y-36896D01*
X78078Y-36763D01*
X78133Y-36895D01*
X78280Y-37043D01*
X78473Y-37123D01*
X78682Y-37123D01*
X78875Y-37043D01*
X79023Y-36896D01*
X79103Y-36703D01*
X79103Y-36494D01*
X79103Y-38162D01*
X79063Y-38064D01*
X78908Y-37910D01*
X78706Y-37826D01*
X78488Y-37825D01*
X78346Y-37884D01*
X78330Y-37844D01*
X78175Y-37690D01*
X77973Y-37606D01*
X77755Y-37605D01*
X77552Y-37689D01*
X77398Y-37844D01*
X77314Y-38046D01*
X77314Y-38083D01*
X77157Y-38082D01*
X77000Y-38147D01*
X77000Y-32687D01*
X77000Y-32200D01*
X76992Y-32200D01*
X76992Y-32100D01*
X77000Y-32100D01*
X77000Y-31612D01*
X76937Y-31550D01*
X76749Y-31549D01*
X76650Y-31550D01*
X76558Y-31588D01*
X76487Y-31658D01*
X76464Y-31715D01*
X76390Y-31641D01*
X76169Y-31550D01*
X75931Y-31549D01*
X75710Y-31641D01*
X75541Y-31809D01*
X75450Y-32030D01*
X75449Y-32268D01*
X75541Y-32489D01*
X75709Y-32658D01*
X75930Y-32749D01*
X76168Y-32750D01*
X76389Y-32658D01*
X76464Y-32584D01*
X76487Y-32641D01*
X76558Y-32711D01*
X76650Y-32749D01*
X76749Y-32750D01*
X76937Y-32750D01*
X77000Y-32687D01*
X77000Y-38147D01*
X76954Y-38166D01*
X76800Y-38321D01*
X76716Y-38523D01*
X76715Y-38649D01*
X76646Y-38649D01*
X76443Y-38733D01*
X76429Y-38747D01*
X76429Y-35375D01*
X76425Y-35287D01*
X76425Y-34196D01*
X76345Y-34003D01*
X76197Y-33855D01*
X76004Y-33775D01*
X75796Y-33774D01*
X75603Y-33854D01*
X75455Y-34002D01*
X75375Y-34195D01*
X75374Y-34403D01*
X75454Y-34597D01*
X75602Y-34744D01*
X75728Y-34797D01*
X75627Y-34839D01*
X75602Y-34932D01*
X75900Y-35229D01*
X76197Y-34932D01*
X76172Y-34839D01*
X76062Y-34800D01*
X76197Y-34745D01*
X76344Y-34597D01*
X76424Y-34404D01*
X76425Y-34196D01*
X76425Y-35287D01*
X76418Y-35167D01*
X76360Y-35027D01*
X76267Y-35002D01*
X75970Y-35300D01*
X76267Y-35597D01*
X76360Y-35572D01*
X76429Y-35375D01*
X76429Y-38747D01*
X76289Y-38888D01*
X76205Y-39090D01*
X76205Y-39154D01*
X76197Y-39154D01*
X76197Y-35667D01*
X75900Y-35370D01*
X75829Y-35441D01*
X75829Y-35300D01*
X75532Y-35002D01*
X75439Y-35027D01*
X75370Y-35224D01*
X75381Y-35432D01*
X75439Y-35572D01*
X75532Y-35597D01*
X75829Y-35300D01*
X75829Y-35441D01*
X75602Y-35667D01*
X75627Y-35760D01*
X75824Y-35829D01*
X76032Y-35818D01*
X76172Y-35760D01*
X76197Y-35667D01*
X76197Y-39154D01*
X76079Y-39153D01*
X75876Y-39237D01*
X75775Y-39339D01*
X75775Y-38146D01*
X75695Y-37953D01*
X75547Y-37805D01*
X75414Y-37749D01*
X75547Y-37695D01*
X75694Y-37547D01*
X75774Y-37354D01*
X75775Y-37146D01*
X75695Y-36953D01*
X75547Y-36805D01*
X75354Y-36725D01*
X75146Y-36724D01*
X75144Y-36725D01*
X75144Y-32922D01*
X75061Y-32720D01*
X74906Y-32565D01*
X74704Y-32481D01*
X74485Y-32481D01*
X74283Y-32564D01*
X74144Y-32703D01*
X74144Y-32681D01*
X74106Y-32589D01*
X74035Y-32519D01*
X73943Y-32481D01*
X73706Y-32481D01*
X73644Y-32543D01*
X73644Y-32981D01*
X73652Y-32981D01*
X73652Y-33081D01*
X73644Y-33081D01*
X73644Y-33518D01*
X73706Y-33581D01*
X73943Y-33581D01*
X74035Y-33543D01*
X74106Y-33473D01*
X74144Y-33381D01*
X74144Y-33359D01*
X74282Y-33497D01*
X74484Y-33581D01*
X74703Y-33581D01*
X74905Y-33498D01*
X75060Y-33343D01*
X75144Y-33141D01*
X75144Y-32922D01*
X75144Y-36725D01*
X74953Y-36804D01*
X74805Y-36952D01*
X74725Y-37145D01*
X74724Y-37353D01*
X74804Y-37547D01*
X74952Y-37694D01*
X75085Y-37750D01*
X74953Y-37804D01*
X74805Y-37952D01*
X74725Y-38145D01*
X74724Y-38353D01*
X74804Y-38547D01*
X74952Y-38694D01*
X75145Y-38774D01*
X75353Y-38775D01*
X75547Y-38695D01*
X75694Y-38547D01*
X75774Y-38354D01*
X75775Y-38146D01*
X75775Y-39339D01*
X75722Y-39392D01*
X75638Y-39594D01*
X75638Y-39658D01*
X75477Y-39657D01*
X75274Y-39741D01*
X75120Y-39896D01*
X75036Y-40098D01*
X75035Y-40316D01*
X75119Y-40519D01*
X75274Y-40673D01*
X75476Y-40757D01*
X75562Y-40757D01*
X75562Y-40838D01*
X75646Y-41041D01*
X75801Y-41195D01*
X76003Y-41279D01*
X76064Y-41279D01*
X76064Y-41387D01*
X76117Y-41515D01*
X75990Y-41515D01*
X75989Y-41513D01*
X75834Y-41359D01*
X75632Y-41275D01*
X75414Y-41274D01*
X75211Y-41358D01*
X75057Y-41513D01*
X75026Y-41586D01*
X75026Y-40639D01*
X74942Y-40436D01*
X74788Y-40282D01*
X74586Y-40198D01*
X74367Y-40197D01*
X74182Y-40274D01*
X74182Y-39423D01*
X74182Y-35923D01*
X74103Y-35730D01*
X73955Y-35582D01*
X73762Y-35502D01*
X73553Y-35502D01*
X73544Y-35505D01*
X73544Y-33518D01*
X73544Y-33081D01*
X73544Y-32981D01*
X73544Y-32543D01*
X73481Y-32481D01*
X73244Y-32481D01*
X73153Y-32519D01*
X73082Y-32589D01*
X73044Y-32681D01*
X73044Y-32781D01*
X73044Y-32918D01*
X73106Y-32981D01*
X73544Y-32981D01*
X73544Y-33081D01*
X73106Y-33081D01*
X73044Y-33143D01*
X73044Y-33281D01*
X73044Y-33381D01*
X73082Y-33473D01*
X73153Y-33543D01*
X73244Y-33581D01*
X73481Y-33581D01*
X73544Y-33518D01*
X73544Y-35505D01*
X73360Y-35581D01*
X73213Y-35729D01*
X73132Y-35922D01*
X73132Y-36131D01*
X73212Y-36324D01*
X73360Y-36471D01*
X73552Y-36552D01*
X73761Y-36552D01*
X73954Y-36472D01*
X74102Y-36324D01*
X74182Y-36132D01*
X74182Y-35923D01*
X74182Y-39423D01*
X74103Y-39230D01*
X73955Y-39082D01*
X73762Y-39002D01*
X73553Y-39002D01*
X73360Y-39081D01*
X73213Y-39229D01*
X73132Y-39422D01*
X73132Y-39631D01*
X73212Y-39824D01*
X73360Y-39971D01*
X73552Y-40052D01*
X73761Y-40052D01*
X73954Y-39972D01*
X74102Y-39824D01*
X74182Y-39632D01*
X74182Y-39423D01*
X74182Y-40274D01*
X74165Y-40281D01*
X74026Y-40420D01*
X74026Y-40398D01*
X73988Y-40306D01*
X73918Y-40236D01*
X73826Y-40198D01*
X73726Y-40197D01*
X73126Y-40197D01*
X73034Y-40235D01*
X73025Y-40245D01*
X73025Y-36075D01*
X73025Y-35525D01*
X72987Y-35433D01*
X72923Y-35370D01*
X72923Y-32204D01*
X72923Y-32150D01*
X72923Y-32095D01*
X72923Y-32095D01*
X72923Y-32095D01*
X72923Y-32095D01*
X72848Y-31713D01*
X72848Y-31712D01*
X72806Y-31611D01*
X72589Y-31287D01*
X72512Y-31210D01*
X72510Y-31209D01*
X72188Y-30994D01*
X72187Y-30993D01*
X72087Y-30951D01*
X71704Y-30875D01*
X71595Y-30875D01*
X71593Y-30876D01*
X71213Y-30951D01*
X71212Y-30951D01*
X71111Y-30993D01*
X70787Y-31210D01*
X70710Y-31287D01*
X70709Y-31289D01*
X70494Y-31611D01*
X70493Y-31612D01*
X70451Y-31712D01*
X70375Y-32095D01*
X70375Y-32150D01*
X70375Y-32204D01*
X70451Y-32587D01*
X70493Y-32687D01*
X70494Y-32688D01*
X70709Y-33010D01*
X70710Y-33012D01*
X70787Y-33089D01*
X71111Y-33306D01*
X71212Y-33348D01*
X71213Y-33348D01*
X71593Y-33423D01*
X71595Y-33424D01*
X71704Y-33424D01*
X72087Y-33348D01*
X72187Y-33306D01*
X72188Y-33305D01*
X72510Y-33090D01*
X72512Y-33089D01*
X72589Y-33012D01*
X72806Y-32688D01*
X72848Y-32587D01*
X72848Y-32586D01*
X72923Y-32204D01*
X72923Y-32204D01*
X72923Y-32204D01*
X72923Y-32204D01*
X72923Y-35370D01*
X72916Y-35363D01*
X72824Y-35325D01*
X72725Y-35324D01*
X72175Y-35324D01*
X72083Y-35362D01*
X72013Y-35433D01*
X71975Y-35525D01*
X71974Y-35612D01*
X71960Y-35577D01*
X71867Y-35552D01*
X71797Y-35623D01*
X71797Y-35482D01*
X71772Y-35389D01*
X71575Y-35320D01*
X71367Y-35331D01*
X71227Y-35389D01*
X71202Y-35482D01*
X71500Y-35779D01*
X71797Y-35482D01*
X71797Y-35623D01*
X71570Y-35850D01*
X71867Y-36147D01*
X71960Y-36122D01*
X71974Y-36081D01*
X71974Y-36174D01*
X72012Y-36266D01*
X72083Y-36336D01*
X72175Y-36374D01*
X72274Y-36375D01*
X72824Y-36375D01*
X72916Y-36337D01*
X72986Y-36266D01*
X73024Y-36174D01*
X73025Y-36075D01*
X73025Y-40245D01*
X72964Y-40306D01*
X72926Y-40398D01*
X72926Y-40497D01*
X72926Y-41097D01*
X72964Y-41189D01*
X73034Y-41259D01*
X73126Y-41297D01*
X73225Y-41298D01*
X73825Y-41298D01*
X73917Y-41260D01*
X73988Y-41189D01*
X74026Y-41097D01*
X74026Y-41075D01*
X74164Y-41214D01*
X74366Y-41297D01*
X74585Y-41298D01*
X74787Y-41214D01*
X74942Y-41059D01*
X75026Y-40857D01*
X75026Y-40639D01*
X75026Y-41586D01*
X74973Y-41715D01*
X74972Y-41933D01*
X75056Y-42136D01*
X75211Y-42290D01*
X75413Y-42374D01*
X75519Y-42374D01*
X75518Y-42514D01*
X75602Y-42717D01*
X75757Y-42871D01*
X75959Y-42955D01*
X76161Y-42956D01*
X76161Y-43012D01*
X76245Y-43215D01*
X76400Y-43369D01*
X76602Y-43453D01*
X76820Y-43454D01*
X77023Y-43370D01*
X77034Y-43359D01*
X77072Y-43452D01*
X77227Y-43606D01*
X77429Y-43690D01*
X77647Y-43691D01*
X77850Y-43607D01*
X78004Y-43452D01*
X78088Y-43250D01*
X78089Y-43032D01*
X78005Y-42829D01*
X77850Y-42675D01*
X77849Y-42674D01*
X77849Y-42646D01*
X78064Y-42430D01*
X78646Y-42430D01*
X78608Y-42468D01*
X78608Y-42485D01*
X78646Y-42577D01*
X78716Y-42647D01*
X78808Y-42685D01*
X78908Y-42685D01*
X78952Y-42685D01*
X79015Y-42623D01*
X79015Y-42430D01*
X79065Y-42430D01*
X79069Y-42429D01*
X79115Y-42429D01*
X79115Y-42623D01*
X79177Y-42685D01*
X79222Y-42685D01*
X79321Y-42685D01*
X79412Y-42648D01*
X79723Y-42653D01*
X79735Y-38725D01*
X79735Y-48090D01*
X78543Y-48090D01*
X78543Y-46138D01*
X78532Y-45930D01*
X78474Y-45790D01*
X78381Y-45765D01*
X78310Y-45836D01*
X78310Y-45695D01*
X78286Y-45602D01*
X78089Y-45533D01*
X78066Y-45534D01*
X78066Y-44856D01*
X77986Y-44663D01*
X77839Y-44515D01*
X77646Y-44435D01*
X77437Y-44435D01*
X77244Y-44515D01*
X77097Y-44661D01*
X77092Y-44648D01*
X76999Y-44624D01*
X76928Y-44694D01*
X76928Y-44553D01*
X76904Y-44460D01*
X76707Y-44391D01*
X76499Y-44402D01*
X76359Y-44460D01*
X76334Y-44553D01*
X76631Y-44850D01*
X76928Y-44553D01*
X76928Y-44694D01*
X76702Y-44921D01*
X76999Y-45218D01*
X77071Y-45199D01*
X77096Y-45257D01*
X77243Y-45405D01*
X77436Y-45485D01*
X77645Y-45485D01*
X77838Y-45405D01*
X77986Y-45258D01*
X78066Y-45065D01*
X78066Y-44856D01*
X78066Y-45534D01*
X77881Y-45544D01*
X77740Y-45602D01*
X77716Y-45695D01*
X78013Y-45992D01*
X78310Y-45695D01*
X78310Y-45836D01*
X78084Y-46062D01*
X78381Y-46360D01*
X78474Y-46335D01*
X78543Y-46138D01*
X78543Y-48090D01*
X78310Y-48090D01*
X78310Y-46430D01*
X78013Y-46133D01*
X77943Y-46204D01*
X77943Y-46062D01*
X77645Y-45765D01*
X77553Y-45790D01*
X77483Y-45987D01*
X77495Y-46195D01*
X77553Y-46335D01*
X77645Y-46360D01*
X77943Y-46062D01*
X77943Y-46204D01*
X77716Y-46430D01*
X77740Y-46523D01*
X77937Y-46592D01*
X78146Y-46581D01*
X78286Y-46523D01*
X78310Y-46430D01*
X78310Y-48090D01*
X76928Y-48090D01*
X76928Y-45289D01*
X76631Y-44991D01*
X76561Y-45062D01*
X76561Y-44921D01*
X76264Y-44624D01*
X76171Y-44648D01*
X76101Y-44845D01*
X76113Y-45054D01*
X76171Y-45194D01*
X76264Y-45218D01*
X76561Y-44921D01*
X76561Y-45062D01*
X76334Y-45289D01*
X76359Y-45381D01*
X76556Y-45451D01*
X76764Y-45439D01*
X76904Y-45381D01*
X76928Y-45289D01*
X76928Y-48090D01*
X75105Y-48090D01*
X75105Y-43281D01*
X75105Y-42681D01*
X75067Y-42590D01*
X74996Y-42519D01*
X74905Y-42481D01*
X74805Y-42481D01*
X74205Y-42481D01*
X74113Y-42519D01*
X74043Y-42589D01*
X74005Y-42681D01*
X74005Y-42703D01*
X73867Y-42565D01*
X73664Y-42481D01*
X73446Y-42481D01*
X73243Y-42564D01*
X73089Y-42719D01*
X73005Y-42921D01*
X73005Y-43140D01*
X73088Y-43342D01*
X73243Y-43497D01*
X73445Y-43581D01*
X73664Y-43581D01*
X73866Y-43498D01*
X74005Y-43359D01*
X74005Y-43381D01*
X74043Y-43472D01*
X74113Y-43543D01*
X74205Y-43581D01*
X74304Y-43581D01*
X74904Y-43581D01*
X74996Y-43543D01*
X75066Y-43473D01*
X75105Y-43381D01*
X75105Y-43281D01*
X75105Y-48090D01*
X73656Y-48090D01*
X73656Y-44817D01*
X73577Y-44624D01*
X73429Y-44476D01*
X73236Y-44396D01*
X73027Y-44396D01*
X72834Y-44475D01*
X72687Y-44623D01*
X72655Y-44698D01*
X72655Y-38168D01*
X72644Y-37959D01*
X72586Y-37819D01*
X72493Y-37795D01*
X72423Y-37866D01*
X72423Y-37724D01*
X72398Y-37631D01*
X72201Y-37562D01*
X71993Y-37573D01*
X71853Y-37631D01*
X71828Y-37724D01*
X72125Y-38021D01*
X72423Y-37724D01*
X72423Y-37866D01*
X72196Y-38092D01*
X72493Y-38389D01*
X72586Y-38365D01*
X72655Y-38168D01*
X72655Y-44698D01*
X72651Y-44710D01*
X72651Y-41488D01*
X72571Y-41295D01*
X72423Y-41147D01*
X72423Y-41147D01*
X72423Y-38460D01*
X72125Y-38163D01*
X72055Y-38233D01*
X72055Y-38092D01*
X71797Y-37834D01*
X71797Y-36217D01*
X71500Y-35920D01*
X71429Y-35991D01*
X71429Y-35850D01*
X71132Y-35552D01*
X71039Y-35577D01*
X70970Y-35774D01*
X70981Y-35982D01*
X71039Y-36122D01*
X71132Y-36147D01*
X71429Y-35850D01*
X71429Y-35991D01*
X71202Y-36217D01*
X71227Y-36310D01*
X71424Y-36379D01*
X71632Y-36368D01*
X71772Y-36310D01*
X71797Y-36217D01*
X71797Y-37834D01*
X71758Y-37795D01*
X71665Y-37819D01*
X71596Y-38016D01*
X71607Y-38225D01*
X71665Y-38365D01*
X71758Y-38389D01*
X72055Y-38092D01*
X72055Y-38233D01*
X71828Y-38460D01*
X71853Y-38553D01*
X72050Y-38622D01*
X72258Y-38611D01*
X72398Y-38553D01*
X72423Y-38460D01*
X72423Y-41147D01*
X72230Y-41067D01*
X72022Y-41067D01*
X71828Y-41147D01*
X71681Y-41294D01*
X71601Y-41487D01*
X71600Y-41696D01*
X71680Y-41889D01*
X71828Y-42037D01*
X72021Y-42117D01*
X72229Y-42117D01*
X72422Y-42037D01*
X72570Y-41890D01*
X72650Y-41697D01*
X72651Y-41488D01*
X72651Y-44710D01*
X72606Y-44816D01*
X72606Y-45025D01*
X72686Y-45218D01*
X72834Y-45366D01*
X73027Y-45446D01*
X73235Y-45446D01*
X73428Y-45366D01*
X73576Y-45219D01*
X73656Y-45026D01*
X73656Y-44817D01*
X73656Y-48090D01*
X73123Y-48090D01*
X73123Y-46554D01*
X73123Y-46500D01*
X73123Y-46445D01*
X73123Y-46445D01*
X73123Y-46445D01*
X73123Y-46445D01*
X73048Y-46063D01*
X73048Y-46062D01*
X73006Y-45961D01*
X72789Y-45637D01*
X72712Y-45560D01*
X72710Y-45559D01*
X72388Y-45344D01*
X72387Y-45343D01*
X72287Y-45301D01*
X71904Y-45225D01*
X71795Y-45225D01*
X71793Y-45226D01*
X71413Y-45301D01*
X71412Y-45301D01*
X71311Y-45343D01*
X70987Y-45560D01*
X70910Y-45637D01*
X70909Y-45639D01*
X70694Y-45961D01*
X70693Y-45962D01*
X70651Y-46062D01*
X70575Y-46445D01*
X70575Y-46500D01*
X70575Y-46554D01*
X70651Y-46937D01*
X70693Y-47037D01*
X70694Y-47038D01*
X70909Y-47360D01*
X70910Y-47362D01*
X70987Y-47439D01*
X71311Y-47656D01*
X71412Y-47698D01*
X71413Y-47698D01*
X71793Y-47773D01*
X71795Y-47774D01*
X71904Y-47774D01*
X72287Y-47698D01*
X72387Y-47656D01*
X72388Y-47655D01*
X72710Y-47440D01*
X72712Y-47439D01*
X72789Y-47362D01*
X73006Y-47038D01*
X73048Y-46937D01*
X73048Y-46936D01*
X73123Y-46554D01*
X73123Y-46554D01*
X73123Y-46554D01*
X73123Y-46554D01*
X73123Y-48090D01*
X70320Y-48090D01*
X70261Y-43519D01*
X70266Y-43519D01*
X70293Y-30732D01*
X93606Y-30732D01*
X93606Y-48090D01*
M02*
