M48
;DRILL file {Pcbnew (2013-07-07 BZR 4022)-stable} date 30/04/2014 12:17:44
;FORMAT={-:-/ absolute / inch / decimal}
FMAT,2
INCH,TZ
T1C0.024
T2C0.025
T3C0.031
T4C0.032
T5C0.035
T6C0.039
%
G90
G05
M72
T1
X7.2126Y-3.8093
X7.2126Y-4.1593
X7.3132Y-4.4921
X7.3658Y-3.6027
X7.3658Y-3.9527
X7.525Y-3.725
X7.525Y-3.825
X7.59Y-3.43
X7.59Y-3.53
X7.6632Y-4.4921
X7.7541Y-4.4961
X7.7579Y-3.6598
X7.8014Y-4.6063
X7.8579Y-3.6598
X8.1041Y-4.4961
X8.1514Y-4.6063
X8.222Y-4.4709
X8.322Y-4.4709
X8.4825Y-3.7323
X8.5573Y-3.8701
X8.6833Y-3.9843
X8.7541Y-4.4921
X8.8325Y-3.7323
X8.9073Y-3.8701
X9.0333Y-3.9843
X9.1041Y-4.4921
X9.1063Y-4.1744
X9.1063Y-4.2744
T2
X7.5523Y-4.1825
X7.5586Y-4.0208
X7.6069Y-4.2406
X7.6113Y-4.073
X7.6188Y-3.9704
X7.6615Y-4.1279
X7.6712Y-4.2904
X7.6755Y-3.92
X7.7266Y-3.8633
X7.7539Y-4.3141
X7.7864Y-3.8156
X7.8597Y-3.8376
X7.875Y-4.316
X8.1936Y-3.8277
X8.2796Y-4.2759
X8.2926Y-3.8196
X8.3493Y-3.8745
X8.3624Y-4.3025
X8.3832Y-4.1832
X8.4191Y-3.9042
X8.463Y-4.1412
X8.4717Y-4.0329
X8.4744Y-3.9551
X8.4861Y-4.3218
X8.5575Y-4.0831
T3
X7.3476Y-4.0748
X7.3555Y-4.3031
X7.4476Y-4.0748
X7.4555Y-4.3031
X7.4594Y-3.3031
X8.27Y-3.225
X8.27Y-3.325
X8.4728Y-3.5059
X8.4728Y-3.6059
X8.565Y-3.225
X8.565Y-3.325
X8.6228Y-3.5059
X8.6228Y-3.6059
X8.7531Y-4.1441
X8.7531Y-4.2441
X8.7531Y-4.3441
X8.7728Y-3.5059
X8.7728Y-3.6059
X8.8531Y-4.1441
X8.8531Y-4.2441
X8.8531Y-4.3441
X8.9Y-3.23
X8.9Y-3.33
T4
X7.15Y-3.585
X7.25Y-3.585
X7.875Y-3.41
X7.875Y-3.51
X7.995Y-3.31
X8.095Y-3.31
T5
X7.3594Y-3.3031
T6
X7.605Y-3.215
X7.705Y-3.215
X7.805Y-3.215
T0
M30
